<?xml version="1.0" standalone="no"?>
<!DOCTYPE svg PUBLIC "-//W3C//DTD SVG 1.1//EN" "http://www.w3.org/Graphics/SVG/1.1/DTD/svg11.dtd" >
<svg>
<metadata>
Created by FontForge 20090914 at Fri Feb 24 14:53:19 2012
 By root
Copyright (c) 2011 by Brian J. Bonislawsky DBA Astigmatic (AOETI) (astigma@astigmatic.com), with ReservedFont Name "Devonshire"
</metadata>
<defs>
<font id="Devonshire-Regular" horiz-adv-x="400" >
  <font-face 
    font-family="Devonshire"
    font-weight="400"
    font-stretch="normal"
    units-per-em="1000"
    panose-1="3 6 7 2 3 7 6 7 13 4"
    ascent="800"
    descent="-200"
    x-height="439"
    cap-height="728"
    bbox="-240 -433 1000 981"
    underline-thickness="20"
    underline-position="-113"
    unicode-range="U+0020-U+FB02"
  />
<missing-glyph horiz-adv-x="1000" 
 />
    <glyph glyph-name="fi" unicode="fi" horiz-adv-x="597" 
d="M597 179c0 -64 -24 -135 -76 -175c-12 -9 -27 -16 -42 -16c-40 0 -59 53 -71 84c-13 33 -19 67 -19 103c0 45 7 94 16 152c-67 -32 -137 -53 -152 -58c58 -63 91 -117 91 -242c0 -137 -62 -268 -136 -380c-20 -30 -46 -32 -79 -32c-24 0 -32 9 -44 28
c-13 22 -29 42 -41 65c-27 53 -34 106 -34 164c0 123 24 252 42 373c-9 6 -17 22 -17 32c0 13 3 22 13 36c-15 38 -28 51 -28 95c0 13 0 54 19 54c11 0 17 -18 17 -27c0 -10 -3 -19 -3 -29c0 -5 1 -16 9 -16c3 0 6 2 9 5c34 34 56 83 75 127c25 56 52 112 81 166
c6 12 16 23 31 23c25 0 39 -24 39 -46c0 -12 -3 -21 -10 -30c-24 -36 -42 -70 -58 -111c-25 -63 -48 -126 -68 -191c52 13 188 66 213 95c15 17 30 23 54 23c16 0 67 -26 67 -60c0 -62 -22 -163 -32 -245c-1 -4 -1 -8 -1 -12c0 -6 1 -18 9 -18c18 0 89 109 101 128
c2 4 10 17 15 17c4 0 5 -10 5 -12c3 -23 5 -47 5 -70zM267 89c0 72 -37 128 -91 156c-18 -5 -30 -7 -44 -10c-33 -144 -48 -312 -48 -459c0 -15 1 -74 25 -74c8 0 16 8 21 14c83 88 137 254 137 373zM562 688c0 -46 -50 -144 -81 -176c-3 -4 -7 -6 -12 -6
c-22 0 -25 23 -25 39c0 41 18 78 35 113c7 15 9 30 11 46c2 10 2 23 16 23c23 0 56 -14 56 -39z" />
    <glyph glyph-name="fl" unicode="fl" horiz-adv-x="598" 
d="M377 351c0 -37 -87 -84 -115 -97c54 -72 82 -135 82 -227c0 -137 -62 -268 -136 -380c-20 -30 -46 -32 -79 -32c-24 0 -32 9 -44 28c-13 22 -29 42 -41 65c-27 53 -34 106 -34 164c0 123 22 244 40 365c-9 11 -15 24 -15 37s6 24 16 31c-15 38 -31 59 -31 103
c0 13 0 54 19 54c11 0 17 -18 17 -27c0 -10 -3 -19 -3 -29c0 -5 1 -16 9 -16c3 0 6 2 9 5c34 34 56 83 75 127c25 56 52 112 81 166c6 12 16 23 31 23c25 0 39 -24 39 -46c0 -12 -3 -21 -10 -30c-24 -36 -42 -70 -58 -111c-25 -63 -48 -126 -68 -191c36 13 63 34 91 60
c12 10 25 16 41 16c27 0 84 -27 84 -58zM267 89c0 59 -21 111 -75 139c-21 -5 -42 -9 -63 -12c-33 -144 -45 -293 -45 -440c0 -15 1 -74 25 -74c7 0 16 8 21 14c83 88 137 254 137 373zM598 235c0 -28 -9 -69 -12 -98c-5 -58 -28 -80 -65 -129c-8 -10 -18 -16 -30 -16
c-34 0 -55 46 -71 79c-23 45 -35 89 -35 143c0 91 20 183 32 273c-13 0 -23 6 -23 20c0 7 2 14 4 20c13 41 51 141 51 178c0 10 -5 20 -5 30c0 9 5 12 13 12c5 0 9 -1 13 -2c39 -8 60 -28 60 -69c0 -10 -1 -19 -3 -29c-27 -168 -58 -334 -58 -505c0 -15 5 -29 14 -29
c4 0 7 2 11 6c33 41 65 78 81 106c4 7 11 21 17 21s6 -9 6 -11z" />
    <glyph glyph-name=".notdef" horiz-adv-x="1000" 
 />
    <glyph glyph-name="A" unicode="A" horiz-adv-x="601" 
d="M601 354c0 -39 -63 -90 -93 -109c0 -23 1 -46 2 -70c3 2 6 2 9 2c20 0 44 -39 54 -53c10 -15 18 -30 18 -48c0 -11 -3 -20 -6 -30c-14 -36 -24 -65 -31 -103c-3 -14 -10 -21 -24 -21c-61 0 -63 110 -66 152c-4 48 -7 97 -10 146c-26 -9 -52 -10 -80 -11
c-10 -46 -21 -92 -33 -137c-20 -68 -68 -128 -145 -128c-13 0 -25 2 -38 5c-88 24 -145 79 -176 163c-7 19 -12 38 -12 58c0 36 16 67 50 82c66 30 138 49 211 49c30 0 60 -2 93 -2c4 17 7 34 11 51c17 93 38 186 38 281v26c0 36 25 37 55 37c45 0 101 -27 101 -78
c0 -8 -1 -15 -2 -23c-10 -89 -17 -179 -19 -269c25 10 45 22 66 38c5 4 10 7 16 7c8 0 11 -8 11 -15zM450 309c-4 89 -6 179 -8 268l-49 -276c19 2 38 4 57 8zM301 208h-64c-65 0 -131 -2 -195 -17c-15 -3 -41 -10 -41 -30c0 -17 21 -38 32 -49c31 -30 99 -51 141 -51
c86 0 107 80 127 147z" />
    <glyph glyph-name="B" unicode="B" horiz-adv-x="478" 
d="M463 122c0 -107 -129 -144 -213 -161c-22 -5 -45 -9 -67 -9c-27 0 -61 13 -61 45c0 13 6 27 12 39c-2 22 -3 44 -3 66c0 52 5 102 12 153c-13 1 -23 12 -23 25c0 19 6 37 8 56c3 24 9 41 30 55c5 67 9 134 16 201c-23 0 -46 0 -70 -3c-33 -4 -48 -8 -73 -19
c-6 -3 -12 -6 -18 -6c-13 0 -18 11 -19 22c-3 18 -3 37 -3 55c0 8 -1 25 10 25c2 0 4 -1 6 -2c61 25 128 38 194 38c73 0 153 -21 193 -88c17 -29 30 -62 30 -96c0 -33 -13 -61 -36 -85c-38 -41 -82 -76 -128 -108c85 -26 172 -70 197 -163c4 -13 6 -26 6 -40zM334 545
c0 14 -22 24 -33 29c-32 16 -78 18 -114 18c25 -14 31 -29 31 -58v-8c-3 -23 -5 -45 -5 -68c0 -9 0 -19 1 -28c21 16 120 93 120 115zM391 136c0 12 -7 24 -15 34c-35 45 -90 67 -144 83c-6 2 -11 4 -17 4c-5 0 -10 -1 -14 -3c-9 -51 -17 -102 -18 -153c11 28 48 57 75 57
c3 0 10 0 10 -5c0 -6 -11 -10 -15 -11c-36 -13 -57 -27 -57 -69c0 -18 9 -28 27 -28c45 0 109 36 147 59c14 8 21 19 21 32z" />
    <glyph glyph-name="C" unicode="C" horiz-adv-x="384" 
d="M359 224c0 -89 -39 -171 -100 -235c-16 -17 -35 -22 -58 -22c-19 0 -38 3 -56 9c-50 15 -82 52 -96 102c-13 45 -19 92 -19 139c0 153 71 326 156 451c4 5 9 12 17 12c6 0 26 -12 34 -15v30c-3 6 -6 14 -6 21c0 6 3 9 9 9s10 -1 16 -3c68 -23 88 -75 88 -144
c0 -42 -17 -100 -33 -133c-4 -8 -9 -18 -16 -18c-8 0 -12 11 -15 16c-25 52 -36 114 -41 171c-9 0 -16 -2 -21 -10c-11 -17 -18 -40 -25 -59c-40 -108 -63 -234 -63 -349c0 -56 5 -115 22 -169c91 85 154 218 183 337c14 -46 24 -92 24 -140z" />
    <glyph glyph-name="D" unicode="D" horiz-adv-x="490" 
d="M480 392c0 -71 -19 -140 -52 -203c-32 -62 -69 -125 -116 -178c-18 -19 -40 -34 -67 -34c-53 0 -77 48 -77 94c0 47 14 150 66 171c-3 -14 -5 -28 -5 -42c0 -33 21 -106 63 -106c17 0 28 15 35 28c42 76 62 169 62 255c0 78 -13 177 -89 220c-15 8 -32 14 -50 14
s-36 -6 -52 -14c6 -32 8 -65 8 -98c0 -53 -5 -105 -14 -157c-14 -93 -31 -186 -31 -281v-32c0 -12 0 -26 -11 -33c-7 -5 -18 -9 -26 -9c-25 0 -33 34 -38 53c-14 51 -14 105 -24 158c3 1 6 1 9 1c17 0 31 -14 42 -26v26c-1 97 11 192 21 288c1 8 1 16 1 23c0 17 -1 34 -4 51
c-23 -14 -71 -61 -97 -61c-28 0 -20 49 -20 66c0 13 -4 26 -4 39c0 9 3 15 11 20c39 26 115 52 161 63c24 5 47 9 71 9c111 0 170 -77 205 -174c15 -42 22 -87 22 -131z" />
    <glyph glyph-name="E" unicode="E" horiz-adv-x="452" 
d="M452 640c0 -34 -123 -85 -153 -97c-3 -1 -5 -2 -8 -2c-5 0 -6 4 -6 8c0 8 7 30 10 39c-72 -38 -109 -44 -144 -125c-3 -7 -6 -13 -6 -20c0 -37 129 -33 156 -34c9 5 24 15 34 15c18 0 36 -21 47 -33c14 -15 21 -38 21 -58c0 -10 -5 -12 -13 -12c-12 0 -26 4 -37 6
c-105 -31 -185 -45 -253 -141c-16 -22 -26 -52 -26 -80c0 -43 24 -72 69 -72s165 20 165 80c0 14 -6 38 -23 38c-28 0 -146 -81 -155 -81c-4 0 -6 4 -6 8c0 7 3 14 7 21c37 63 103 107 179 107c59 0 117 -43 117 -105c0 -21 -7 -41 -20 -58c-49 -64 -156 -80 -232 -80
c-66 0 -121 24 -157 82c-17 26 -28 55 -28 86c0 36 14 69 28 101c32 75 98 106 170 132c-59 19 -97 59 -97 123c0 38 18 70 46 94c55 48 122 80 183 118c9 6 18 10 28 10c19 0 34 -13 46 -27c6 1 12 2 17 2c16 0 26 -6 33 -20c3 -7 8 -17 8 -25z" />
    <glyph glyph-name="F" unicode="F" horiz-adv-x="501" 
d="M551 466c0 -15 -18 -43 -26 -55c-34 -53 -79 -87 -137 -110c-16 -88 -47 -172 -89 -251c-19 -37 -51 -86 -99 -86c-25 0 -48 14 -67 30c-35 30 -43 63 -55 104c-6 18 -9 37 -9 56c0 108 125 182 213 217l41 16c2 19 2 38 2 58c0 45 -3 93 -12 137c-4 26 -18 44 -46 44
c-11 0 -25 -4 -34 -9c-12 -7 -14 -20 -16 -32c-17 -84 -45 -154 -100 -221c-12 -15 -31 -37 -52 -37c-16 0 -29 15 -36 28c-6 13 -4 29 -7 43c-1 7 -2 14 -2 22c0 88 128 141 128 262c0 8 -1 17 -1 25c0 5 0 13 7 13c9 0 47 -38 56 -47c20 13 44 21 68 21
c70 0 107 -59 116 -123c8 -50 9 -102 8 -153c21 8 128 57 139 57c6 0 10 -3 10 -9zM305 276l-47 -12c-40 -10 -81 -8 -121 -17c-20 -4 -37 -17 -37 -39c0 -40 72 -111 112 -111c15 0 26 6 33 20c27 48 47 105 60 159z" />
    <glyph glyph-name="G" unicode="G" horiz-adv-x="443" 
d="M455 387c0 -34 -51 -52 -78 -66c-9 -4 -22 -11 -22 -22c0 -3 2 -6 3 -9c17 -32 26 -61 26 -97c0 -54 -22 -105 -51 -149c-29 -42 -71 -66 -121 -66c-60 0 -127 21 -151 80c-21 53 -31 110 -31 166c0 168 80 324 149 472c8 18 24 23 42 23c30 0 83 -14 104 -37
c15 -16 28 -37 28 -59c0 -26 -22 -63 -36 -85c-12 -18 -9 -28 -11 -48c-1 -8 -6 -14 -15 -14c-24 0 -24 28 -29 44c-12 34 -10 57 -10 92c0 5 -2 13 -8 13c-5 0 -7 -6 -9 -10c-12 -25 -23 -51 -33 -76c-44 -109 -79 -218 -79 -339c0 -40 2 -85 12 -125c3 -12 10 -21 24 -21
c19 0 36 17 47 31c36 47 67 104 67 164c0 18 -8 27 -25 27c-6 0 -11 -1 -17 -1c-17 0 -36 6 -49 18c-6 5 -16 16 -16 24c0 9 10 14 16 17c38 19 77 35 115 52l86 41c7 4 15 6 21 6c22 0 51 -23 51 -46z" />
    <glyph glyph-name="H" unicode="H" horiz-adv-x="472" 
d="M487 323c0 -7 -7 -12 -12 -16c-22 -16 -43 -43 -69 -52c-8 -3 -6 -2 -13 -4c-2 -33 -6 -66 -6 -98c0 -34 9 -66 15 -99c1 -5 1 -10 1 -15c0 -15 -5 -53 -25 -53c-8 0 -15 6 -21 11c-31 29 -45 56 -45 98c0 44 4 89 8 133c-23 -6 -45 -13 -68 -21
c-9 -39 -26 -101 -26 -139c0 -25 10 -46 10 -68c0 -18 -13 -48 -34 -48c-24 0 -36 40 -46 57c-11 20 -19 39 -19 63c0 35 6 72 11 107c-18 2 -36 9 -48 24c-11 13 -45 70 -45 85c0 5 2 9 7 9c10 0 21 -9 34 -9c23 0 55 12 77 17c21 95 48 188 70 283c2 7 3 14 3 21
c0 6 -1 18 -10 18c-7 0 -59 -7 -59 -22c0 -14 31 -33 31 -51c0 -2 0 -3 -1 -5c-40 -51 -87 -106 -139 -145c-6 -5 -12 -8 -20 -8c-17 0 -27 16 -31 30c-8 23 -27 57 -27 80c0 15 6 28 16 39c53 53 113 101 174 145c10 8 23 10 35 10c15 0 29 -3 42 -7c41 -15 70 -92 70 -133
c0 -9 -1 -19 -3 -28c-13 -67 -28 -133 -43 -199l49 11c13 113 35 221 66 330c1 3 2 7 2 10c0 13 -10 20 -10 29c0 3 2 5 5 5c13 0 33 -22 43 -30c8 -8 11 -16 11 -27c0 -8 -1 -16 -3 -24c-20 -91 -33 -184 -42 -278c6 1 7 1 8 1c19 0 77 -13 77 -37z" />
    <glyph glyph-name="I" unicode="I" horiz-adv-x="293" 
d="M272 501c0 -171 -23 -358 -54 -529c-3 -14 -9 -22 -22 -22c-32 0 -105 87 -129 112c-8 9 -15 19 -15 32c0 16 16 60 37 60c23 0 27 -42 45 -42c8 0 10 11 11 17c4 28 7 56 11 84c9 59 19 118 29 177c11 70 22 141 22 213c0 13 4 65 -15 65c-18 0 -42 -39 -42 -56
c0 -3 1 -6 2 -10c4 -18 8 -35 8 -54c0 -40 -31 -170 -47 -208c-4 -9 -10 -19 -22 -19c-8 0 -15 5 -20 11c-14 15 -23 35 -36 52c-8 11 -15 24 -15 38c0 27 67 166 83 197c-5 6 -14 15 -14 23c0 9 9 12 17 12c4 0 9 -2 13 -4c18 32 36 78 79 78c79 0 74 -175 74 -227z" />
    <glyph glyph-name="J" unicode="J" horiz-adv-x="376" 
d="M526 663c0 -12 -6 -21 -15 -28c-53 -40 -146 -36 -210 -34c-25 -37 -40 -77 -40 -122c0 -15 2 -30 4 -44c14 -78 39 -153 39 -233c0 -16 -1 -33 -4 -49c-9 -57 -25 -130 -89 -147c-28 -8 -57 -12 -86 -12c-54 0 -108 15 -155 42c-21 12 -30 26 -30 49c0 11 1 22 3 33
c2 16 3 37 21 44c52 21 111 32 167 32c11 0 72 1 72 -13c0 -7 -11 -13 -16 -16c-30 -15 -65 -26 -87 -53c20 3 40 8 60 9c79 5 89 88 89 151c0 84 -28 164 -28 247c0 29 4 60 11 84l-149 9c-29 2 -55 8 -58 41c-1 14 -2 28 -2 41c0 14 4 21 18 21c101 0 202 -5 303 -5
c39 0 78 1 117 1c29 0 65 -14 65 -48z" />
    <glyph glyph-name="K" unicode="K" horiz-adv-x="532" 
d="M572 693c0 -6 -3 -12 -6 -17c-59 -133 -148 -247 -247 -352c-1 -1 -2 -3 -2 -5c0 -4 2 -9 7 -11c9 -2 18 -2 27 -4c38 -10 61 -40 77 -75c16 -37 30 -74 47 -110c4 -10 12 -24 25 -24c12 0 17 10 25 10c15 0 15 -37 15 -46c0 -34 -1 -50 -30 -71c-12 -9 -30 -23 -46 -23
c-17 0 -30 14 -40 26c-61 74 -64 153 -103 234c-5 12 -15 26 -29 26c-27 0 -19 -35 -50 -34c-9 -42 -15 -85 -15 -127c0 -21 2 -41 5 -61c1 -3 1 -6 1 -8c0 -20 -24 -41 -43 -41c-13 0 -24 13 -32 22c-19 20 -14 34 -16 58c-2 23 -4 46 -4 69c0 173 71 313 112 476
c1 4 2 9 2 14c0 12 -5 20 -18 20c-28 0 -24 -19 -24 -38c0 -79 -88 -160 -149 -199c-7 -4 -15 -8 -23 -8c-25 0 -38 51 -38 71c0 13 5 22 13 33c52 69 117 135 189 184c13 9 28 14 44 14c20 0 40 -7 57 -16c30 -16 42 -52 42 -84c0 -43 -38 -148 -52 -193
c71 68 160 223 212 309c0 10 3 25 15 25c14 0 29 -19 40 -27c6 -5 12 -9 12 -17z" />
    <glyph glyph-name="L" unicode="L" horiz-adv-x="396" 
d="M385 148c0 -31 -3 -64 -10 -94c-11 -45 -44 -63 -88 -63c-56 0 -109 24 -157 49c-16 -22 -37 -48 -67 -48c-38 0 -123 85 -123 124c0 24 33 34 53 34c29 0 62 -13 90 -22c23 43 36 90 41 138c14 140 38 279 56 418c1 7 4 28 13 28c12 0 31 -36 37 -46v6c0 9 -4 17 -4 25
c0 2 1 4 3 4c3 0 6 -2 9 -4c15 -10 29 -19 44 -28c19 -13 26 -31 29 -53c2 -20 4 -39 4 -59c0 -36 -8 -71 -31 -100c-4 -5 -10 -14 -17 -14c-23 0 -7 46 -27 46c-7 0 -8 -5 -9 -11c-2 -31 -1 -62 -2 -93c-4 -81 -15 -161 -41 -237c-5 -14 -11 -28 -17 -41c17 -3 35 -5 52 -5
c52 0 105 12 140 52c3 4 11 12 16 12c7 0 6 -14 6 -18zM51 83c-3 1 -15 8 -18 8s-3 -4 -3 -6c0 -5 2 -15 8 -15c4 0 11 10 13 13z" />
    <glyph glyph-name="M" unicode="M" horiz-adv-x="715" 
d="M715 306c0 -4 0 -6 -1 -17c-8 -96 -29 -205 -95 -278c-23 -26 -52 -30 -85 -31c-55 20 -72 73 -72 127c0 12 1 24 3 36c19 133 45 265 68 397c-62 -125 -90 -249 -108 -388c-4 -30 -6 -60 -10 -91c-2 -16 -8 -32 -27 -32c-27 0 -51 27 -66 47c-9 12 -12 20 -12 35
c0 140 29 281 54 418c-47 -51 -91 -265 -107 -336c-11 -46 -22 -91 -32 -137c-5 -19 -3 -38 -22 -50c-6 -4 -13 -6 -19 -6c-33 0 -46 38 -56 64c-3 9 -5 15 -5 25c0 17 6 35 10 52c35 153 72 307 88 463v7c0 5 0 18 -8 18c-12 0 -45 -58 -50 -70c-6 -13 -9 -27 -11 -42
c-7 -67 -22 -130 -52 -190c-6 -12 -12 -25 -20 -36c-5 -7 -10 -10 -19 -10c-24 0 -51 26 -51 49c0 83 32 164 69 236c25 48 35 99 44 151c12 -18 24 -35 34 -54c3 -6 6 -12 14 -12c14 0 16 24 55 24c67 0 73 -41 77 -100c23 16 45 47 75 47c38 0 66 -46 64 -81
c18 21 30 45 44 69c14 22 35 36 61 36c38 0 63 -15 63 -57c0 -7 -1 -15 -2 -23c-23 -150 -68 -308 -68 -460v-19c70 60 114 142 158 221c2 3 8 14 12 14c5 0 5 -14 5 -16z" />
    <glyph glyph-name="N" unicode="N" horiz-adv-x="601" 
d="M591 302c0 -75 -16 -197 -62 -260c-11 -15 -28 -35 -49 -35c-9 0 -14 3 -20 8c-8 6 -17 12 -23 18c-26 28 -33 69 -33 105c0 22 2 43 6 65c22 144 54 287 82 430c-90 -150 -139 -320 -167 -492c-6 -31 -10 -63 -14 -94c-1 -10 -3 -15 -3 -25c0 -6 2 -12 2 -18
c0 -29 -26 -52 -55 -52c-31 0 -69 53 -69 83c0 13 3 25 8 37c2 4 4 7 5 11c3 16 3 33 4 48c4 37 9 74 14 111c16 109 38 218 53 327v10c0 12 -4 24 -18 24c-13 0 -26 -9 -35 -18c2 -4 2 -9 2 -14c0 -13 -4 -24 -9 -36c-34 -80 -64 -156 -95 -238c-7 -17 -17 -36 -38 -36
c-38 0 -67 55 -67 88c0 12 3 23 7 34c25 59 56 117 86 173c17 31 33 64 51 94c5 9 11 14 22 14c5 0 10 -1 14 -2c13 16 32 23 53 23s43 -8 61 -19c31 -19 34 -69 34 -101c0 -49 -8 -98 -11 -147c27 77 84 234 144 289c9 9 19 11 31 11c65 0 68 -26 68 -85
c0 -96 -39 -234 -59 -331c-5 -24 -8 -52 -8 -77c0 -2 -1 -11 3 -11c15 0 67 107 79 107c6 0 6 -17 6 -19z" />
    <glyph glyph-name="O" unicode="O" horiz-adv-x="427" 
d="M427 398c0 -55 -19 -99 -60 -137c-21 -78 -51 -164 -95 -232c-18 -27 -42 -49 -77 -49c-19 0 -37 8 -54 18c-44 27 -85 60 -96 113c-10 48 -15 97 -15 145c0 133 39 271 96 390c5 10 12 23 25 23c9 0 37 -14 47 -18c19 44 56 58 102 58c54 0 75 -19 88 -66
c11 -39 14 -82 14 -121c0 -36 -3 -72 -7 -107l24 48c5 -21 8 -43 8 -65zM321 594c0 18 -7 49 -30 49c-10 0 -15 -5 -21 -12c-8 -9 -15 -20 -21 -30c-41 -66 -57 -146 -57 -223c0 -36 23 -104 67 -104c4 0 9 1 13 2c34 102 49 211 49 318zM254 228c-39 10 -79 38 -95 77
c-14 37 -22 77 -22 116c0 21 2 42 6 62c-31 -64 -43 -136 -43 -207c0 -61 7 -128 25 -187c4 -13 13 -30 28 -30c12 0 19 10 24 18c31 44 58 101 77 151z" />
    <glyph glyph-name="P" unicode="P" horiz-adv-x="416" 
d="M426 486c0 -38 -7 -77 -19 -114c-19 -57 -57 -99 -115 -119c-26 -9 -54 -16 -83 -16c-21 0 -45 4 -61 19v-43c0 -52 3 -104 9 -156c0 -5 1 -10 1 -15c0 -24 -10 -38 -31 -49c-11 -6 -25 -12 -38 -12c-20 0 -31 18 -40 33c-28 45 -44 100 -56 151c-2 9 -3 13 -3 19
c0 5 1 11 7 11c15 0 64 -70 77 -70c7 0 6 15 6 18c0 33 -3 65 -3 98c0 118 14 237 48 350c-13 -9 -24 -19 -33 -31c-16 -21 -38 -43 -65 -43c-26 0 -33 22 -33 43c0 37 13 75 46 93c48 28 130 60 186 60c122 0 200 -114 200 -227zM373 520c0 83 -66 114 -142 114
c-17 0 -45 -5 -60 -15c3 -13 5 -27 5 -41c0 -8 -1 -16 -2 -24c-4 -45 -10 -90 -14 -135c21 25 53 32 84 32c4 0 15 0 15 -5c0 -3 -8 -4 -10 -4c-33 0 -68 -4 -68 -41c0 -26 7 -48 37 -48c7 0 13 1 19 2c88 19 136 74 136 165z" />
    <glyph glyph-name="Q" unicode="Q" horiz-adv-x="418" 
d="M398 24c0 -44 -28 -76 -73 -76c-35 0 -70 21 -94 46c-13 -16 -24 -27 -47 -27c-22 0 -43 11 -60 24c-21 15 -44 28 -56 52c-28 57 -38 125 -38 189c0 118 32 246 72 357c2 5 5 17 13 17c5 0 12 -6 15 -9c30 57 66 154 144 154c15 0 29 -4 42 -11c30 -17 52 -40 61 -73
c12 -50 16 -102 16 -153c0 -154 -42 -339 -125 -470c14 -13 32 -29 52 -29c37 0 42 44 64 44c14 0 14 -25 14 -35zM310 609c0 25 -9 78 -43 78c-13 0 -25 -9 -33 -19c-71 -85 -96 -194 -96 -302c0 -57 0 -114 53 -147c2 -1 5 -3 5 -6c0 -6 -8 -9 -13 -9s-10 1 -15 3
c-31 13 -47 37 -63 74c-3 -23 -5 -47 -5 -70c0 -52 9 -142 55 -174c12 15 22 31 31 48c-3 14 -6 29 -6 43c0 1 -1 9 2 9s16 -17 19 -21c59 131 109 350 109 493z" />
    <glyph glyph-name="R" unicode="R" horiz-adv-x="460" 
d="M460 544c0 -114 -117 -185 -205 -229c43 -23 66 -70 66 -123c0 -12 -1 -26 -1 -43c0 -24 1 -69 36 -69c51 0 81 42 92 42c7 0 8 -7 8 -12c0 -27 -28 -72 -44 -93c-15 -18 -35 -31 -59 -31c-65 0 -104 91 -104 146c0 18 2 36 2 53c0 53 0 79 -50 103l-32 -15
c-7 -52 -13 -103 -13 -156c0 -29 1 -58 1 -87c0 -14 -2 -37 -21 -37c-9 0 -17 5 -24 9c-51 32 -74 88 -86 144c-1 5 -1 6 -1 8c0 8 6 9 12 9c39 0 41 -34 51 -34c8 0 9 12 9 17c0 16 -4 32 -4 47c2 110 11 216 25 321c3 20 5 39 11 58c1 5 2 9 2 14c0 3 0 7 -1 10
c-22 -6 -40 -12 -56 -28c-8 -8 -17 -14 -29 -14c-29 0 -37 25 -49 46c-4 9 -6 16 -6 25c0 13 0 52 18 52c8 0 15 -4 24 -4c11 0 21 3 31 6c57 18 119 34 179 34c96 0 218 -59 218 -169zM380 566c0 39 -97 48 -125 48c-19 0 -37 -1 -56 -4c-4 -16 -3 -32 -3 -49
c0 -59 -5 -118 -12 -177c78 29 147 90 190 162c3 6 6 13 6 20z" />
    <glyph glyph-name="S" unicode="S" horiz-adv-x="419" 
d="M444 625c0 -8 -4 -12 -10 -19c-30 -34 -76 -78 -110 -107c-6 -5 -14 -12 -21 -12c-9 0 -10 9 -10 16c0 27 27 59 27 70c0 4 -2 5 -5 5c-2 0 -5 -1 -8 -2c-65 -23 -128 -66 -160 -129c-5 -10 -10 -21 -10 -33c0 -24 21 -38 40 -49c48 -28 143 -71 176 -113
c20 -25 40 -66 40 -98c0 -25 -16 -57 -37 -70c-90 -56 -194 -105 -301 -105c-43 0 -70 21 -70 64c0 14 5 28 14 40c-11 8 -24 21 -24 36c0 16 15 31 27 40c53 40 144 48 206 48c22 0 55 -19 70 -33c11 6 25 14 25 27c0 9 -7 15 -13 20c-33 25 -97 46 -136 68
c-59 33 -87 100 -87 166c0 138 162 209 272 249c7 2 15 4 22 4c16 0 28 -6 39 -18c11 -13 44 -49 44 -65zM210 136c-5 1 -10 2 -16 2c-19 0 -95 -17 -95 -39c0 -4 3 -6 7 -6c19 0 86 33 104 43z" />
    <glyph glyph-name="T" unicode="T" horiz-adv-x="381" 
d="M551 695c0 -13 -9 -27 -18 -36c-65 -71 -144 -97 -237 -96c-33 -127 -34 -273 -46 -405c-1 -10 -1 -13 -1 -18c0 -33 10 -66 17 -98c1 -4 1 -7 1 -10c0 -19 -13 -29 -30 -29c-46 0 -79 67 -96 102c-6 11 -10 23 -10 36c0 5 1 15 8 15c14 0 26 -32 34 -32c3 0 3 7 3 8
c0 27 -3 53 -3 79c0 121 19 241 60 355c-17 2 -35 5 -52 5c-93 0 -93 -60 -174 -81c-7 -2 -15 -3 -22 -3c-48 0 -36 39 -43 71c-1 5 -2 9 -2 14c0 12 7 20 15 27c68 60 169 76 257 76c22 0 44 -1 66 -3l8 18l13 -19h19c72 0 138 15 206 38c4 1 7 2 11 2c10 0 16 -6 16 -16z
" />
    <glyph glyph-name="U" unicode="U" horiz-adv-x="563" 
d="M563 202c0 -53 -48 -185 -112 -185c-34 0 -63 32 -70 63c-17 80 -22 163 -33 244c-20 -78 -36 -157 -58 -235c-11 -38 -36 -88 -83 -88c-37 0 -68 24 -75 60c-9 42 -12 85 -12 127c0 128 35 247 73 368c2 6 3 13 3 20c0 4 -1 11 -6 11c-4 0 -8 -4 -11 -7
c-44 -47 -64 -107 -93 -169c-7 -15 -18 -29 -37 -29c-33 0 -49 52 -49 79c0 16 6 28 17 40c53 59 94 124 133 193l14 -11c10 3 19 7 29 7c4 0 8 -1 11 -2c56 -18 97 -17 97 -90c0 -17 -2 -33 -6 -49c-30 -130 -80 -257 -95 -390v-9c0 -2 0 -17 6 -17s10 11 12 16
c21 51 41 103 60 155c35 94 68 190 99 285c3 10 6 20 6 30c0 11 -7 20 -7 30c0 9 4 13 11 17c19 13 66 35 89 35c13 0 16 -11 16 -21c0 -11 -3 -22 -6 -32c-38 -116 -56 -228 -56 -347c0 -48 3 -125 13 -172c2 -7 5 -18 15 -18c5 0 8 2 11 5c36 37 60 85 64 136
c0 3 0 20 6 20c5 0 9 -8 11 -11c10 -17 13 -40 13 -59z" />
    <glyph glyph-name="V" unicode="V" horiz-adv-x="479" 
d="M469 534c0 -173 -57 -344 -142 -493c-14 -24 -37 -51 -68 -51c-17 0 -32 9 -44 20c-49 45 -63 112 -63 176c0 144 33 271 86 404c2 5 4 11 4 16c0 8 -4 15 -12 15s-14 -5 -20 -9c-17 -14 -27 -39 -39 -57c-22 -30 -74 -105 -117 -105c-26 0 -54 30 -54 55c0 9 3 17 6 25
c29 64 112 127 169 162c16 10 32 15 50 15c57 0 96 -44 96 -99c0 -17 -3 -34 -8 -50c-36 -123 -74 -241 -74 -370c0 -23 0 -49 4 -71c1 -7 3 -22 13 -22c8 0 14 10 18 16c14 23 26 48 37 72c59 125 90 257 90 395c0 39 -3 79 -7 118c-1 9 -1 11 -1 13c0 18 6 37 28 37
c17 0 23 -18 27 -32c15 -57 21 -121 21 -180z" />
    <glyph glyph-name="W" unicode="W" horiz-adv-x="611" 
d="M586 393c0 -115 -34 -229 -92 -328c-19 -33 -52 -55 -90 -55c-95 0 -99 127 -113 195c-22 -47 -38 -97 -63 -143c-12 -24 -32 -42 -60 -42c-10 0 -20 3 -28 7c-50 22 -44 75 -50 120c-1 12 -2 23 -2 35c0 114 92 299 141 403c-41 -44 -81 -75 -139 -95
c-12 -4 -25 -7 -38 -7c-36 0 -52 28 -52 61c0 76 142 149 207 149c53 0 110 -33 110 -91c0 -10 -2 -20 -6 -30c-50 -140 -112 -264 -146 -410c-2 -8 -2 -12 -2 -14c0 -5 2 -9 7 -9c29 0 108 234 120 271c-4 5 -7 12 -7 18c0 12 15 13 24 13c19 0 49 0 68 -2
c7 -1 15 -2 15 -11c0 -6 -3 -11 -7 -14c-5 -53 -11 -105 -11 -158c0 -23 7 -165 33 -165c13 0 26 27 30 37c40 88 67 188 67 285c0 98 -23 182 -74 265c-6 9 -11 20 -11 31c0 19 22 24 38 24c23 0 39 -12 50 -31c51 -92 81 -203 81 -309zM165 645c-38 -6 -73 -17 -100 -44
c-5 -5 -11 -12 -11 -19s6 -10 12 -10c31 0 79 51 99 73z" />
    <glyph glyph-name="X" unicode="X" horiz-adv-x="473" 
d="M473 641c0 -21 -28 -126 -52 -126c-14 0 -17 66 -18 79c-43 -64 -80 -132 -113 -201c3 -103 -5 -227 61 -313c32 21 56 66 75 99c3 5 10 18 17 18c12 0 13 -40 13 -49c0 -42 -13 -86 -32 -124c-11 -22 -29 -34 -53 -34c-9 0 -17 2 -25 4c-95 26 -120 141 -131 226
l-73 -176c-7 -16 -19 -43 -40 -43c-10 0 -20 5 -29 10c-45 23 -50 72 -50 119c0 6 2 15 10 15c19 0 38 -31 42 -31c3 0 8 10 9 13c39 85 76 170 118 253c-2 34 -3 249 -36 249c-8 0 -13 -12 -16 -17c-23 -45 -42 -93 -66 -138c-7 -13 -17 -29 -34 -29c-27 0 -50 33 -50 58
c0 37 58 141 83 170c3 16 5 32 7 49c9 -5 11 -22 13 -31c15 11 33 17 52 17c16 0 32 -4 47 -10c48 -18 79 -54 82 -106c1 -18 2 -37 2 -55c32 55 65 110 101 162c6 8 14 19 25 19c18 0 32 -30 44 -41c11 -10 17 -20 17 -36z" />
    <glyph glyph-name="Y" unicode="Y" horiz-adv-x="517" 
d="M587 705c0 -9 -5 -18 -9 -25c-87 -152 -134 -306 -155 -480c-5 -39 -11 -81 -11 -120c0 -7 3 -17 12 -17c8 0 6 20 13 20c9 0 32 -42 32 -56c0 -22 -36 -108 -47 -132c-6 -14 -19 -39 -37 -39c-5 0 -8 2 -12 4c-39 23 -42 89 -42 130c0 101 14 201 30 300
c-46 -59 -100 -161 -187 -161c-27 0 -51 12 -70 32c-13 14 -20 33 -28 50c-12 25 -18 50 -18 78c0 39 12 77 27 113c28 67 67 128 109 188l49 71c3 5 6 10 6 16c0 11 -12 14 -22 14c-19 0 -38 -6 -56 -14c-13 -5 -15 -9 -17 -22c0 -4 1 -9 1 -13c0 -16 -4 -27 -15 -38
c-13 -13 -28 -26 -43 -37c-14 -10 -34 -12 -51 -12c-43 0 -46 28 -46 64c0 20 6 33 23 45c55 36 125 89 194 89c55 0 105 -35 105 -93c0 -21 -6 -41 -14 -60c-37 -80 -95 -148 -139 -224c-17 -31 -39 -76 -39 -117c0 -11 4 -32 18 -32c4 0 7 1 11 3c95 51 168 187 224 277
l96 169c-1 5 -2 11 -2 17c0 29 20 34 45 34c15 0 31 -2 45 -5c10 -2 20 -5 20 -17z" />
    <glyph glyph-name="Z" unicode="Z" horiz-adv-x="436" 
d="M466 551c0 -36 -21 -69 -45 -94c-71 -74 -155 -134 -228 -205c-28 -27 -75 -77 -75 -118c0 -22 17 -28 37 -28c79 0 158 14 236 27c6 1 9 1 9 1c9 0 13 -4 13 -13s-3 -21 -6 -29c-23 -77 -128 -86 -195 -86c-65 0 -122 7 -152 74c-8 17 -12 36 -12 55c0 46 25 88 54 123
c86 102 183 195 270 296c5 6 11 13 11 21c0 19 -58 17 -71 17c-36 0 -72 -3 -107 -6c-40 -24 -100 -34 -147 -34c-30 0 -48 5 -48 38c0 38 3 64 41 81c32 14 160 63 189 63c19 0 26 -34 33 -49c9 -20 29 -13 48 -13c64 0 115 -25 139 -87c4 -11 6 -22 6 -34z" />
    <glyph glyph-name="a" unicode="a" horiz-adv-x="418" 
d="M423 158c0 -16 -2 -32 -2 -49c0 -29 -12 -51 -25 -76c-14 -27 -31 -49 -64 -49c-29 0 -38 15 -53 36c-25 36 -35 69 -42 112c-20 -36 -79 -147 -125 -147c-23 0 -44 20 -56 38c-14 19 -16 43 -29 62c-12 19 -17 38 -17 59c0 18 4 37 12 53c42 83 94 170 173 222
c8 6 17 9 26 9c15 0 30 -9 42 -18c17 -15 18 -31 22 -51c23 -8 35 -18 35 -44c0 -1 0 -3 -1 -15c-6 -66 -22 -131 -25 -200c0 -9 3 -21 14 -21c29 0 89 112 105 112c10 0 10 -26 10 -33zM246 363c-79 -72 -136 -158 -160 -263c79 68 127 165 160 263z" />
    <glyph glyph-name="b" unicode="b" horiz-adv-x="332" 
d="M314 238c0 -91 -38 -182 -91 -253c-9 -12 -22 -24 -37 -24c-37 0 -71 105 -71 137c0 7 2 15 11 15c10 0 19 -5 29 -5c23 0 39 12 48 33c10 23 37 110 37 132c0 15 -6 28 -22 28c-1 0 -3 0 -7 -1c-31 -7 -62 -25 -77 -54c-20 -37 -30 -79 -30 -122c0 -23 3 -46 8 -69
c3 -16 7 -31 7 -47c0 -14 -4 -40 -23 -40c-33 0 -64 119 -77 147c-5 12 -9 25 -9 38c0 23 27 81 39 103c12 155 36 323 74 473c2 7 6 20 15 20c17 0 22 -37 22 -48c0 -7 -1 -14 -2 -21c-12 -104 -21 -209 -28 -314c22 20 63 48 93 48c70 0 91 -123 91 -176z" />
    <glyph glyph-name="c" unicode="c" horiz-adv-x="277" 
d="M269 162c0 -76 -54 -184 -145 -184c-75 0 -109 118 -109 178c0 102 52 221 132 286c9 8 18 12 30 12c18 0 37 -12 50 -23c12 -11 14 -31 14 -46c0 -28 -16 -107 -24 -136c-2 -7 -6 -22 -16 -22c-23 0 -28 108 -31 128c-66 -73 -104 -170 -104 -255c0 -19 6 -33 22 -33
c50 0 141 87 179 121c2 -9 2 -17 2 -26z" />
    <glyph glyph-name="d" unicode="d" horiz-adv-x="384" 
d="M389 185c0 -14 -7 -27 -7 -43c0 -18 3 -35 3 -52c0 -19 -4 -55 -29 -55c-39 0 -61 60 -75 88c-10 19 -19 38 -25 58c-15 -53 -51 -208 -121 -208c-58 0 -98 102 -111 149c-6 20 -9 41 -9 62c0 31 7 60 21 87c25 50 102 168 164 168c21 0 34 -9 50 -21
c11 93 25 186 37 278c1 12 5 35 22 35c27 0 35 -39 35 -59c0 -12 -1 -23 -3 -34c-15 -153 -28 -306 -28 -465c0 -13 4 -27 15 -27c26 0 42 47 55 47c5 0 6 -5 6 -8zM224 333c0 7 -3 12 -11 12s-20 -5 -28 -10c-71 -40 -119 -132 -119 -212c0 -15 4 -37 23 -37
c8 0 15 6 20 11c53 56 86 146 111 218c2 5 4 12 4 18z" />
    <glyph glyph-name="e" unicode="e" horiz-adv-x="337" 
d="M317 132c0 -104 -53 -152 -154 -152c-93 0 -120 57 -145 134c-5 16 -8 32 -8 48c0 54 50 132 85 173c1 15 4 55 25 55c7 0 13 -6 15 -13c22 20 71 55 101 55c38 0 79 -47 79 -84c0 -47 -82 -133 -118 -161c-13 -10 -28 -17 -44 -17c-29 0 -42 29 -50 53
c-15 -27 -41 -67 -41 -98c0 -27 15 -41 41 -41c97 0 153 44 210 115c2 -22 4 -45 4 -67zM233 348c0 6 -3 12 -10 12c-17 0 -66 -57 -77 -71c-1 -6 -2 -12 -2 -18c0 -7 1 -18 10 -18c22 0 79 73 79 95z" />
    <glyph glyph-name="f" unicode="f" horiz-adv-x="367" 
d="M377 351c0 -37 -87 -84 -115 -97c54 -72 82 -135 82 -227c0 -137 -62 -268 -136 -380c-20 -30 -46 -32 -79 -32c-24 0 -32 9 -44 28c-13 22 -29 42 -41 65c-27 53 -34 106 -34 164c0 123 22 244 40 365c-9 11 -15 24 -15 37s6 24 16 31c-15 38 -31 59 -31 103
c0 13 0 54 19 54c11 0 17 -18 17 -27c0 -10 -3 -19 -3 -29c0 -5 1 -16 9 -16c3 0 6 2 9 5c34 34 56 83 75 127c25 56 52 112 81 166c6 12 16 23 31 23c25 0 39 -24 39 -46c0 -12 -3 -21 -10 -30c-24 -36 -42 -70 -58 -111c-25 -63 -48 -126 -68 -191c36 13 63 34 91 60
c12 10 25 16 41 16c27 0 84 -27 84 -58zM267 89c0 59 -21 111 -75 139c-21 -5 -42 -9 -63 -12c-33 -144 -45 -293 -45 -440c0 -15 1 -74 25 -74c7 0 16 8 21 14c83 88 137 254 137 373z" />
    <glyph glyph-name="g" unicode="g" horiz-adv-x="347" 
d="M327 398c0 -23 -6 -45 -12 -67c7 -4 8 -10 8 -17c0 -5 -1 -12 -2 -17c-27 -169 -56 -337 -56 -509c0 -18 1 -36 1 -53c0 -16 -9 -30 -26 -30c-25 0 -42 39 -84 39c-8 0 -15 -2 -23 -2s-12 3 -12 11c0 4 0 8 1 11c6 27 8 55 12 82c3 16 1 19 17 26c15 8 19 18 38 18
c11 0 16 -6 21 -6c10 0 11 29 11 41l3 61c3 56 10 112 16 168c-25 -40 -106 -149 -155 -149c-52 0 -75 92 -75 133c0 117 118 223 197 296c17 16 39 32 63 32c38 0 57 -34 57 -68zM258 342c0 5 -2 13 -8 13c-3 0 -5 -1 -7 -2c-76 -38 -141 -103 -171 -184
c-2 -6 -4 -14 -4 -21c0 -9 4 -20 15 -20c7 0 13 3 18 6c63 42 121 117 152 187c3 7 5 14 5 21z" />
    <glyph glyph-name="h" unicode="h" horiz-adv-x="347" 
d="M340 140c0 -43 -4 -85 -29 -121c-10 -13 -23 -28 -41 -28c-12 0 -21 8 -29 16c-38 44 -56 98 -56 156c0 15 1 29 3 44c5 30 16 65 16 98c0 0 0 7 -2 7s-5 -8 -7 -15c-26 -85 -49 -173 -72 -260c-3 -9 -7 -28 -19 -28c-25 0 -56 73 -64 93c-15 33 -20 70 -20 106
c0 109 26 213 50 319c-9 0 -25 4 -25 15c0 5 3 11 6 15c35 55 57 92 78 154c2 8 6 17 16 17c24 0 32 -66 32 -85c0 -34 -12 -69 -38 -93c-15 -92 -31 -185 -44 -277c-1 -6 -1 -13 -1 -16s0 -14 4 -14c5 0 8 7 12 14c28 50 45 105 74 153c12 20 32 37 56 37
c48 0 54 -66 54 -101c0 -69 -18 -141 -38 -207c-1 -4 -1 -7 -1 -8c0 -6 4 -11 10 -11c20 0 58 58 68 58c8 0 7 -31 7 -38z" />
    <glyph glyph-name="i" unicode="i" horiz-adv-x="240" 
d="M205 688c0 -46 -50 -144 -81 -176c-3 -4 -7 -6 -12 -6c-22 0 -25 23 -25 39c0 41 18 78 35 113c7 15 9 30 11 46c2 10 2 23 16 23c23 0 56 -14 56 -39zM240 179c0 -64 -24 -135 -76 -175c-12 -9 -27 -16 -42 -16c-40 0 -59 53 -71 84c-13 33 -19 67 -19 103
c0 40 7 79 13 118c1 5 1 10 1 16c0 36 -32 58 -32 75c0 15 33 37 44 46c10 8 21 13 33 13c26 0 49 -19 48 -46c0 -76 -21 -151 -33 -251c-1 -9 -1 -10 -1 -14c0 -6 1 -16 9 -16c18 0 89 109 101 128c4 6 10 17 15 17c3 0 5 -10 5 -12c3 -23 5 -47 5 -70z" />
    <glyph glyph-name="j" unicode="j" horiz-adv-x="184" 
d="M198 645c0 -23 -22 -110 -49 -110c-21 0 -32 70 -32 88c0 21 4 44 8 65c2 11 10 16 20 16c31 0 53 -31 53 -59zM163 63c0 -21 -16 -62 -22 -85c-7 -28 -22 -42 -49 -52c-22 -104 -51 -211 -96 -308c-13 -29 -36 -51 -69 -51c-24 0 -44 12 -59 29c-51 54 -78 126 -100 195
c-4 13 -8 27 -8 40s3 24 12 34c71 78 172 130 268 170c23 96 38 193 49 291c5 41 7 81 11 121c1 9 2 21 14 21c26 0 43 -36 43 -58c0 -8 0 -16 -1 -24c-10 -107 -22 -215 -39 -321c9 3 27 11 36 11c8 0 10 -6 10 -13zM3 -102c-8 -3 -16 -6 -23 -10
c-29 -13 -143 -82 -143 -114c0 -20 51 -44 68 -44c15 0 26 11 33 22c29 44 49 96 65 146z" />
    <glyph glyph-name="k" unicode="k" horiz-adv-x="342" 
d="M332 320c0 -92 -80 -122 -149 -156c-3 -2 -7 -4 -7 -9c0 -3 3 -6 5 -8c27 -27 72 -53 110 -58c18 -2 24 0 29 -21c2 -10 -1 -20 2 -30c1 -4 2 -9 2 -13c0 -24 -44 -32 -62 -32c-23 0 -42 10 -57 26c-41 43 -73 94 -106 143v-25c0 -31 2 -61 7 -91c1 -4 2 -9 2 -14
c0 -23 -16 -33 -38 -33c-14 0 -23 6 -29 18c-8 17 -22 74 -22 93c0 26 8 51 10 77c5 61 9 122 15 184c13 127 31 254 52 380c-2 8 -4 16 -4 25c0 6 1 16 10 16c8 0 17 -8 22 -14c24 -24 37 -78 37 -111c0 -13 -2 -25 -4 -38c-15 -92 -34 -183 -45 -276c38 36 76 78 132 78
c63 0 88 -55 88 -111zM256 347c-42 -19 -79 -50 -109 -84c45 14 81 47 109 84z" />
    <glyph glyph-name="l" unicode="l" horiz-adv-x="241" 
d="M241 235c0 -28 -9 -69 -12 -98c-5 -58 -28 -80 -65 -129c-8 -10 -18 -16 -30 -16c-34 0 -55 46 -71 79c-23 45 -35 89 -35 143c0 91 20 183 32 273c-13 0 -23 6 -23 20c0 7 2 14 4 20c13 41 51 141 51 178c0 10 -5 20 -5 30c0 9 5 12 13 12c5 0 9 -1 13 -2
c39 -8 60 -28 60 -69c0 -10 -1 -19 -3 -29c-27 -168 -58 -334 -58 -505c0 -15 5 -29 14 -29c4 0 7 2 11 6c33 41 65 78 81 106c4 7 11 21 17 21s6 -9 6 -11z" />
    <glyph glyph-name="m" unicode="m" horiz-adv-x="516" 
d="M516 179c0 -59 -20 -109 -51 -152c-10 -14 -25 -33 -41 -33c-4 0 -7 2 -11 3c-15 8 -45 29 -55 45c-17 27 -19 56 -19 89c0 59 8 148 8 207c0 1 0 12 -2 12c-3 0 -8 -13 -9 -16c-32 -84 -60 -200 -84 -287c-3 -10 -8 -35 -21 -35c-7 0 -13 5 -18 8c-34 25 -51 48 -51 91
c0 59 20 148 29 207c1 6 1 8 1 9c0 2 0 8 -3 8s-6 -8 -7 -10c-35 -84 -56 -201 -62 -291c-1 -13 -4 -30 -20 -30c-52 0 -78 100 -78 140c0 48 15 125 21 172c2 12 13 105 31 105c17 0 23 -63 23 -75c0 -3 0 -8 4 -8c27 0 36 94 87 94c34 0 63 -27 70 -60c12 17 26 32 40 47
c8 11 18 21 33 21c10 0 33 -10 43 -15c37 -19 41 -66 41 -104c0 -43 -2 -116 -6 -159v-7c0 -5 1 -15 6 -15c18 0 70 101 87 101c12 0 14 -52 14 -62z" />
    <glyph glyph-name="n" unicode="n" horiz-adv-x="351" 
d="M351 222c0 -28 -1 -56 -5 -83c-5 -37 -52 -159 -97 -159c-10 0 -18 6 -25 14c-20 24 -39 53 -50 83c-6 17 -9 34 -9 52c0 13 1 25 3 37c9 49 19 99 26 148c1 6 2 15 2 18c0 2 0 9 -3 9s-7 -6 -8 -8c-56 -98 -65 -205 -74 -315c0 -8 -2 -25 -13 -25c-8 0 -15 7 -20 11
c-36 31 -54 80 -54 126c0 60 11 118 14 177c1 13 7 139 27 139c14 0 17 -45 17 -53c0 -21 1 -45 3 -64c0 -3 1 -11 6 -11c17 0 32 129 101 129c14 0 27 -4 39 -11c35 -18 43 -56 43 -92c0 -18 -2 -35 -5 -52c-6 -38 -9 -63 -14 -107c-1 -9 -2 -19 -2 -21s0 -8 4 -8
c18 0 62 80 85 80c7 0 9 -8 9 -14z" />
    <glyph glyph-name="o" unicode="o" horiz-adv-x="275" 
d="M257 236c0 -77 -24 -153 -70 -215c-15 -19 -37 -32 -62 -32c-16 0 -30 5 -42 15c-51 42 -65 123 -65 185c0 74 25 163 49 232c5 13 7 15 19 15c16 0 14 21 46 21c45 0 81 -29 97 -70c18 -48 28 -100 28 -151zM174 301c0 18 1 92 -23 92c-10 0 -16 -9 -20 -17
c-27 -64 -40 -157 -40 -227c0 -17 0 -33 1 -50c62 48 82 127 82 202z" />
    <glyph glyph-name="p" unicode="p" horiz-adv-x="331" 
d="M316 252c0 -16 -2 -32 -5 -48c-16 -69 -38 -139 -96 -184c-11 -9 -26 -18 -41 -18c-49 0 -55 94 -55 129c0 10 2 72 12 72s5 -52 39 -52c11 0 20 8 25 18c18 32 46 102 46 138c0 14 -8 22 -22 22c-10 0 -20 -3 -29 -7c-45 -18 -72 -68 -82 -113
c-20 -89 -35 -181 -35 -272c0 -30 1 -61 6 -91c1 -8 3 -15 3 -23c0 -16 -16 -34 -32 -34c-34 0 -32 127 -32 150c0 102 14 203 27 304c0 5 1 11 1 17c0 45 -31 50 -31 65c0 20 40 -1 48 55c3 21 7 40 7 60c0 7 1 18 10 18c23 0 32 -32 41 -48c18 6 36 11 55 11
c80 0 140 -97 140 -169z" />
    <glyph glyph-name="q" unicode="q" horiz-adv-x="337" 
d="M322 329c0 -13 -3 -25 -5 -38c-36 -158 -66 -317 -98 -475c31 6 54 47 65 47c8 0 7 -25 7 -30c0 -42 -19 -140 -74 -140c-42 0 -52 35 -56 69c-4 26 -5 52 -5 78c0 88 18 174 34 260c-16 -20 -30 -43 -48 -63c-9 -12 -20 -19 -36 -19c-15 0 -28 7 -40 16
c-40 32 -48 88 -48 137c0 113 62 208 155 269c17 12 38 18 58 18c39 0 67 -29 71 -66c2 -24 20 -39 20 -63zM240 353c0 5 -2 10 -8 10c-2 0 -4 -1 -6 -2c-83 -41 -122 -118 -136 -205c-1 -7 -1 -12 -1 -14c0 -4 0 -12 6 -12c5 0 11 6 14 9c56 49 100 130 127 198
c2 5 4 10 4 16z" />
    <glyph glyph-name="r" unicode="r" horiz-adv-x="307" 
d="M326 192c0 -36 -8 -62 -28 -92c-28 -41 -68 -113 -125 -113c-44 0 -63 46 -80 78c-13 24 -19 47 -19 73c0 56 24 117 38 171c-7 -9 -32 -34 -40 -41c-5 -4 -12 -8 -21 -8c-8 0 -16 6 -20 12c-9 12 -31 75 -31 90c0 24 27 51 35 76c2 8 6 18 15 18c7 0 13 -4 19 -7
c17 -10 26 -24 30 -44c1 -5 3 -12 9 -12c10 0 22 22 45 22c19 0 44 -20 57 -32c12 -12 12 -25 12 -41c0 -44 -14 -33 -20 -51s-51 -177 -51 -186c0 -4 1 -10 6 -10c12 0 128 103 145 119c4 3 12 11 17 11c9 0 7 -26 7 -33z" />
    <glyph glyph-name="s" unicode="s" horiz-adv-x="322" 
d="M322 381c0 -35 -34 -71 -70 -71c-25 0 -47 14 -57 38c-1 3 -3 6 -8 6c-4 0 -60 -24 -68 -28c-4 -2 -12 -6 -12 -11c0 -7 10 -9 14 -11c71 -19 178 -57 178 -147c0 -24 -9 -47 -23 -66c-44 -60 -116 -92 -186 -92c-54 0 -75 41 -75 90c0 7 0 14 1 21c2 25 12 42 32 56
c18 12 50 29 72 29c2 0 7 0 7 -3c0 -5 -10 -10 -15 -13c-17 -10 -51 -38 -51 -53c0 -11 16 -11 24 -11c44 0 88 14 126 36c6 3 14 10 14 16c0 9 -11 15 -18 18c-47 23 -99 38 -147 61c-20 10 -33 24 -33 47c0 17 8 32 10 48c3 19 10 37 28 46c39 20 79 38 118 56
c11 5 24 7 36 7c35 0 103 -28 103 -69z" />
    <glyph glyph-name="t" unicode="t" horiz-adv-x="269" 
d="M274 404c0 -12 -3 -22 -13 -30c-26 -23 -76 -35 -110 -40c-6 -57 -10 -115 -10 -173c0 -7 -3 -48 9 -48s73 64 82 64c16 0 17 -49 17 -60c0 -40 -20 -143 -73 -143c-43 0 -69 58 -90 88c-15 21 -27 43 -29 70s-3 54 -3 82c0 38 2 75 6 113c-44 1 -68 33 -90 87
c-2 6 -5 12 -5 19c0 10 6 13 15 13c28 0 50 -6 96 -6c9 53 21 105 31 157c1 7 2 15 2 22c0 6 -2 12 -2 19c0 11 8 16 19 16c21 0 69 -30 69 -52c0 -13 -12 -40 -14 -56c-6 -36 -12 -71 -17 -106c23 0 57 4 79 4c25 0 31 -19 31 -40z" />
    <glyph glyph-name="u" unicode="u" horiz-adv-x="338" 
d="M338 115c0 -27 -18 -72 -31 -96c-8 -15 -22 -27 -39 -27c-24 0 -34 22 -47 39c-19 25 -23 56 -31 86c-20 -38 -34 -80 -60 -114c-7 -10 -16 -17 -28 -17c-18 0 -33 14 -43 26c-20 27 -33 59 -33 102c-1 82 20 147 46 223c1 4 3 8 3 12c0 5 -2 8 -7 8c-8 0 -15 -6 -23 -6
c-14 0 -20 9 -24 20c-9 20 -16 56 -16 78c0 6 3 12 10 12c9 0 17 -6 27 -6c17 0 32 9 48 9c17 0 30 -6 43 -17c14 -12 45 -31 45 -51c0 -18 -71 -198 -81 -231c-1 -4 -1 -7 -1 -8c0 -3 1 -8 5 -8c13 0 124 214 139 244c6 12 15 19 28 19c22 0 42 -10 42 -35
c0 -4 0 -6 -1 -11c-15 -77 -40 -152 -57 -228c-1 -6 -1 -8 -1 -10c0 -3 1 -8 5 -8c13 0 33 105 47 105c5 0 8 -6 10 -9c13 -27 25 -71 25 -101z" />
    <glyph glyph-name="v" unicode="v" horiz-adv-x="278" 
d="M258 233c0 -81 -21 -144 -55 -195c-14 -22 -36 -44 -64 -44c-10 0 -20 3 -29 8c-55 26 -85 101 -85 159c0 51 19 96 32 144c1 4 1 7 1 11c0 19 -31 10 -44 42c-4 11 -24 86 -24 96c0 5 2 7 7 7c9 0 17 -2 25 -2c16 0 32 4 48 4c26 0 52 -17 70 -34c13 -12 19 -24 19 -42
c0 -15 -4 -31 -7 -46c-14 -66 -30 -132 -46 -197c-1 -5 -2 -10 -2 -15c0 -3 1 -11 5 -11c5 0 10 7 12 9c75 97 80 223 93 339c1 7 3 19 12 19c7 0 10 -9 11 -15c17 -92 21 -200 21 -237z" />
    <glyph glyph-name="w" unicode="w" horiz-adv-x="411" 
d="M393 165c0 -58 -11 -183 -92 -183c-15 0 -29 5 -41 14c-43 31 -53 74 -62 122c-9 -28 -49 -125 -83 -125c-6 0 -12 3 -16 6c-53 39 -62 102 -62 162c0 73 16 113 40 180c-16 -9 -37 -25 -56 -25c-37 0 -41 76 -41 102c0 7 3 12 10 12c5 0 9 -2 14 -2c20 0 64 32 88 32
c42 0 64 -67 64 -100c0 -9 -1 -18 -3 -26c-14 -71 -38 -139 -52 -210c-1 -6 -1 -8 -1 -9c0 -2 0 -7 4 -7s9 7 11 10c36 56 54 118 70 181c4 15 13 24 29 24c27 0 59 4 59 -31c0 -1 0 -3 -1 -11c-4 -38 -9 -75 -9 -114c0 -11 0 -80 11 -80c4 0 6 4 10 12c25 51 30 110 30 166
c0 29 -1 57 -2 85c-2 69 -50 76 -50 88c0 7 11 10 17 10h15c19 -1 30 -18 37 -33c37 -78 62 -163 62 -250z" />
    <glyph glyph-name="x" unicode="x" horiz-adv-x="295" 
d="M335 451v-8c-1 -13 -6 -24 -12 -36c-41 -73 -87 -144 -135 -213c12 -29 59 -145 59 -169c0 -13 -7 -28 -22 -28c-7 0 -11 2 -16 7c-28 27 -59 73 -79 107c-20 -29 -36 -45 -38 -82c-1 -8 -3 -26 -15 -26c-9 0 -37 27 -44 34c-15 15 -23 32 -23 53c0 38 41 103 63 134
c-9 22 -63 154 -63 168c0 12 14 47 28 47c19 0 88 -118 98 -138c22 24 171 171 189 171c10 0 10 -14 10 -21z" />
    <glyph glyph-name="y" unicode="y" horiz-adv-x="379" 
d="M361 352c0 -1 0 -3 -1 -9c-28 -185 -74 -364 -110 -547c-8 -39 -7 -76 -9 -116c0 -13 -4 -31 -21 -31c-4 0 -9 1 -13 3c-53 22 -73 73 -73 128v67c0 8 2 21 13 21c16 0 30 -25 40 -36l54 267c-34 -41 -71 -91 -130 -91c-58 0 -84 61 -84 111c0 77 28 143 63 210
c-14 -2 -27 -7 -41 -7s-24 5 -30 18c-5 10 -21 58 -21 67c0 17 17 13 27 13c32 0 60 19 88 19c14 0 27 -5 38 -15c17 -14 40 -47 40 -71c0 -49 -87 -208 -87 -226c0 -5 3 -9 8 -9c2 0 5 1 8 3c91 66 130 172 173 271c4 9 10 17 21 17c26 0 47 -33 47 -57z" />
    <glyph glyph-name="z" unicode="z" horiz-adv-x="303" 
d="M303 318c0 -14 -5 -25 -14 -34c-57 -60 -126 -108 -188 -163c32 1 63 4 95 4c36 0 62 1 62 -45c0 -15 -2 -27 -19 -30c-43 -8 -81 -24 -122 -39c-11 -4 -23 -7 -35 -7c-17 0 -29 7 -38 21c-9 16 -29 63 -29 80s7 33 17 46c52 65 117 118 175 178c-43 -7 -80 -13 -124 -19
c-5 -1 -17 -2 -22 -2c-39 0 -43 25 -49 56c-1 5 -2 10 -2 15c0 41 50 62 82 75c4 2 9 3 13 3c11 0 14 -7 15 -16c3 -18 31 -12 44 -12c69 0 97 -18 129 -77c6 -10 10 -22 10 -34z" />
    <glyph glyph-name="germandbls" unicode="&#xdf;" horiz-adv-x="434" 
d="M0 -128c0 222 36 443 126 650c14 33 102 189 142 189c132 0 147 -89 147 -173c0 -113 -48 -143 -146 -172c-4 -1 -12 -4 -12 -9c0 -7 10 -11 14 -13c53 -21 148 -97 148 -187c0 -24 -9 -47 -23 -66c-44 -60 -106 -92 -186 -92c-54 0 -75 40 -75 90c0 38 6 59 33 77
c18 12 50 29 72 29c2 0 7 0 7 -3c0 -5 -11 -11 -15 -13c-12 -6 -51 -38 -51 -53c0 -11 16 -11 24 -11c23 0 140 20 140 52c0 23 -100 90 -145 119c-19 12 -23 32 -23 47c0 84 166 94 166 245c0 19 -3 35 -23 35c-35 0 -124 -137 -169 -280c-44 -141 -77 -410 -77 -557
c0 -46 13 -53 25 -74c11 -19 15 -32 15 -39c0 -5 -2 -8 -7 -8c-18 0 -65 38 -73 53c-27 53 -34 106 -34 164z" />
    <glyph glyph-name="Agrave" unicode="&#xc0;" horiz-adv-x="601" 
d="M601 354c0 -39 -63 -90 -93 -109c0 -23 1 -46 2 -70c3 2 6 2 9 2c20 0 44 -39 54 -53c10 -15 18 -30 18 -48c0 -11 -3 -20 -6 -30c-14 -36 -24 -65 -31 -103c-3 -14 -10 -21 -24 -21c-61 0 -63 110 -66 152c-4 48 -7 97 -10 146c-26 -9 -52 -10 -80 -11
c-10 -46 -21 -92 -33 -137c-20 -68 -68 -128 -145 -128c-13 0 -25 2 -38 5c-88 24 -145 79 -176 163c-7 19 -12 38 -12 58c0 36 16 67 50 82c66 30 138 49 211 49c30 0 60 -2 93 -2c4 17 7 34 11 51c17 93 38 186 38 281v26c0 36 25 37 55 37c45 0 101 -27 101 -78
c0 -8 -1 -15 -2 -23c-10 -89 -17 -179 -19 -269c25 10 45 22 66 38c5 4 10 7 16 7c8 0 11 -8 11 -15zM450 309c-4 89 -6 179 -8 268l-49 -276c19 2 38 4 57 8zM301 208h-64c-65 0 -131 -2 -195 -17c-15 -3 -41 -10 -41 -30c0 -17 21 -38 32 -49c31 -30 99 -51 141 -51
c86 0 107 80 127 147zM381 790c-51 68 -95 89 -95 106c0 13 34 34 63 34c24 0 29 -18 71 -84c14 -23 58 -85 58 -103c0 -6 -4 -11 -12 -11c-50 0 -61 26 -85 58z" />
    <glyph glyph-name="agrave" unicode="&#xe0;" horiz-adv-x="418" 
d="M423 158c0 -16 -2 -32 -2 -49c0 -29 -12 -51 -25 -76c-14 -27 -31 -49 -64 -49c-29 0 -38 15 -53 36c-25 36 -35 69 -42 112c-20 -36 -79 -147 -125 -147c-23 0 -44 20 -56 38c-14 19 -16 43 -29 62c-12 19 -17 38 -17 59c0 18 4 37 12 53c42 83 94 170 173 222
c8 6 17 9 26 9c15 0 30 -9 42 -18c17 -15 18 -31 22 -51c23 -8 35 -18 35 -44c0 -1 0 -3 -1 -15c-6 -66 -22 -131 -25 -200c0 -9 3 -21 14 -21c29 0 89 112 105 112c10 0 10 -26 10 -33zM246 363c-79 -72 -136 -158 -160 -263c79 68 127 165 160 263zM165 524
c-51 68 -95 89 -95 106c0 13 34 34 63 34c24 0 29 -18 71 -84c14 -23 58 -85 58 -103c0 -6 -4 -11 -12 -11c-50 0 -61 26 -85 58z" />
    <glyph glyph-name="Aacute" unicode="&#xc1;" horiz-adv-x="601" 
d="M601 354c0 -39 -63 -90 -93 -109c0 -23 1 -46 2 -70c3 2 6 2 9 2c20 0 44 -39 54 -53c10 -15 18 -30 18 -48c0 -11 -3 -20 -6 -30c-14 -36 -24 -65 -31 -103c-3 -14 -10 -21 -24 -21c-61 0 -63 110 -66 152c-4 48 -7 97 -10 146c-26 -9 -52 -10 -80 -11
c-10 -46 -21 -92 -33 -137c-20 -68 -68 -128 -145 -128c-13 0 -25 2 -38 5c-88 24 -145 79 -176 163c-7 19 -12 38 -12 58c0 36 16 67 50 82c66 30 138 49 211 49c30 0 60 -2 93 -2c4 17 7 34 11 51c17 93 38 186 38 281v26c0 36 25 37 55 37c45 0 101 -27 101 -78
c0 -8 -1 -15 -2 -23c-10 -89 -17 -179 -19 -269c25 10 45 22 66 38c5 4 10 7 16 7c8 0 11 -8 11 -15zM450 309c-4 89 -6 179 -8 268l-49 -276c19 2 38 4 57 8zM301 208h-64c-65 0 -131 -2 -195 -17c-15 -3 -41 -10 -41 -30c0 -17 21 -38 32 -49c31 -30 99 -51 141 -51
c86 0 107 80 127 147zM484 858c30 34 49 42 50 61c0 5 2 9 6 9c37 0 51 -63 51 -70c0 -20 -10 -36 -22 -46c-10 -13 -99 -80 -125 -80c-12 0 -17 13 -17 17c0 44 27 77 57 109z" />
    <glyph glyph-name="aacute" unicode="&#xe1;" horiz-adv-x="418" 
d="M423 158c0 -16 -2 -32 -2 -49c0 -29 -12 -51 -25 -76c-14 -27 -31 -49 -64 -49c-29 0 -38 15 -53 36c-25 36 -35 69 -42 112c-20 -36 -79 -147 -125 -147c-23 0 -44 20 -56 38c-14 19 -16 43 -29 62c-12 19 -17 38 -17 59c0 18 4 37 12 53c42 83 94 170 173 222
c8 6 17 9 26 9c15 0 30 -9 42 -18c17 -15 18 -31 22 -51c23 -8 35 -18 35 -44c0 -1 0 -3 -1 -15c-6 -66 -22 -131 -25 -200c0 -9 3 -21 14 -21c29 0 89 112 105 112c10 0 10 -26 10 -33zM246 363c-79 -72 -136 -158 -160 -263c79 68 127 165 160 263zM268 592
c30 34 49 42 50 61c0 5 2 9 6 9c37 0 51 -63 51 -70c0 -20 -10 -36 -22 -46c-10 -13 -99 -80 -125 -80c-12 0 -17 13 -17 17c0 44 27 77 57 109z" />
    <glyph glyph-name="Acircumflex" unicode="&#xc2;" horiz-adv-x="601" 
d="M601 354c0 -39 -63 -90 -93 -109c0 -23 1 -46 2 -70c3 2 6 2 9 2c20 0 44 -39 54 -53c10 -15 18 -30 18 -48c0 -11 -3 -20 -6 -30c-14 -36 -24 -65 -31 -103c-3 -14 -10 -21 -24 -21c-61 0 -63 110 -66 152c-4 48 -7 97 -10 146c-26 -9 -52 -10 -80 -11
c-10 -46 -21 -92 -33 -137c-20 -68 -68 -128 -145 -128c-13 0 -25 2 -38 5c-88 24 -145 79 -176 163c-7 19 -12 38 -12 58c0 36 16 67 50 82c66 30 138 49 211 49c30 0 60 -2 93 -2c4 17 7 34 11 51c17 93 38 186 38 281v26c0 36 25 37 55 37c45 0 101 -27 101 -78
c0 -8 -1 -15 -2 -23c-10 -89 -17 -179 -19 -269c25 10 45 22 66 38c5 4 10 7 16 7c8 0 11 -8 11 -15zM450 309c-4 89 -6 179 -8 268l-49 -276c19 2 38 4 57 8zM301 208h-64c-65 0 -131 -2 -195 -17c-15 -3 -41 -10 -41 -30c0 -17 21 -38 32 -49c31 -30 99 -51 141 -51
c86 0 107 80 127 147zM576 732c-61 0 -93 69 -124 118c-21 -31 -92 -111 -127 -111c-15 0 -18 17 -18 23c0 28 34 59 61 90c30 35 44 78 72 78c61 0 83 -84 96 -102c15 -21 52 -63 52 -84c0 -6 -4 -12 -12 -12z" />
    <glyph glyph-name="acircumflex" unicode="&#xe2;" horiz-adv-x="418" 
d="M423 158c0 -16 -2 -32 -2 -49c0 -29 -12 -51 -25 -76c-14 -27 -31 -49 -64 -49c-29 0 -38 15 -53 36c-25 36 -35 69 -42 112c-20 -36 -79 -147 -125 -147c-23 0 -44 20 -56 38c-14 19 -16 43 -29 62c-12 19 -17 38 -17 59c0 18 4 37 12 53c42 83 94 170 173 222
c8 6 17 9 26 9c15 0 30 -9 42 -18c17 -15 18 -31 22 -51c23 -8 35 -18 35 -44c0 -1 0 -3 -1 -15c-6 -66 -22 -131 -25 -200c0 -9 3 -21 14 -21c29 0 89 112 105 112c10 0 10 -26 10 -33zM246 363c-79 -72 -136 -158 -160 -263c79 68 127 165 160 263zM360 466
c-61 0 -93 69 -124 118c-21 -31 -92 -111 -127 -111c-15 0 -18 17 -18 23c0 28 34 59 61 90c30 35 44 78 72 78c61 0 83 -84 96 -102c15 -21 52 -63 52 -84c0 -6 -4 -12 -12 -12z" />
    <glyph glyph-name="Atilde" unicode="&#xc3;" horiz-adv-x="601" 
d="M601 354c0 -39 -63 -90 -93 -109c0 -23 1 -46 2 -70c3 2 6 2 9 2c20 0 44 -39 54 -53c10 -15 18 -30 18 -48c0 -11 -3 -20 -6 -30c-14 -36 -24 -65 -31 -103c-3 -14 -10 -21 -24 -21c-61 0 -63 110 -66 152c-4 48 -7 97 -10 146c-26 -9 -52 -10 -80 -11
c-10 -46 -21 -92 -33 -137c-20 -68 -68 -128 -145 -128c-13 0 -25 2 -38 5c-88 24 -145 79 -176 163c-7 19 -12 38 -12 58c0 36 16 67 50 82c66 30 138 49 211 49c30 0 60 -2 93 -2c4 17 7 34 11 51c17 93 38 186 38 281v26c0 36 25 37 55 37c45 0 101 -27 101 -78
c0 -8 -1 -15 -2 -23c-10 -89 -17 -179 -19 -269c25 10 45 22 66 38c5 4 10 7 16 7c8 0 11 -8 11 -15zM450 309c-4 89 -6 179 -8 268l-49 -276c19 2 38 4 57 8zM301 208h-64c-65 0 -131 -2 -195 -17c-15 -3 -41 -10 -41 -30c0 -17 21 -38 32 -49c31 -30 99 -51 141 -51
c86 0 107 80 127 147zM489 827c33 0 35 49 55 49c24 0 36 -36 36 -53c0 -46 -38 -75 -73 -75c-51 0 -87 59 -117 59c-32 0 -27 -60 -64 -60c-10 0 -22 21 -22 42c0 53 49 95 78 95c47 0 81 -57 107 -57z" />
    <glyph glyph-name="atilde" unicode="&#xe3;" horiz-adv-x="418" 
d="M423 158c0 -16 -2 -32 -2 -49c0 -29 -12 -51 -25 -76c-14 -27 -31 -49 -64 -49c-29 0 -38 15 -53 36c-25 36 -35 69 -42 112c-20 -36 -79 -147 -125 -147c-23 0 -44 20 -56 38c-14 19 -16 43 -29 62c-12 19 -17 38 -17 59c0 18 4 37 12 53c42 83 94 170 173 222
c8 6 17 9 26 9c15 0 30 -9 42 -18c17 -15 18 -31 22 -51c23 -8 35 -18 35 -44c0 -1 0 -3 -1 -15c-6 -66 -22 -131 -25 -200c0 -9 3 -21 14 -21c29 0 89 112 105 112c10 0 10 -26 10 -33zM246 363c-79 -72 -136 -158 -160 -263c79 68 127 165 160 263zM273 561
c33 0 35 49 55 49c24 0 36 -36 36 -53c0 -46 -38 -75 -73 -75c-51 0 -87 59 -117 59c-32 0 -27 -60 -64 -60c-10 0 -22 21 -22 42c0 53 49 95 78 95c47 0 81 -57 107 -57z" />
    <glyph glyph-name="Adieresis" unicode="&#xc4;" horiz-adv-x="601" 
d="M601 354c0 -39 -63 -90 -93 -109c0 -23 1 -46 2 -70c3 2 6 2 9 2c20 0 44 -39 54 -53c10 -15 18 -30 18 -48c0 -11 -3 -20 -6 -30c-14 -36 -24 -65 -31 -103c-3 -14 -10 -21 -24 -21c-61 0 -63 110 -66 152c-4 48 -7 97 -10 146c-26 -9 -52 -10 -80 -11
c-10 -46 -21 -92 -33 -137c-20 -68 -68 -128 -145 -128c-13 0 -25 2 -38 5c-88 24 -145 79 -176 163c-7 19 -12 38 -12 58c0 36 16 67 50 82c66 30 138 49 211 49c30 0 60 -2 93 -2c4 17 7 34 11 51c17 93 38 186 38 281v26c0 36 25 37 55 37c45 0 101 -27 101 -78
c0 -8 -1 -15 -2 -23c-10 -89 -17 -179 -19 -269c25 10 45 22 66 38c5 4 10 7 16 7c8 0 11 -8 11 -15zM450 309c-4 89 -6 179 -8 268l-49 -276c19 2 38 4 57 8zM301 208h-64c-65 0 -131 -2 -195 -17c-15 -3 -41 -10 -41 -30c0 -17 21 -38 32 -49c31 -30 99 -51 141 -51
c86 0 107 80 127 147zM577 844c2 -7 3 -14 3 -20c0 -32 -22 -62 -59 -62c-29 0 -52 24 -52 53c0 25 13 67 59 67c17 0 40 -9 49 -38zM416 845c2 -7 3 -14 3 -21c0 -31 -18 -62 -51 -62c-24 0 -47 28 -47 67c0 27 11 56 47 56c16 0 39 -12 48 -40z" />
    <glyph glyph-name="adieresis" unicode="&#xe4;" horiz-adv-x="418" 
d="M423 158c0 -16 -2 -32 -2 -49c0 -29 -12 -51 -25 -76c-14 -27 -31 -49 -64 -49c-29 0 -38 15 -53 36c-25 36 -35 69 -42 112c-20 -36 -79 -147 -125 -147c-23 0 -44 20 -56 38c-14 19 -16 43 -29 62c-12 19 -17 38 -17 59c0 18 4 37 12 53c42 83 94 170 173 222
c8 6 17 9 26 9c15 0 30 -9 42 -18c17 -15 18 -31 22 -51c23 -8 35 -18 35 -44c0 -1 0 -3 -1 -15c-6 -66 -22 -131 -25 -200c0 -9 3 -21 14 -21c29 0 89 112 105 112c10 0 10 -26 10 -33zM246 363c-79 -72 -136 -158 -160 -263c79 68 127 165 160 263zM361 578
c2 -7 3 -14 3 -20c0 -32 -22 -62 -59 -62c-29 0 -52 24 -52 53c0 25 13 67 59 67c17 0 40 -9 49 -38zM200 579c2 -7 3 -14 3 -21c0 -31 -18 -62 -51 -62c-24 0 -47 28 -47 67c0 27 11 56 47 56c16 0 39 -12 48 -40z" />
    <glyph glyph-name="Aring" unicode="&#xc5;" horiz-adv-x="601" 
d="M601 354c0 -39 -63 -90 -93 -109c0 -23 1 -46 2 -70c3 2 6 2 9 2c20 0 44 -39 54 -53c10 -15 18 -30 18 -48c0 -11 -3 -20 -6 -30c-14 -36 -24 -65 -31 -103c-3 -14 -10 -21 -24 -21c-61 0 -63 110 -66 152c-4 48 -7 97 -10 146c-26 -9 -52 -10 -80 -11
c-10 -46 -21 -92 -33 -137c-20 -68 -68 -128 -145 -128c-13 0 -25 2 -38 5c-88 24 -145 79 -176 163c-7 19 -12 38 -12 58c0 36 16 67 50 82c66 30 138 49 211 49c30 0 60 -2 93 -2c4 17 7 34 11 51c17 93 38 186 38 281v26c0 36 25 37 55 37c45 0 101 -27 101 -78
c0 -8 -1 -15 -2 -23c-10 -89 -17 -179 -19 -269c25 10 45 22 66 38c5 4 10 7 16 7c8 0 11 -8 11 -15zM450 309c-4 89 -6 179 -8 268l-49 -276c19 2 38 4 57 8zM301 208h-64c-65 0 -131 -2 -195 -17c-15 -3 -41 -10 -41 -30c0 -17 21 -38 32 -49c31 -30 99 -51 141 -51
c86 0 107 80 127 147zM478 978c53 0 101 -48 101 -111c0 -39 -28 -145 -135 -145c-89 0 -118 89 -118 130c0 51 31 89 94 114v1c0 8 40 11 58 11zM441 913c-21 0 -50 -23 -50 -59c0 -44 26 -55 51 -55c44 0 67 33 67 63c0 32 -34 39 -68 51z" />
    <glyph glyph-name="aring" unicode="&#xe5;" horiz-adv-x="418" 
d="M423 158c0 -16 -2 -32 -2 -49c0 -29 -12 -51 -25 -76c-14 -27 -31 -49 -64 -49c-29 0 -38 15 -53 36c-25 36 -35 69 -42 112c-20 -36 -79 -147 -125 -147c-23 0 -44 20 -56 38c-14 19 -16 43 -29 62c-12 19 -17 38 -17 59c0 18 4 37 12 53c42 83 94 170 173 222
c8 6 17 9 26 9c15 0 30 -9 42 -18c17 -15 18 -31 22 -51c23 -8 35 -18 35 -44c0 -1 0 -3 -1 -15c-6 -66 -22 -131 -25 -200c0 -9 3 -21 14 -21c29 0 89 112 105 112c10 0 10 -26 10 -33zM246 363c-79 -72 -136 -158 -160 -263c79 68 127 165 160 263zM262 712
c53 0 101 -48 101 -111c0 -39 -28 -145 -135 -145c-89 0 -118 89 -118 130c0 51 31 89 94 114v1c0 8 40 11 58 11zM225 647c-21 0 -50 -23 -50 -59c0 -44 26 -55 51 -55c44 0 67 33 67 63c0 32 -34 39 -68 51z" />
    <glyph glyph-name="AE" unicode="&#xc6;" horiz-adv-x="873" 
d="M873 640c0 -34 -123 -85 -153 -97c-3 -1 -5 -2 -8 -2c-5 0 -6 4 -6 8c0 8 7 30 10 39c-72 -38 -109 -44 -144 -125c-3 -6 -6 -13 -6 -20c0 -37 129 -33 156 -34c9 5 24 15 34 15c18 0 36 -21 47 -33c14 -15 21 -38 21 -58c0 -10 -5 -12 -13 -12c-12 0 -26 4 -37 6
c-105 -31 -185 -45 -253 -141c-16 -22 -26 -52 -26 -80c0 -43 24 -72 69 -72s165 20 165 80c0 14 -6 38 -23 38c-28 0 -146 -81 -155 -81c-4 0 -6 4 -6 8c0 7 4 14 7 21c34 65 103 107 179 107c59 0 117 -43 117 -105c0 -21 -7 -41 -20 -58c-49 -64 -156 -80 -232 -80
c-66 0 -121 24 -157 82c-17 26 -28 55 -28 86c0 28 9 55 19 81c-18 -3 -37 -4 -56 -4c-10 -46 -20 -92 -33 -137c-19 -68 -68 -128 -145 -128c-13 0 -25 2 -38 5c-88 24 -145 79 -176 163c-7 19 -12 38 -12 58c0 36 16 67 50 82c66 30 138 38 211 38c30 0 60 -2 90 -2h3
c4 17 7 45 11 62c19 93 38 186 38 281v26c0 36 25 37 55 37c45 0 101 -27 101 -78c0 -8 -1 -15 -2 -23c-3 -21 -5 -41 -7 -62c8 20 21 37 38 51c55 48 122 80 183 118c9 6 18 10 28 10c19 0 34 -13 46 -27c6 1 12 2 17 2c16 0 26 -6 33 -20c3 -7 8 -17 8 -25zM301 208h-64
c-65 0 -131 -3 -195 -18c-15 -3 -41 -9 -41 -29c0 -17 21 -38 32 -49c31 -30 99 -51 141 -51c86 0 107 80 127 147zM450 298c-4 89 -6 190 -8 279c-17 -92 -32 -195 -49 -287c19 2 38 4 57 8zM508 324c0 -2 0 -5 1 -7c29 21 64 35 100 48c-50 16 -85 47 -95 95
c-3 -45 -5 -91 -6 -136z" />
    <glyph glyph-name="ae" unicode="&#xe6;" horiz-adv-x="524" 
d="M504 132c0 -104 -53 -152 -154 -152c-83 0 -114 45 -137 110c-27 -46 -68 -105 -101 -105c-23 0 -44 20 -56 38c-14 19 -16 43 -29 62c-12 19 -17 38 -17 59c0 18 4 37 12 53c42 83 94 170 173 222c8 6 17 9 26 9c15 0 30 -9 42 -18c17 -15 18 -31 22 -51
c3 16 9 31 22 31c7 0 13 -6 15 -13c22 20 71 55 101 55c38 0 79 -47 79 -84c0 -47 -82 -133 -118 -161c-13 -10 -28 -17 -44 -17c-29 0 -42 29 -50 53c-15 -27 -41 -67 -41 -98c0 -27 15 -41 41 -41c97 0 153 44 210 115c2 -22 4 -45 4 -67zM246 363
c-79 -72 -136 -158 -160 -263c79 68 127 165 160 263zM420 348c0 6 -3 12 -10 12c-17 0 -66 -57 -77 -71c-1 -6 -2 -12 -2 -18c0 -7 1 -18 10 -18c22 0 79 73 79 95z" />
    <glyph glyph-name="AEacute" unicode="&#x1fc;" horiz-adv-x="873" 
d="M873 640c0 -34 -123 -85 -153 -97c-3 -1 -5 -2 -8 -2c-5 0 -6 4 -6 8c0 8 7 30 10 39c-72 -38 -109 -44 -144 -125c-3 -6 -6 -13 -6 -20c0 -37 129 -33 156 -34c9 5 24 15 34 15c18 0 36 -21 47 -33c14 -15 21 -38 21 -58c0 -10 -5 -12 -13 -12c-12 0 -26 4 -37 6
c-105 -31 -185 -45 -253 -141c-16 -22 -26 -52 -26 -80c0 -43 24 -72 69 -72s165 20 165 80c0 14 -6 38 -23 38c-28 0 -146 -81 -155 -81c-4 0 -6 4 -6 8c0 7 4 14 7 21c34 65 103 107 179 107c59 0 117 -43 117 -105c0 -21 -7 -41 -20 -58c-49 -64 -156 -80 -232 -80
c-66 0 -121 24 -157 82c-17 26 -28 55 -28 86c0 28 9 55 19 81c-18 -3 -37 -4 -56 -4c-10 -46 -20 -92 -33 -137c-19 -68 -68 -128 -145 -128c-13 0 -25 2 -38 5c-88 24 -145 79 -176 163c-7 19 -12 38 -12 58c0 36 16 67 50 82c66 30 138 38 211 38c30 0 60 -2 90 -2h3
c4 17 7 45 11 62c19 93 38 186 38 281v26c0 36 25 37 55 37c45 0 101 -27 101 -78c0 -8 -1 -15 -2 -23c-3 -21 -5 -41 -7 -62c8 20 21 37 38 51c55 48 122 80 183 118c9 6 18 10 28 10c19 0 34 -13 46 -27c6 1 12 2 17 2c16 0 26 -6 33 -20c3 -7 8 -17 8 -25zM301 208h-64
c-65 0 -131 -3 -195 -18c-15 -3 -41 -9 -41 -29c0 -17 21 -38 32 -49c31 -30 99 -51 141 -51c86 0 107 80 127 147zM450 298c-4 89 -6 190 -8 279c-17 -92 -32 -195 -49 -287c19 2 38 4 57 8zM508 324c0 -2 0 -5 1 -7c29 21 64 35 100 48c-50 16 -85 47 -95 95
c-3 -45 -5 -91 -6 -136zM626 871c30 34 49 42 50 61c0 5 2 9 6 9c37 0 51 -63 51 -70c0 -20 -10 -36 -22 -46c-10 -13 -99 -80 -125 -80c-12 0 -17 13 -17 17c0 44 27 77 57 109z" />
    <glyph glyph-name="aeacute" unicode="&#x1fd;" horiz-adv-x="524" 
d="M504 132c0 -104 -53 -152 -154 -152c-83 0 -114 45 -137 110c-27 -46 -68 -105 -101 -105c-23 0 -44 20 -56 38c-14 19 -16 43 -29 62c-12 19 -17 38 -17 59c0 18 4 37 12 53c42 83 94 170 173 222c8 6 17 9 26 9c15 0 30 -9 42 -18c17 -15 18 -31 22 -51
c3 16 9 31 22 31c7 0 13 -6 15 -13c22 20 71 55 101 55c38 0 79 -47 79 -84c0 -47 -82 -133 -118 -161c-13 -10 -28 -17 -44 -17c-29 0 -42 29 -50 53c-15 -27 -41 -67 -41 -98c0 -27 15 -41 41 -41c97 0 153 44 210 115c2 -22 4 -45 4 -67zM246 363
c-79 -72 -136 -158 -160 -263c79 68 127 165 160 263zM420 348c0 6 -3 12 -10 12c-17 0 -66 -57 -77 -71c-1 -6 -2 -12 -2 -18c0 -7 1 -18 10 -18c22 0 79 73 79 95zM362 596c30 34 49 42 50 61c0 5 2 9 6 9c37 0 51 -63 51 -70c0 -20 -10 -36 -22 -46
c-10 -13 -99 -80 -125 -80c-12 0 -17 13 -17 17c0 44 27 77 57 109z" />
    <glyph glyph-name="Amacron" unicode="&#x100;" horiz-adv-x="601" 
d="M601 354c0 -39 -63 -90 -93 -109c0 -23 1 -46 2 -70c3 2 6 2 9 2c20 0 44 -39 54 -53c10 -15 18 -30 18 -48c0 -11 -3 -20 -6 -30c-14 -36 -24 -65 -31 -103c-3 -14 -10 -21 -24 -21c-61 0 -63 110 -66 152c-4 48 -7 97 -10 146c-26 -9 -52 -10 -80 -11
c-10 -46 -21 -92 -33 -137c-20 -68 -68 -128 -145 -128c-13 0 -25 2 -38 5c-88 24 -145 79 -176 163c-7 19 -12 38 -12 58c0 36 16 67 50 82c66 30 138 49 211 49c30 0 60 -2 93 -2c4 17 7 34 11 51c17 93 38 186 38 281v26c0 36 25 37 55 37c45 0 101 -27 101 -78
c0 -8 -1 -15 -2 -23c-10 -89 -17 -179 -19 -269c25 10 45 22 66 38c5 4 10 7 16 7c8 0 11 -8 11 -15zM450 309c-4 89 -6 179 -8 268l-49 -276c19 2 38 4 57 8zM301 208h-64c-65 0 -131 -2 -195 -17c-15 -3 -41 -10 -41 -30c0 -17 21 -38 32 -49c31 -30 99 -51 141 -51
c86 0 107 80 127 147zM477 777c-57 0 -82 -5 -132 -5c-14 0 -20 36 -23 50v8c0 23 7 28 21 28c48 0 57 -5 105 -5c37 0 58 4 92 13c2 1 5 1 8 1c16 0 23 -41 23 -49c0 -43 -60 -41 -94 -41z" />
    <glyph glyph-name="amacron" unicode="&#x101;" horiz-adv-x="418" 
d="M423 158c0 -16 -2 -32 -2 -49c0 -29 -12 -51 -25 -76c-14 -27 -31 -49 -64 -49c-29 0 -38 15 -53 36c-25 36 -35 69 -42 112c-20 -36 -79 -147 -125 -147c-23 0 -44 20 -56 38c-14 19 -16 43 -29 62c-12 19 -17 38 -17 59c0 18 4 37 12 53c42 83 94 170 173 222
c8 6 17 9 26 9c15 0 30 -9 42 -18c17 -15 18 -31 22 -51c23 -8 35 -18 35 -44c0 -1 0 -3 -1 -15c-6 -66 -22 -131 -25 -200c0 -9 3 -21 14 -21c29 0 89 112 105 112c10 0 10 -26 10 -33zM246 363c-79 -72 -136 -158 -160 -263c79 68 127 165 160 263zM261 511
c-57 0 -82 -5 -132 -5c-14 0 -20 36 -23 50v8c0 23 7 28 21 28c48 0 57 -5 105 -5c37 0 58 4 92 13c2 1 5 1 8 1c16 0 23 -41 23 -49c0 -43 -60 -41 -94 -41z" />
    <glyph glyph-name="Abreve" unicode="&#x102;" horiz-adv-x="601" 
d="M601 354c0 -39 -63 -90 -93 -109c0 -23 1 -46 2 -70c3 2 6 2 9 2c20 0 44 -39 54 -53c10 -15 18 -30 18 -48c0 -11 -3 -20 -6 -30c-14 -36 -24 -65 -31 -103c-3 -14 -10 -21 -24 -21c-61 0 -63 110 -66 152c-4 48 -7 97 -10 146c-26 -9 -52 -10 -80 -11
c-10 -46 -21 -92 -33 -137c-20 -68 -68 -128 -145 -128c-13 0 -25 2 -38 5c-88 24 -145 79 -176 163c-7 19 -12 38 -12 58c0 36 16 67 50 82c66 30 138 49 211 49c30 0 60 -2 93 -2c4 17 7 34 11 51c17 93 38 186 38 281v26c0 36 25 37 55 37c45 0 101 -27 101 -78
c0 -8 -1 -15 -2 -23c-10 -89 -17 -179 -19 -269c25 10 45 22 66 38c5 4 10 7 16 7c8 0 11 -8 11 -15zM450 309c-4 89 -6 179 -8 268l-49 -276c19 2 38 4 57 8zM301 208h-64c-65 0 -131 -2 -195 -17c-15 -3 -41 -10 -41 -30c0 -17 21 -38 32 -49c31 -30 99 -51 141 -51
c86 0 107 80 127 147zM299 910c47 0 63 -89 127 -89c79 0 78 92 125 92c13 0 36 -28 36 -36c0 -28 -43 -135 -126 -135c-100 0 -175 113 -175 150c0 9 4 18 13 18z" />
    <glyph glyph-name="abreve" unicode="&#x103;" horiz-adv-x="418" 
d="M423 158c0 -16 -2 -32 -2 -49c0 -29 -12 -51 -25 -76c-14 -27 -31 -49 -64 -49c-29 0 -38 15 -53 36c-25 36 -35 69 -42 112c-20 -36 -79 -147 -125 -147c-23 0 -44 20 -56 38c-14 19 -16 43 -29 62c-12 19 -17 38 -17 59c0 18 4 37 12 53c42 83 94 170 173 222
c8 6 17 9 26 9c15 0 30 -9 42 -18c17 -15 18 -31 22 -51c23 -8 35 -18 35 -44c0 -1 0 -3 -1 -15c-6 -66 -22 -131 -25 -200c0 -9 3 -21 14 -21c29 0 89 112 105 112c10 0 10 -26 10 -33zM246 363c-79 -72 -136 -158 -160 -263c79 68 127 165 160 263zM83 644
c47 0 63 -89 127 -89c79 0 78 92 125 92c13 0 36 -28 36 -36c0 -28 -43 -135 -126 -135c-100 0 -175 113 -175 150c0 9 4 18 13 18z" />
    <glyph glyph-name="Aogonek" unicode="&#x104;" horiz-adv-x="601" 
d="M424 -155c-2 6 -3 13 -3 22c0 41 34 114 59 144c-11 3 -15 46 -16 63c-4 48 -7 97 -10 146c-26 -9 -52 -10 -80 -11c-10 -46 -21 -92 -33 -137c-20 -68 -68 -128 -145 -128c-13 0 -25 2 -38 5c-88 24 -145 79 -176 163c-7 19 -12 38 -12 58c0 36 16 67 50 82
c66 30 138 49 211 49c30 0 60 -2 90 -2h3c4 17 7 34 11 51c17 93 38 186 38 281v26c0 36 25 37 55 37c45 0 101 -27 101 -78c0 -8 -1 -15 -2 -23c-10 -89 -17 -179 -19 -269c25 10 45 22 66 38c5 4 10 7 16 7c8 0 11 -8 11 -15c0 -39 -63 -90 -93 -109c0 -23 1 -46 2 -70
c3 2 6 2 9 2c20 0 44 -39 54 -53c10 -15 18 -30 18 -48c0 -11 -3 -20 -6 -30c-25 -40 -69 -81 -85 -122c-6 -16 -10 -31 -10 -44c0 -12 4 -22 14 -28c58 0 104 43 135 43c12 0 22 -39 22 -52c-11 -49 -61 -85 -142 -85c-29 0 -81 42 -95 87zM301 208h-64
c-65 0 -131 -3 -195 -18c-15 -3 -41 -9 -41 -29c0 -17 21 -38 32 -49c31 -30 99 -51 141 -51c86 0 107 80 127 147zM450 309c-4 89 -6 179 -8 268l-49 -276c19 2 38 4 57 8z" />
    <glyph glyph-name="aogonek" unicode="&#x105;" horiz-adv-x="418" 
d="M226 -135c-2 6 -3 13 -3 22c0 38 30 95 59 128c-1 1 -2 3 -3 5c-25 36 -35 69 -42 112c-20 -36 -79 -147 -125 -147c-23 0 -44 20 -56 38c-14 19 -16 43 -29 62c-12 19 -17 38 -17 59c0 18 4 37 12 53c42 83 94 170 173 222c8 6 17 9 26 9c15 0 30 -9 42 -18
c17 -15 18 -31 22 -51c23 -8 35 -18 35 -44c0 -5 -1 -10 -1 -15c-6 -66 -22 -131 -25 -197v-3c0 -9 3 -21 14 -21c29 0 89 112 105 112c10 0 10 -26 10 -33c0 -16 -2 -32 -2 -49c0 -72 -129 -129 -129 -209c0 -12 4 -22 14 -28c58 0 104 43 135 43c12 0 22 -39 22 -52
c-11 -49 -61 -85 -142 -85c-29 0 -81 42 -95 87zM246 363c-79 -72 -136 -158 -160 -263c79 68 127 165 160 263z" />
    <glyph glyph-name="Ccedilla" unicode="&#xc7;" horiz-adv-x="384" 
d="M240 -171c-10 30 -134 22 -134 105c0 16 5 37 15 51c-37 18 -61 51 -72 93c-13 45 -19 92 -19 139c0 153 71 326 156 451c4 5 9 12 17 12c6 0 26 -12 34 -15v30c-3 6 -6 14 -6 21c0 6 3 9 9 9s11 -2 16 -3c68 -24 88 -75 88 -144c0 -42 -12 -96 -33 -133
c-4 -7 -10 -18 -16 -18c-8 0 -12 11 -15 16c-25 52 -36 114 -41 171c-9 0 -16 -2 -21 -10c-11 -17 -18 -40 -25 -59c-40 -108 -63 -234 -63 -349c0 -56 5 -115 22 -169c91 85 154 218 183 337c14 -46 24 -92 24 -140c0 -89 -39 -171 -100 -235c-16 -17 -35 -22 -58 -22
c-9 0 -18 1 -27 2c-4 -6 -6 -13 -6 -21c0 -40 138 -7 138 -117c0 -90 -71 -120 -148 -120c-33 0 -60 1 -60 58c0 19 8 33 21 33c7 0 6 -8 11 -8c82 6 110 22 110 33v2z" />
    <glyph glyph-name="ccedilla" unicode="&#xe7;" horiz-adv-x="277" 
d="M187 -161c-10 30 -134 22 -134 105c0 18 6 42 19 56c-39 37 -57 112 -57 156c0 102 52 221 132 286c9 8 18 12 30 12c18 0 37 -12 50 -23c12 -11 14 -31 14 -46c0 -28 -16 -107 -24 -136c-2 -7 -6 -22 -16 -22c-23 0 -28 108 -31 128c-66 -73 -99 -158 -104 -255v-5
c-1 -14 6 -28 22 -28c50 0 141 87 179 121c2 -9 2 -17 2 -26c0 -76 -54 -184 -145 -184h-4c-3 -6 -5 -13 -5 -20c0 -40 138 -7 138 -117c0 -90 -71 -120 -148 -120c-33 0 -60 1 -60 58c0 19 8 33 21 33c7 0 6 -8 11 -8c82 6 110 22 110 33v2z" />
    <glyph glyph-name="Cacute" unicode="&#x106;" horiz-adv-x="384" 
d="M359 224c0 -89 -39 -171 -100 -235c-16 -17 -35 -22 -58 -22c-19 0 -38 3 -56 9c-50 15 -82 52 -96 102c-13 45 -19 92 -19 139c0 153 71 326 156 451c4 5 9 12 17 12c6 0 26 -12 34 -15v30c-3 6 -6 14 -6 21c0 6 3 9 9 9s10 -1 16 -3c68 -23 88 -75 88 -144
c0 -42 -17 -100 -33 -133c-4 -8 -9 -18 -16 -18c-8 0 -12 11 -15 16c-25 52 -36 114 -41 171c-9 0 -16 -2 -21 -10c-11 -17 -18 -40 -25 -59c-40 -108 -63 -234 -63 -349c0 -56 5 -115 22 -169c91 85 154 218 183 337c14 -46 24 -92 24 -140zM300 889c30 34 49 42 50 61
c0 5 2 9 6 9c37 0 51 -63 51 -70c0 -20 -10 -36 -22 -46c-10 -13 -99 -80 -125 -80c-12 0 -17 13 -17 17c0 44 27 77 57 109z" />
    <glyph glyph-name="cacute" unicode="&#x107;" horiz-adv-x="277" 
d="M269 162c0 -76 -54 -184 -145 -184c-75 0 -109 118 -109 178c0 102 52 221 132 286c9 8 18 12 30 12c18 0 37 -12 50 -23c12 -11 14 -31 14 -46c0 -28 -16 -107 -24 -136c-2 -7 -6 -22 -16 -22c-23 0 -28 108 -31 128c-66 -73 -104 -170 -104 -255c0 -19 6 -33 22 -33
c50 0 141 87 179 121c2 -9 2 -17 2 -26zM225 618c30 34 49 42 50 61c0 5 2 9 6 9c37 0 51 -63 51 -70c0 -20 -10 -36 -22 -46c-10 -13 -99 -80 -125 -80c-12 0 -17 13 -17 17c0 44 27 77 57 109z" />
    <glyph glyph-name="Ccircumflex" unicode="&#x108;" horiz-adv-x="384" 
d="M359 224c0 -89 -39 -171 -100 -235c-16 -17 -35 -22 -58 -22c-19 0 -38 3 -56 9c-50 15 -82 52 -96 102c-13 45 -19 92 -19 139c0 153 71 326 156 451c4 5 9 12 17 12c6 0 26 -12 34 -15v30c-3 6 -6 14 -6 21c0 6 3 9 9 9s10 -1 16 -3c68 -23 88 -75 88 -144
c0 -42 -17 -100 -33 -133c-4 -8 -9 -18 -16 -18c-8 0 -12 11 -15 16c-25 52 -36 114 -41 171c-9 0 -16 -2 -21 -10c-11 -17 -18 -40 -25 -59c-40 -108 -63 -234 -63 -349c0 -56 5 -115 22 -169c91 85 154 218 183 337c14 -46 24 -92 24 -140zM392 763c-61 0 -93 69 -124 118
c-21 -31 -92 -111 -127 -111c-15 0 -18 17 -18 23c0 28 34 59 61 90c30 35 44 78 72 78c61 0 83 -84 96 -102c15 -21 52 -63 52 -84c0 -6 -4 -12 -12 -12z" />
    <glyph glyph-name="ccircumflex" unicode="&#x109;" horiz-adv-x="277" 
d="M269 162c0 -76 -54 -184 -145 -184c-75 0 -109 118 -109 178c0 102 52 221 132 286c9 8 18 12 30 12c18 0 37 -12 50 -23c12 -11 14 -31 14 -46c0 -28 -16 -107 -24 -136c-2 -7 -6 -22 -16 -22c-23 0 -28 108 -31 128c-66 -73 -104 -170 -104 -255c0 -19 6 -33 22 -33
c50 0 141 87 179 121c2 -9 2 -17 2 -26zM317 492c-61 0 -93 69 -124 118c-21 -31 -92 -111 -127 -111c-15 0 -18 17 -18 23c0 28 34 59 61 90c30 35 44 78 72 78c61 0 83 -84 96 -102c15 -21 52 -63 52 -84c0 -6 -4 -12 -12 -12z" />
    <glyph glyph-name="Cdotaccent" unicode="&#x10a;" horiz-adv-x="384" 
d="M359 224c0 -89 -39 -171 -100 -235c-16 -17 -35 -22 -58 -22c-19 0 -38 3 -56 9c-50 15 -82 52 -96 102c-13 45 -19 92 -19 139c0 153 71 326 156 451c4 5 9 12 17 12c6 0 26 -12 34 -15v30c-3 6 -6 14 -6 21c0 6 3 9 9 9s10 -1 16 -3c68 -23 88 -75 88 -144
c0 -42 -17 -100 -33 -133c-4 -8 -9 -18 -16 -18c-8 0 -12 11 -15 16c-25 52 -36 114 -41 171c-9 0 -16 -2 -21 -10c-11 -17 -18 -40 -25 -59c-40 -108 -63 -234 -63 -349c0 -56 5 -115 22 -169c91 85 154 218 183 337c14 -46 24 -92 24 -140zM262 919c29 0 60 -31 60 -74
c0 -33 -18 -62 -62 -62c-37 0 -62 36 -62 72c0 31 17 64 64 64z" />
    <glyph glyph-name="cdotaccent" unicode="&#x10b;" horiz-adv-x="277" 
d="M269 162c0 -76 -54 -184 -145 -184c-75 0 -109 118 -109 178c0 102 52 221 132 286c9 8 18 12 30 12c18 0 37 -12 50 -23c12 -11 14 -31 14 -46c0 -28 -16 -107 -24 -136c-2 -7 -6 -22 -16 -22c-23 0 -28 108 -31 128c-66 -73 -104 -170 -104 -255c0 -19 6 -33 22 -33
c50 0 141 87 179 121c2 -9 2 -17 2 -26zM187 648c29 0 60 -31 60 -74c0 -33 -18 -62 -62 -62c-37 0 -62 36 -62 72c0 31 17 64 64 64z" />
    <glyph glyph-name="Ccaron" unicode="&#x10c;" horiz-adv-x="384" 
d="M359 224c0 -89 -39 -171 -100 -235c-16 -17 -35 -22 -58 -22c-19 0 -38 3 -56 9c-50 15 -82 52 -96 102c-13 45 -19 92 -19 139c0 153 71 326 156 451c4 5 9 12 17 12c6 0 26 -12 34 -15v30c-3 6 -6 14 -6 21c0 6 3 9 9 9s10 -1 16 -3c68 -23 88 -75 88 -144
c0 -42 -17 -100 -33 -133c-4 -8 -9 -18 -16 -18c-8 0 -12 11 -15 16c-25 52 -36 114 -41 171c-9 0 -16 -2 -21 -10c-11 -17 -18 -40 -25 -59c-40 -108 -63 -234 -63 -349c0 -56 5 -115 22 -169c91 85 154 218 183 337c14 -46 24 -92 24 -140zM133 961c47 0 84 -69 115 -118
c21 31 80 111 115 111c12 0 37 -28 37 -36c0 -19 -32 -45 -59 -77c-30 -35 -42 -78 -72 -78c-35 0 -52 25 -52 24c-1 4 0 7 -2 12c-5 9 -95 140 -95 155c0 5 5 7 13 7z" />
    <glyph glyph-name="ccaron" unicode="&#x10d;" horiz-adv-x="277" 
d="M269 162c0 -76 -54 -184 -145 -184c-75 0 -109 118 -109 178c0 102 52 221 132 286c9 8 18 12 30 12c18 0 37 -12 50 -23c12 -11 14 -31 14 -46c0 -28 -16 -107 -24 -136c-2 -7 -6 -22 -16 -22c-23 0 -28 108 -31 128c-66 -73 -104 -170 -104 -255c0 -19 6 -33 22 -33
c50 0 141 87 179 121c2 -9 2 -17 2 -26zM58 690c47 0 84 -69 115 -118c21 31 80 111 115 111c12 0 37 -28 37 -36c0 -19 -32 -45 -59 -77c-30 -35 -42 -78 -72 -78c-35 0 -52 25 -52 24c-1 4 0 7 -2 12c-5 9 -95 140 -95 155c0 5 5 7 13 7z" />
    <glyph glyph-name="Dcaron" unicode="&#x10e;" horiz-adv-x="490" 
d="M480 392c0 -71 -19 -140 -52 -203c-32 -62 -69 -125 -116 -178c-18 -19 -40 -34 -67 -34c-53 0 -77 48 -77 94c0 47 14 150 66 171c-3 -14 -5 -28 -5 -42c0 -33 21 -106 63 -106c17 0 28 15 35 28c42 76 62 169 62 255c0 78 -13 177 -89 220c-15 8 -32 14 -50 14
s-36 -6 -52 -14c6 -32 8 -65 8 -98c0 -53 -5 -105 -14 -157c-14 -93 -31 -186 -31 -281v-32c0 -12 0 -26 -11 -33c-7 -5 -18 -9 -26 -9c-25 0 -33 34 -38 53c-14 51 -14 105 -24 158c3 1 6 1 9 1c17 0 31 -14 42 -26v26c-1 97 11 192 21 288c1 8 1 16 1 23c0 17 -1 34 -4 51
c-23 -14 -71 -61 -97 -61c-28 0 -20 49 -20 66c0 13 -4 26 -4 39c0 9 3 15 11 20c39 26 115 52 161 63c24 5 47 9 71 9c111 0 170 -77 205 -174c15 -42 22 -87 22 -131zM125 933c47 0 84 -69 115 -118c21 31 80 111 115 111c12 0 37 -28 37 -36c0 -19 -32 -45 -59 -77
c-30 -35 -42 -78 -72 -78c-35 0 -52 25 -52 24c-1 4 0 7 -2 12c-5 9 -95 140 -95 155c0 5 5 7 13 7z" />
    <glyph glyph-name="dcaron" unicode="&#x10f;" horiz-adv-x="414" 
d="M389 185c0 -14 -7 -27 -7 -43c0 -18 3 -35 3 -52c0 -19 -4 -55 -29 -55c-39 0 -61 60 -75 88c-10 19 -19 38 -25 58c-15 -53 -51 -208 -121 -208c-58 0 -98 102 -111 149c-6 20 -9 41 -9 62c0 31 7 60 21 87c25 50 102 168 164 168c21 0 34 -9 50 -21
c11 93 25 186 37 278c1 12 5 35 22 35c27 0 35 -39 35 -59c0 -12 -1 -23 -3 -34c-15 -153 -28 -306 -28 -465c0 -13 4 -27 15 -27c26 0 42 47 55 47c5 0 6 -5 6 -8zM224 333c0 7 -3 12 -11 12s-20 -5 -28 -10c-71 -40 -119 -132 -119 -212c0 -15 4 -37 23 -37
c8 0 15 6 20 11c53 56 86 146 111 218c2 5 4 12 4 18zM375 511c0 2 -1 4 -1 7c0 28 16 88 16 113s-15 41 -15 57c0 10 9 12 16 12c43 0 73 -52 73 -72c0 -52 -37 -144 -64 -144c-16 0 -22 16 -25 27z" />
    <glyph glyph-name="Eth" unicode="&#xd0;" horiz-adv-x="490" 
d="M480 392c0 -71 -19 -140 -52 -203c-32 -62 -69 -125 -116 -178c-18 -19 -40 -34 -67 -34c-53 0 -77 48 -77 94c0 47 14 150 66 171c-3 -14 -5 -28 -5 -42c0 -33 21 -106 63 -106c17 0 28 15 35 28c42 76 62 169 62 255c0 78 -13 177 -89 220c-15 8 -32 14 -50 14
s-36 -6 -52 -14c6 -32 8 -65 8 -98c0 -37 -3 -74 -7 -110c23 1 46 3 69 3c18 0 26 -9 26 -25c0 -4 1 -47 -33 -47c-15 0 -42 1 -72 1c-14 -86 -28 -172 -28 -260v-32c0 -12 0 -26 -11 -33c-7 -5 -18 -9 -26 -9c-25 0 -33 34 -38 53c-14 51 -14 105 -24 158c3 1 6 1 9 1
c17 0 31 -14 42 -26v26c-1 40 1 81 4 121c-20 -2 -54 -5 -74 -5c-18 0 -25 8 -25 36c0 5 6 37 27 37c17 0 50 -1 78 -1c4 33 7 66 11 100c1 8 1 16 1 23c0 17 -1 34 -4 51c-23 -14 -71 -61 -97 -61c-28 0 -20 49 -20 66c0 13 -4 26 -4 39c0 9 3 15 11 20
c39 26 115 52 161 63c24 5 47 9 71 9c111 0 170 -77 205 -174c15 -42 22 -87 22 -131z" />
    <glyph glyph-name="eth" unicode="&#xf0;" horiz-adv-x="275" 
d="M143 510c-31 -15 -55 -46 -66 -13c-10 29 3 46 8 49c9 5 25 13 44 23c-16 17 -34 28 -54 28c-37 0 -56 -48 -69 -47c-25 -2 -36 81 -36 125c0 9 36 40 90 40c54 -14 96 -56 127 -115c14 7 27 15 39 23c1 7 7 21 14 22c10 2 29 -23 30 -45c2 -17 -7 -36 -38 -49
c-3 -2 -11 -5 -20 -9c30 -86 45 -194 45 -306c0 -77 -24 -153 -70 -215c-15 -19 -37 -32 -62 -32c-16 0 -30 5 -42 15c-51 42 -65 123 -65 185c0 89 34 238 120 262c28 -2 40 -15 40 -15c0 24 -7 54 -18 82c-6 -3 -12 -6 -17 -8zM174 301c0 18 1 92 -23 92
c-10 0 -16 -9 -20 -17c-27 -64 -40 -157 -40 -227c0 -17 0 -33 1 -50c62 48 82 127 82 202z" />
    <glyph glyph-name="Dcroat" unicode="&#x110;" horiz-adv-x="490" 
d="M480 392c0 -71 -19 -140 -52 -203c-32 -62 -69 -125 -116 -178c-18 -19 -40 -34 -67 -34c-53 0 -77 48 -77 94c0 47 14 150 66 171c-3 -14 -5 -28 -5 -42c0 -33 21 -106 63 -106c17 0 28 15 35 28c42 76 62 169 62 255c0 78 -13 177 -89 220c-15 8 -32 14 -50 14
s-36 -6 -52 -14c6 -32 8 -65 8 -98c0 -37 -3 -74 -7 -110c23 1 46 3 69 3c18 0 26 -9 26 -25c0 -4 1 -47 -33 -47c-15 0 -42 1 -72 1c-14 -86 -28 -172 -28 -260v-32c0 -12 0 -26 -11 -33c-7 -5 -18 -9 -26 -9c-25 0 -33 34 -38 53c-14 51 -14 105 -24 158c3 1 6 1 9 1
c17 0 31 -14 42 -26v26c-1 40 1 81 4 121c-20 -2 -54 -5 -74 -5c-18 0 -25 8 -25 36c0 5 6 37 27 37c17 0 50 -1 78 -1c4 33 7 66 11 100c1 8 1 16 1 23c0 17 -1 34 -4 51c-23 -14 -71 -61 -97 -61c-28 0 -20 49 -20 66c0 13 -4 26 -4 39c0 9 3 15 11 20
c39 26 115 52 161 63c24 5 47 9 71 9c111 0 170 -77 205 -174c15 -42 22 -87 22 -131z" />
    <glyph glyph-name="dcroat" unicode="&#x111;" horiz-adv-x="384" 
d="M376 509c-15 0 -31 1 -47 2c-9 -96 -15 -193 -15 -289c0 -19 -1 -38 1 -57c0 -8 2 -19 13 -19c26 0 42 47 55 47c5 0 6 -5 6 -8c0 -14 -7 -27 -7 -43c0 -18 3 -35 3 -52c0 -19 -4 -55 -29 -55c-39 0 -61 60 -75 88c-10 19 -19 38 -25 58c-15 -53 -51 -208 -121 -208
c-58 0 -98 102 -111 149c-6 20 -9 41 -9 62c0 31 7 60 21 87c25 50 102 168 164 168c21 0 34 -9 50 -21c4 32 7 64 12 97h-1c-28 0 -71 -2 -84 -2c-21 0 -25 32 -25 48c0 17 5 29 18 29c59 0 82 -4 100 -5h2l15 111c1 12 5 35 22 35c27 0 35 -39 35 -59c0 -12 -1 -23 -3 -34
l-6 -56c21 -1 36 -1 48 -1c21 0 30 -42 30 -46c0 -16 -12 -26 -37 -26zM224 333c0 7 -3 12 -11 12c-10 0 -20 -5 -28 -10c-71 -40 -119 -132 -119 -212c0 -15 4 -37 23 -37c8 0 15 6 20 11c53 56 86 146 111 218c2 5 4 12 4 18z" />
    <glyph glyph-name="Egrave" unicode="&#xc8;" horiz-adv-x="452" 
d="M452 640c0 -34 -123 -85 -153 -97c-3 -1 -5 -2 -8 -2c-5 0 -6 4 -6 8c0 8 7 30 10 39c-72 -38 -109 -44 -144 -125c-3 -7 -6 -13 -6 -20c0 -37 129 -33 156 -34c9 5 24 15 34 15c18 0 36 -21 47 -33c14 -15 21 -38 21 -58c0 -10 -5 -12 -13 -12c-12 0 -26 4 -37 6
c-105 -31 -185 -45 -253 -141c-16 -22 -26 -52 -26 -80c0 -43 24 -72 69 -72s165 20 165 80c0 14 -6 38 -23 38c-28 0 -146 -81 -155 -81c-4 0 -6 4 -6 8c0 7 3 14 7 21c37 63 103 107 179 107c59 0 117 -43 117 -105c0 -21 -7 -41 -20 -58c-49 -64 -156 -80 -232 -80
c-66 0 -121 24 -157 82c-17 26 -28 55 -28 86c0 36 14 69 28 101c32 75 98 106 170 132c-59 19 -97 59 -97 123c0 38 18 70 46 94c55 48 122 80 183 118c9 6 18 10 28 10c19 0 34 -13 46 -27c6 1 12 2 17 2c16 0 26 -6 33 -20c3 -7 8 -17 8 -25zM295 806
c-51 68 -95 89 -95 106c0 13 34 34 63 34c24 0 29 -18 71 -84c14 -23 58 -85 58 -103c0 -6 -4 -11 -12 -11c-50 0 -61 26 -85 58z" />
    <glyph glyph-name="egrave" unicode="&#xe8;" horiz-adv-x="337" 
d="M317 132c0 -104 -53 -152 -154 -152c-93 0 -120 57 -145 134c-5 16 -8 32 -8 48c0 54 50 132 85 173c1 15 4 55 25 55c7 0 13 -6 15 -13c22 20 71 55 101 55c38 0 79 -47 79 -84c0 -47 -82 -133 -118 -161c-13 -10 -28 -17 -44 -17c-29 0 -42 29 -50 53
c-15 -27 -41 -67 -41 -98c0 -27 15 -41 41 -41c97 0 153 44 210 115c2 -22 4 -45 4 -67zM233 348c0 6 -3 12 -10 12c-17 0 -66 -57 -77 -71c-1 -6 -2 -12 -2 -18c0 -7 1 -18 10 -18c22 0 79 73 79 95zM179 528c-51 68 -95 89 -95 106c0 13 34 34 63 34c24 0 29 -18 71 -84
c14 -23 58 -85 58 -103c0 -6 -4 -11 -12 -11c-50 0 -61 26 -85 58z" />
    <glyph glyph-name="Eacute" unicode="&#xc9;" horiz-adv-x="452" 
d="M452 640c0 -34 -123 -85 -153 -97c-3 -1 -5 -2 -8 -2c-5 0 -6 4 -6 8c0 8 7 30 10 39c-72 -38 -109 -44 -144 -125c-3 -7 -6 -13 -6 -20c0 -37 129 -33 156 -34c9 5 24 15 34 15c18 0 36 -21 47 -33c14 -15 21 -38 21 -58c0 -10 -5 -12 -13 -12c-12 0 -26 4 -37 6
c-105 -31 -185 -45 -253 -141c-16 -22 -26 -52 -26 -80c0 -43 24 -72 69 -72s165 20 165 80c0 14 -6 38 -23 38c-28 0 -146 -81 -155 -81c-4 0 -6 4 -6 8c0 7 3 14 7 21c37 63 103 107 179 107c59 0 117 -43 117 -105c0 -21 -7 -41 -20 -58c-49 -64 -156 -80 -232 -80
c-66 0 -121 24 -157 82c-17 26 -28 55 -28 86c0 36 14 69 28 101c32 75 98 106 170 132c-59 19 -97 59 -97 123c0 38 18 70 46 94c55 48 122 80 183 118c9 6 18 10 28 10c19 0 34 -13 46 -27c6 1 12 2 17 2c16 0 26 -6 33 -20c3 -7 8 -17 8 -25zM398 874c30 34 49 42 50 61
c0 5 2 9 6 9c37 0 51 -63 51 -70c0 -20 -10 -36 -22 -46c-10 -13 -99 -80 -125 -80c-12 0 -17 13 -17 17c0 44 27 77 57 109z" />
    <glyph glyph-name="eacute" unicode="&#xe9;" horiz-adv-x="337" 
d="M317 132c0 -104 -53 -152 -154 -152c-93 0 -120 57 -145 134c-5 16 -8 32 -8 48c0 54 50 132 85 173c1 15 4 55 25 55c7 0 13 -6 15 -13c22 20 71 55 101 55c38 0 79 -47 79 -84c0 -47 -82 -133 -118 -161c-13 -10 -28 -17 -44 -17c-29 0 -42 29 -50 53
c-15 -27 -41 -67 -41 -98c0 -27 15 -41 41 -41c97 0 153 44 210 115c2 -22 4 -45 4 -67zM233 348c0 6 -3 12 -10 12c-17 0 -66 -57 -77 -71c-1 -6 -2 -12 -2 -18c0 -7 1 -18 10 -18c22 0 79 73 79 95zM282 596c30 34 49 42 50 61c0 5 2 9 6 9c37 0 51 -63 51 -70
c0 -20 -10 -36 -22 -46c-10 -13 -99 -80 -125 -80c-12 0 -17 13 -17 17c0 44 27 77 57 109z" />
    <glyph glyph-name="Ecircumflex" unicode="&#xca;" horiz-adv-x="452" 
d="M452 640c0 -34 -123 -85 -153 -97c-3 -1 -5 -2 -8 -2c-5 0 -6 4 -6 8c0 8 7 30 10 39c-72 -38 -109 -44 -144 -125c-3 -7 -6 -13 -6 -20c0 -37 129 -33 156 -34c9 5 24 15 34 15c18 0 36 -21 47 -33c14 -15 21 -38 21 -58c0 -10 -5 -12 -13 -12c-12 0 -26 4 -37 6
c-105 -31 -185 -45 -253 -141c-16 -22 -26 -52 -26 -80c0 -43 24 -72 69 -72s165 20 165 80c0 14 -6 38 -23 38c-28 0 -146 -81 -155 -81c-4 0 -6 4 -6 8c0 7 3 14 7 21c37 63 103 107 179 107c59 0 117 -43 117 -105c0 -21 -7 -41 -20 -58c-49 -64 -156 -80 -232 -80
c-66 0 -121 24 -157 82c-17 26 -28 55 -28 86c0 36 14 69 28 101c32 75 98 106 170 132c-59 19 -97 59 -97 123c0 38 18 70 46 94c55 48 122 80 183 118c9 6 18 10 28 10c19 0 34 -13 46 -27c6 1 12 2 17 2c16 0 26 -6 33 -20c3 -7 8 -17 8 -25zM490 748
c-61 0 -93 69 -124 118c-21 -31 -92 -111 -127 -111c-15 0 -18 17 -18 23c0 28 34 59 61 90c30 35 44 78 72 78c61 0 83 -84 96 -102c15 -21 52 -63 52 -84c0 -6 -4 -12 -12 -12z" />
    <glyph glyph-name="ecircumflex" unicode="&#xea;" horiz-adv-x="337" 
d="M317 132c0 -104 -53 -152 -154 -152c-93 0 -120 57 -145 134c-5 16 -8 32 -8 48c0 54 50 132 85 173c1 15 4 55 25 55c7 0 13 -6 15 -13c22 20 71 55 101 55c38 0 79 -47 79 -84c0 -47 -82 -133 -118 -161c-13 -10 -28 -17 -44 -17c-29 0 -42 29 -50 53
c-15 -27 -41 -67 -41 -98c0 -27 15 -41 41 -41c97 0 153 44 210 115c2 -22 4 -45 4 -67zM233 348c0 6 -3 12 -10 12c-17 0 -66 -57 -77 -71c-1 -6 -2 -12 -2 -18c0 -7 1 -18 10 -18c22 0 79 73 79 95zM374 470c-61 0 -93 69 -124 118c-21 -31 -92 -111 -127 -111
c-15 0 -18 17 -18 23c0 28 34 59 61 90c30 35 44 78 72 78c61 0 83 -84 96 -102c15 -21 52 -63 52 -84c0 -6 -4 -12 -12 -12z" />
    <glyph glyph-name="Edieresis" unicode="&#xcb;" horiz-adv-x="452" 
d="M452 640c0 -34 -123 -85 -153 -97c-3 -1 -5 -2 -8 -2c-5 0 -6 4 -6 8c0 8 7 30 10 39c-72 -38 -109 -44 -144 -125c-3 -7 -6 -13 -6 -20c0 -37 129 -33 156 -34c9 5 24 15 34 15c18 0 36 -21 47 -33c14 -15 21 -38 21 -58c0 -10 -5 -12 -13 -12c-12 0 -26 4 -37 6
c-105 -31 -185 -45 -253 -141c-16 -22 -26 -52 -26 -80c0 -43 24 -72 69 -72s165 20 165 80c0 14 -6 38 -23 38c-28 0 -146 -81 -155 -81c-4 0 -6 4 -6 8c0 7 3 14 7 21c37 63 103 107 179 107c59 0 117 -43 117 -105c0 -21 -7 -41 -20 -58c-49 -64 -156 -80 -232 -80
c-66 0 -121 24 -157 82c-17 26 -28 55 -28 86c0 36 14 69 28 101c32 75 98 106 170 132c-59 19 -97 59 -97 123c0 38 18 70 46 94c55 48 122 80 183 118c9 6 18 10 28 10c19 0 34 -13 46 -27c6 1 12 2 17 2c16 0 26 -6 33 -20c3 -7 8 -17 8 -25zM491 860c2 -7 3 -14 3 -20
c0 -32 -22 -62 -59 -62c-29 0 -52 24 -52 53c0 25 13 67 59 67c17 0 40 -9 49 -38zM330 861c2 -7 3 -14 3 -21c0 -31 -18 -62 -51 -62c-24 0 -47 28 -47 67c0 27 11 56 47 56c16 0 39 -12 48 -40z" />
    <glyph glyph-name="edieresis" unicode="&#xeb;" horiz-adv-x="337" 
d="M317 132c0 -104 -53 -152 -154 -152c-93 0 -120 57 -145 134c-5 16 -8 32 -8 48c0 54 50 132 85 173c1 15 4 55 25 55c7 0 13 -6 15 -13c22 20 71 55 101 55c38 0 79 -47 79 -84c0 -47 -82 -133 -118 -161c-13 -10 -28 -17 -44 -17c-29 0 -42 29 -50 53
c-15 -27 -41 -67 -41 -98c0 -27 15 -41 41 -41c97 0 153 44 210 115c2 -22 4 -45 4 -67zM233 348c0 6 -3 12 -10 12c-17 0 -66 -57 -77 -71c-1 -6 -2 -12 -2 -18c0 -7 1 -18 10 -18c22 0 79 73 79 95zM375 582c2 -7 3 -14 3 -20c0 -32 -22 -62 -59 -62c-29 0 -52 24 -52 53
c0 25 13 67 59 67c17 0 40 -9 49 -38zM214 583c2 -7 3 -14 3 -21c0 -31 -18 -62 -51 -62c-24 0 -47 28 -47 67c0 27 11 56 47 56c16 0 39 -12 48 -40z" />
    <glyph glyph-name="Emacron" unicode="&#x112;" horiz-adv-x="452" 
d="M452 640c0 -34 -123 -85 -153 -97c-3 -1 -5 -2 -8 -2c-5 0 -6 4 -6 8c0 8 7 30 10 39c-72 -38 -109 -44 -144 -125c-3 -7 -6 -13 -6 -20c0 -37 129 -33 156 -34c9 5 24 15 34 15c18 0 36 -21 47 -33c14 -15 21 -38 21 -58c0 -10 -5 -12 -13 -12c-12 0 -26 4 -37 6
c-105 -31 -185 -45 -253 -141c-16 -22 -26 -52 -26 -80c0 -43 24 -72 69 -72s165 20 165 80c0 14 -6 38 -23 38c-28 0 -146 -81 -155 -81c-4 0 -6 4 -6 8c0 7 3 14 7 21c37 63 103 107 179 107c59 0 117 -43 117 -105c0 -21 -7 -41 -20 -58c-49 -64 -156 -80 -232 -80
c-66 0 -121 24 -157 82c-17 26 -28 55 -28 86c0 36 14 69 28 101c32 75 98 106 170 132c-59 19 -97 59 -97 123c0 38 18 70 46 94c55 48 122 80 183 118c9 6 18 10 28 10c19 0 34 -13 46 -27c6 1 12 2 17 2c16 0 26 -6 33 -20c3 -7 8 -17 8 -25zM391 793
c-57 0 -82 -5 -132 -5c-14 0 -20 36 -23 50v8c0 23 7 28 21 28c48 0 57 -5 105 -5c37 0 58 4 92 13c2 1 5 1 8 1c16 0 23 -41 23 -49c0 -43 -60 -41 -94 -41z" />
    <glyph glyph-name="emacron" unicode="&#x113;" horiz-adv-x="337" 
d="M317 132c0 -104 -53 -152 -154 -152c-93 0 -120 57 -145 134c-5 16 -8 32 -8 48c0 54 50 132 85 173c1 15 4 55 25 55c7 0 13 -6 15 -13c22 20 71 55 101 55c38 0 79 -47 79 -84c0 -47 -82 -133 -118 -161c-13 -10 -28 -17 -44 -17c-29 0 -42 29 -50 53
c-15 -27 -41 -67 -41 -98c0 -27 15 -41 41 -41c97 0 153 44 210 115c2 -22 4 -45 4 -67zM233 348c0 6 -3 12 -10 12c-17 0 -66 -57 -77 -71c-1 -6 -2 -12 -2 -18c0 -7 1 -18 10 -18c22 0 79 73 79 95zM275 515c-57 0 -82 -5 -132 -5c-14 0 -20 36 -23 50v8c0 23 7 28 21 28
c48 0 57 -5 105 -5c37 0 58 4 92 13c2 1 5 1 8 1c16 0 23 -41 23 -49c0 -43 -60 -41 -94 -41z" />
    <glyph glyph-name="Ebreve" unicode="&#x114;" horiz-adv-x="452" 
d="M452 640c0 -34 -123 -85 -153 -97c-3 -1 -5 -2 -8 -2c-5 0 -6 4 -6 8c0 8 7 30 10 39c-72 -38 -109 -44 -144 -125c-3 -7 -6 -13 -6 -20c0 -37 129 -33 156 -34c9 5 24 15 34 15c18 0 36 -21 47 -33c14 -15 21 -38 21 -58c0 -10 -5 -12 -13 -12c-12 0 -26 4 -37 6
c-105 -31 -185 -45 -253 -141c-16 -22 -26 -52 -26 -80c0 -43 24 -72 69 -72s165 20 165 80c0 14 -6 38 -23 38c-28 0 -146 -81 -155 -81c-4 0 -6 4 -6 8c0 7 3 14 7 21c37 63 103 107 179 107c59 0 117 -43 117 -105c0 -21 -7 -41 -20 -58c-49 -64 -156 -80 -232 -80
c-66 0 -121 24 -157 82c-17 26 -28 55 -28 86c0 36 14 69 28 101c32 75 98 106 170 132c-59 19 -97 59 -97 123c0 38 18 70 46 94c55 48 122 80 183 118c9 6 18 10 28 10c19 0 34 -13 46 -27c6 1 12 2 17 2c16 0 26 -6 33 -20c3 -7 8 -17 8 -25zM213 926
c47 0 63 -89 127 -89c79 0 78 92 125 92c13 0 36 -28 36 -36c0 -28 -43 -135 -126 -135c-100 0 -175 113 -175 150c0 9 4 18 13 18z" />
    <glyph glyph-name="ebreve" unicode="&#x115;" horiz-adv-x="337" 
d="M317 132c0 -104 -53 -152 -154 -152c-93 0 -120 57 -145 134c-5 16 -8 32 -8 48c0 54 50 132 85 173c1 15 4 55 25 55c7 0 13 -6 15 -13c22 20 71 55 101 55c38 0 79 -47 79 -84c0 -47 -82 -133 -118 -161c-13 -10 -28 -17 -44 -17c-29 0 -42 29 -50 53
c-15 -27 -41 -67 -41 -98c0 -27 15 -41 41 -41c97 0 153 44 210 115c2 -22 4 -45 4 -67zM233 348c0 6 -3 12 -10 12c-17 0 -66 -57 -77 -71c-1 -6 -2 -12 -2 -18c0 -7 1 -18 10 -18c22 0 79 73 79 95zM97 648c47 0 63 -89 127 -89c79 0 78 92 125 92c13 0 36 -28 36 -36
c0 -28 -43 -135 -126 -135c-100 0 -175 113 -175 150c0 9 4 18 13 18z" />
    <glyph glyph-name="Edotaccent" unicode="&#x116;" horiz-adv-x="452" 
d="M452 640c0 -34 -123 -85 -153 -97c-3 -1 -5 -2 -8 -2c-5 0 -6 4 -6 8c0 8 7 30 10 39c-72 -38 -109 -44 -144 -125c-3 -7 -6 -13 -6 -20c0 -37 129 -33 156 -34c9 5 24 15 34 15c18 0 36 -21 47 -33c14 -15 21 -38 21 -58c0 -10 -5 -12 -13 -12c-12 0 -26 4 -37 6
c-105 -31 -185 -45 -253 -141c-16 -22 -26 -52 -26 -80c0 -43 24 -72 69 -72s165 20 165 80c0 14 -6 38 -23 38c-28 0 -146 -81 -155 -81c-4 0 -6 4 -6 8c0 7 3 14 7 21c37 63 103 107 179 107c59 0 117 -43 117 -105c0 -21 -7 -41 -20 -58c-49 -64 -156 -80 -232 -80
c-66 0 -121 24 -157 82c-17 26 -28 55 -28 86c0 36 14 69 28 101c32 75 98 106 170 132c-59 19 -97 59 -97 123c0 38 18 70 46 94c55 48 122 80 183 118c9 6 18 10 28 10c19 0 34 -13 46 -27c6 1 12 2 17 2c16 0 26 -6 33 -20c3 -7 8 -17 8 -25zM360 904c29 0 60 -31 60 -74
c0 -33 -18 -62 -62 -62c-37 0 -62 36 -62 72c0 31 17 64 64 64z" />
    <glyph glyph-name="edotaccent" unicode="&#x117;" horiz-adv-x="337" 
d="M317 132c0 -104 -53 -152 -154 -152c-93 0 -120 57 -145 134c-5 16 -8 32 -8 48c0 54 50 132 85 173c1 15 4 55 25 55c7 0 13 -6 15 -13c22 20 71 55 101 55c38 0 79 -47 79 -84c0 -47 -82 -133 -118 -161c-13 -10 -28 -17 -44 -17c-29 0 -42 29 -50 53
c-15 -27 -41 -67 -41 -98c0 -27 15 -41 41 -41c97 0 153 44 210 115c2 -22 4 -45 4 -67zM233 348c0 6 -3 12 -10 12c-17 0 -66 -57 -77 -71c-1 -6 -2 -12 -2 -18c0 -7 1 -18 10 -18c22 0 79 73 79 95zM244 626c29 0 60 -31 60 -74c0 -33 -18 -62 -62 -62
c-37 0 -62 36 -62 72c0 31 17 64 64 64z" />
    <glyph glyph-name="Eogonek" unicode="&#x118;" horiz-adv-x="452" 
d="M205 -155c-2 6 -3 13 -3 22c0 28 9 58 52 108c-18 -7 -63 -11 -79 -11c-66 0 -121 24 -157 82c-17 26 -28 55 -28 86c0 36 14 69 28 101c32 75 98 106 170 132c-59 19 -97 59 -97 123c0 38 18 70 46 94c55 48 122 80 183 118c9 6 18 10 28 10c19 0 34 -13 46 -27
c6 1 12 2 17 2c16 0 26 -6 33 -20c3 -7 8 -17 8 -25c0 -34 -123 -85 -153 -97c-3 -1 -5 -2 -8 -2c-5 0 -6 4 -6 8c0 8 7 30 10 39c-72 -38 -109 -44 -144 -125c-3 -6 -6 -13 -6 -20c0 -37 129 -33 156 -34c9 5 24 15 34 15c18 0 36 -21 47 -33c14 -15 21 -38 21 -58
c0 -10 -5 -12 -13 -12c-12 0 -26 4 -37 6c-105 -31 -185 -45 -253 -141c-16 -22 -26 -52 -26 -80c0 -43 24 -72 69 -72s165 20 165 80c0 14 -6 38 -23 38c-28 0 -146 -81 -155 -81c-4 0 -6 4 -6 8c0 7 4 14 7 21c38 63 103 107 179 107c59 0 117 -43 117 -105
c0 -21 -7 -41 -20 -58c-23 -30 -60 -39 -92 -66c-24 -21 -44 -68 -44 -98c0 -12 4 -22 14 -28c58 0 104 43 135 43c12 0 22 -39 22 -52c-11 -49 -61 -85 -142 -85c-29 0 -81 42 -95 87z" />
    <glyph glyph-name="eogonek" unicode="&#x119;" horiz-adv-x="337" 
d="M90 -155c-2 6 -3 13 -3 22c0 34 20 84 49 118c-70 3 -98 65 -118 129c-5 16 -8 32 -8 48c0 54 50 132 85 173c1 15 4 55 25 55c7 0 13 -6 15 -13c22 20 71 55 101 55c38 0 79 -47 79 -84c0 -47 -82 -133 -118 -161c-13 -10 -28 -17 -44 -17c-29 0 -42 29 -50 53
c-15 -27 -41 -67 -41 -98c0 -27 15 -41 41 -41c97 0 153 44 210 115c2 -22 4 -45 4 -67c0 -93 -47 -106 -114 -153c-26 -19 -47 -69 -47 -99c0 -12 4 -22 14 -28c58 0 104 43 135 43c12 0 22 -39 22 -52c-11 -49 -61 -85 -142 -85c-29 0 -81 42 -95 87zM233 348
c0 6 -3 12 -10 12c-17 0 -66 -57 -77 -71c-1 -6 -2 -12 -2 -18c0 -7 1 -18 10 -18c22 0 79 73 79 95z" />
    <glyph glyph-name="Ecaron" unicode="&#x11a;" horiz-adv-x="452" 
d="M452 640c0 -34 -123 -85 -153 -97c-3 -1 -5 -2 -8 -2c-5 0 -6 4 -6 8c0 8 7 30 10 39c-72 -38 -109 -44 -144 -125c-3 -7 -6 -13 -6 -20c0 -37 129 -33 156 -34c9 5 24 15 34 15c18 0 36 -21 47 -33c14 -15 21 -38 21 -58c0 -10 -5 -12 -13 -12c-12 0 -26 4 -37 6
c-105 -31 -185 -45 -253 -141c-16 -22 -26 -52 -26 -80c0 -43 24 -72 69 -72s165 20 165 80c0 14 -6 38 -23 38c-28 0 -146 -81 -155 -81c-4 0 -6 4 -6 8c0 7 3 14 7 21c37 63 103 107 179 107c59 0 117 -43 117 -105c0 -21 -7 -41 -20 -58c-49 -64 -156 -80 -232 -80
c-66 0 -121 24 -157 82c-17 26 -28 55 -28 86c0 36 14 69 28 101c32 75 98 106 170 132c-59 19 -97 59 -97 123c0 38 18 70 46 94c55 48 122 80 183 118c9 6 18 10 28 10c19 0 34 -13 46 -27c6 1 12 2 17 2c16 0 26 -6 33 -20c3 -7 8 -17 8 -25zM231 946
c47 0 84 -69 115 -118c21 31 80 111 115 111c12 0 37 -28 37 -36c0 -19 -32 -45 -59 -77c-30 -35 -42 -78 -72 -78c-35 0 -52 25 -52 24c-1 4 0 7 -2 12c-5 9 -95 140 -95 155c0 5 5 7 13 7z" />
    <glyph glyph-name="ecaron" unicode="&#x11b;" horiz-adv-x="337" 
d="M317 132c0 -104 -53 -152 -154 -152c-93 0 -120 57 -145 134c-5 16 -8 32 -8 48c0 54 50 132 85 173c1 15 4 55 25 55c7 0 13 -6 15 -13c22 20 71 55 101 55c38 0 79 -47 79 -84c0 -47 -82 -133 -118 -161c-13 -10 -28 -17 -44 -17c-29 0 -42 29 -50 53
c-15 -27 -41 -67 -41 -98c0 -27 15 -41 41 -41c97 0 153 44 210 115c2 -22 4 -45 4 -67zM233 348c0 6 -3 12 -10 12c-17 0 -66 -57 -77 -71c-1 -6 -2 -12 -2 -18c0 -7 1 -18 10 -18c22 0 79 73 79 95zM115 668c47 0 84 -69 115 -118c21 31 80 111 115 111
c12 0 37 -28 37 -36c0 -19 -32 -45 -59 -77c-30 -35 -42 -78 -72 -78c-35 0 -52 25 -52 24c-1 4 0 7 -2 12c-5 9 -95 140 -95 155c0 5 5 7 13 7z" />
    <glyph glyph-name="Gcircumflex" unicode="&#x11c;" horiz-adv-x="443" 
d="M455 387c0 -34 -51 -52 -78 -66c-9 -4 -22 -11 -22 -22c0 -3 2 -6 3 -9c17 -32 26 -61 26 -97c0 -54 -22 -105 -51 -149c-29 -42 -71 -66 -121 -66c-60 0 -127 21 -151 80c-21 53 -31 110 -31 166c0 168 80 324 149 472c8 18 24 23 42 23c30 0 83 -14 104 -37
c15 -16 28 -37 28 -59c0 -26 -22 -63 -36 -85c-12 -18 -9 -28 -11 -48c-1 -8 -6 -14 -15 -14c-24 0 -24 28 -29 44c-12 34 -10 57 -10 92c0 5 -2 13 -8 13c-5 0 -7 -6 -9 -10c-12 -25 -23 -51 -33 -76c-44 -109 -79 -218 -79 -339c0 -40 2 -85 12 -125c3 -12 10 -21 24 -21
c19 0 36 17 47 31c36 47 67 104 67 164c0 18 -8 27 -25 27c-6 0 -11 -1 -17 -1c-17 0 -36 6 -49 18c-6 5 -16 16 -16 24c0 9 10 14 16 17c38 19 77 35 115 52l86 41c7 4 15 6 21 6c22 0 51 -23 51 -46zM396 757c-61 0 -93 69 -124 118c-21 -31 -92 -111 -127 -111
c-15 0 -18 17 -18 23c0 28 34 59 61 90c30 35 44 78 72 78c61 0 83 -84 96 -102c15 -21 52 -63 52 -84c0 -6 -4 -12 -12 -12z" />
    <glyph glyph-name="gcircumflex" unicode="&#x11d;" horiz-adv-x="347" 
d="M327 398c0 -23 -6 -45 -12 -67c7 -4 8 -10 8 -17c0 -5 -1 -12 -2 -17c-27 -169 -56 -337 -56 -509c0 -18 1 -36 1 -53c0 -16 -9 -30 -26 -30c-25 0 -42 39 -84 39c-8 0 -15 -2 -23 -2s-12 3 -12 11c0 4 0 8 1 11c6 27 8 55 12 82c3 16 1 19 17 26c15 8 19 18 38 18
c11 0 16 -6 21 -6c10 0 11 29 11 41l3 61c3 56 10 112 16 168c-25 -40 -106 -149 -155 -149c-52 0 -75 92 -75 133c0 117 118 223 197 296c17 16 39 32 63 32c38 0 57 -34 57 -68zM258 342c0 5 -2 13 -8 13c-3 0 -5 -1 -7 -2c-76 -38 -141 -103 -171 -184
c-2 -6 -4 -14 -4 -21c0 -9 4 -20 15 -20c7 0 13 3 18 6c63 42 121 117 152 187c3 7 5 14 5 21zM400 504c-61 0 -93 69 -124 118c-21 -31 -92 -111 -127 -111c-15 0 -18 17 -18 23c0 28 34 59 61 90c30 35 44 78 72 78c61 0 83 -84 96 -102c15 -21 52 -63 52 -84
c0 -6 -4 -12 -12 -12z" />
    <glyph glyph-name="Gbreve" unicode="&#x11e;" horiz-adv-x="443" 
d="M455 387c0 -34 -51 -52 -78 -66c-9 -4 -22 -11 -22 -22c0 -3 2 -6 3 -9c17 -32 26 -61 26 -97c0 -54 -22 -105 -51 -149c-29 -42 -71 -66 -121 -66c-60 0 -127 21 -151 80c-21 53 -31 110 -31 166c0 168 80 324 149 472c8 18 24 23 42 23c30 0 83 -14 104 -37
c15 -16 28 -37 28 -59c0 -26 -22 -63 -36 -85c-12 -18 -9 -28 -11 -48c-1 -8 -6 -14 -15 -14c-24 0 -24 28 -29 44c-12 34 -10 57 -10 92c0 5 -2 13 -8 13c-5 0 -7 -6 -9 -10c-12 -25 -23 -51 -33 -76c-44 -109 -79 -218 -79 -339c0 -40 2 -85 12 -125c3 -12 10 -21 24 -21
c19 0 36 17 47 31c36 47 67 104 67 164c0 18 -8 27 -25 27c-6 0 -11 -1 -17 -1c-17 0 -36 6 -49 18c-6 5 -16 16 -16 24c0 9 10 14 16 17c38 19 77 35 115 52l86 41c7 4 15 6 21 6c22 0 51 -23 51 -46zM119 935c47 0 63 -89 127 -89c79 0 78 92 125 92c13 0 36 -28 36 -36
c0 -28 -43 -135 -126 -135c-100 0 -175 113 -175 150c0 9 4 18 13 18z" />
    <glyph glyph-name="gbreve" unicode="&#x11f;" horiz-adv-x="347" 
d="M327 398c0 -23 -6 -45 -12 -67c7 -4 8 -10 8 -17c0 -5 -1 -12 -2 -17c-27 -169 -56 -337 -56 -509c0 -18 1 -36 1 -53c0 -16 -9 -30 -26 -30c-25 0 -42 39 -84 39c-8 0 -15 -2 -23 -2s-12 3 -12 11c0 4 0 8 1 11c6 27 8 55 12 82c3 16 1 19 17 26c15 8 19 18 38 18
c11 0 16 -6 21 -6c10 0 11 29 11 41l3 61c3 56 10 112 16 168c-25 -40 -106 -149 -155 -149c-52 0 -75 92 -75 133c0 117 118 223 197 296c17 16 39 32 63 32c38 0 57 -34 57 -68zM258 342c0 5 -2 13 -8 13c-3 0 -5 -1 -7 -2c-76 -38 -141 -103 -171 -184
c-2 -6 -4 -14 -4 -21c0 -9 4 -20 15 -20c7 0 13 3 18 6c63 42 121 117 152 187c3 7 5 14 5 21zM123 682c47 0 63 -89 127 -89c79 0 78 92 125 92c13 0 36 -28 36 -36c0 -28 -43 -135 -126 -135c-100 0 -175 113 -175 150c0 9 4 18 13 18z" />
    <glyph glyph-name="Gdotaccent" unicode="&#x120;" horiz-adv-x="443" 
d="M455 387c0 -34 -51 -52 -78 -66c-9 -4 -22 -11 -22 -22c0 -3 2 -6 3 -9c17 -32 26 -61 26 -97c0 -54 -22 -105 -51 -149c-29 -42 -71 -66 -121 -66c-60 0 -127 21 -151 80c-21 53 -31 110 -31 166c0 168 80 324 149 472c8 18 24 23 42 23c30 0 83 -14 104 -37
c15 -16 28 -37 28 -59c0 -26 -22 -63 -36 -85c-12 -18 -9 -28 -11 -48c-1 -8 -6 -14 -15 -14c-24 0 -24 28 -29 44c-12 34 -10 57 -10 92c0 5 -2 13 -8 13c-5 0 -7 -6 -9 -10c-12 -25 -23 -51 -33 -76c-44 -109 -79 -218 -79 -339c0 -40 2 -85 12 -125c3 -12 10 -21 24 -21
c19 0 36 17 47 31c36 47 67 104 67 164c0 18 -8 27 -25 27c-6 0 -11 -1 -17 -1c-17 0 -36 6 -49 18c-6 5 -16 16 -16 24c0 9 10 14 16 17c38 19 77 35 115 52l86 41c7 4 15 6 21 6c22 0 51 -23 51 -46zM266 913c29 0 60 -31 60 -74c0 -33 -18 -62 -62 -62
c-37 0 -62 36 -62 72c0 31 17 64 64 64z" />
    <glyph glyph-name="gdotaccent" unicode="&#x121;" horiz-adv-x="347" 
d="M327 398c0 -23 -6 -45 -12 -67c7 -4 8 -10 8 -17c0 -5 -1 -12 -2 -17c-27 -169 -56 -337 -56 -509c0 -18 1 -36 1 -53c0 -16 -9 -30 -26 -30c-25 0 -42 39 -84 39c-8 0 -15 -2 -23 -2s-12 3 -12 11c0 4 0 8 1 11c6 27 8 55 12 82c3 16 1 19 17 26c15 8 19 18 38 18
c11 0 16 -6 21 -6c10 0 11 29 11 41l3 61c3 56 10 112 16 168c-25 -40 -106 -149 -155 -149c-52 0 -75 92 -75 133c0 117 118 223 197 296c17 16 39 32 63 32c38 0 57 -34 57 -68zM258 342c0 5 -2 13 -8 13c-3 0 -5 -1 -7 -2c-76 -38 -141 -103 -171 -184
c-2 -6 -4 -14 -4 -21c0 -9 4 -20 15 -20c7 0 13 3 18 6c63 42 121 117 152 187c3 7 5 14 5 21zM270 660c29 0 60 -31 60 -74c0 -33 -18 -62 -62 -62c-37 0 -62 36 -62 72c0 31 17 64 64 64z" />
    <glyph glyph-name="Gcommaaccent" unicode="&#x122;" horiz-adv-x="443" 
d="M455 387c0 -34 -51 -52 -78 -66c-9 -4 -22 -11 -22 -22c0 -3 2 -6 3 -9c17 -32 26 -61 26 -97c0 -54 -22 -105 -51 -149c-29 -42 -71 -66 -121 -66c-60 0 -127 21 -151 80c-21 53 -31 110 -31 166c0 168 80 324 149 472c8 18 24 23 42 23c30 0 83 -14 104 -37
c15 -16 28 -37 28 -59c0 -26 -22 -63 -36 -85c-12 -18 -9 -28 -11 -48c-1 -8 -6 -14 -15 -14c-24 0 -24 28 -29 44c-12 34 -10 57 -10 92c0 5 -2 13 -8 13c-5 0 -7 -6 -9 -10c-12 -25 -23 -51 -33 -76c-44 -109 -79 -218 -79 -339c0 -40 2 -85 12 -125c3 -12 10 -21 24 -21
c19 0 36 17 47 31c36 47 67 104 67 164c0 18 -8 27 -25 27c-6 0 -11 -1 -17 -1c-17 0 -36 6 -49 18c-6 5 -16 16 -16 24c0 9 10 14 16 17c38 19 77 35 115 52l86 41c7 4 15 6 21 6c22 0 51 -23 51 -46zM126 -245c0 27 49 69 49 113c0 0 -12 14 -12 28c0 8 25 24 51 24
c20 0 43 -20 43 -48c0 -48 -83 -137 -111 -137c-13 0 -20 12 -20 20z" />
    <glyph glyph-name="gcommaaccent" unicode="&#x123;" horiz-adv-x="347" 
d="M327 398c0 -23 -6 -45 -12 -67c7 -4 8 -10 8 -17c0 -5 -1 -12 -2 -17c-27 -169 -56 -337 -56 -509c0 -18 1 -36 1 -53c0 -16 -9 -30 -26 -30c-25 0 -42 39 -84 39c-8 0 -15 -2 -23 -2s-12 3 -12 11c0 4 0 8 1 11c6 27 8 55 12 82c3 16 1 19 17 26c15 8 19 18 38 18
c11 0 16 -6 21 -6c10 0 11 29 11 41l3 61c3 56 10 112 16 168c-25 -40 -106 -149 -155 -149c-52 0 -75 92 -75 133c0 117 118 223 197 296c17 16 39 32 63 32c38 0 57 -34 57 -68zM258 342c0 5 -2 13 -8 13c-3 0 -5 -1 -7 -2c-76 -38 -141 -103 -171 -184
c-2 -6 -4 -14 -4 -21c0 -9 4 -20 15 -20c7 0 13 3 18 6c63 42 121 117 152 187c3 7 5 14 5 21zM305 669c1 -4 2 -9 2 -13c0 -26 -17 -62 -17 -89c0 -20 26 -27 26 -44c0 -9 -8 -19 -27 -19c-39 0 -76 30 -76 70c0 48 39 113 63 113c13 0 26 -10 29 -18z" />
    <glyph glyph-name="Hcircumflex" unicode="&#x124;" horiz-adv-x="472" 
d="M487 323c0 -7 -7 -12 -12 -16c-22 -16 -43 -43 -69 -52c-8 -3 -6 -2 -13 -4c-2 -33 -6 -66 -6 -98c0 -34 9 -66 15 -99c1 -5 1 -10 1 -15c0 -15 -5 -53 -25 -53c-8 0 -15 6 -21 11c-31 29 -45 56 -45 98c0 44 4 89 8 133c-23 -6 -45 -13 -68 -21
c-9 -39 -26 -101 -26 -139c0 -25 10 -46 10 -68c0 -18 -13 -48 -34 -48c-24 0 -36 40 -46 57c-11 20 -19 39 -19 63c0 35 6 72 11 107c-18 2 -36 9 -48 24c-11 13 -45 70 -45 85c0 5 2 9 7 9c10 0 21 -9 34 -9c23 0 55 12 77 17c21 95 48 188 70 283c2 7 3 14 3 21
c0 6 -1 18 -10 18c-7 0 -59 -7 -59 -22c0 -14 31 -33 31 -51c0 -2 0 -3 -1 -5c-40 -51 -87 -106 -139 -145c-6 -5 -12 -8 -20 -8c-17 0 -27 16 -31 30c-8 23 -27 57 -27 80c0 15 6 28 16 39c53 53 113 101 174 145c10 8 23 10 35 10c15 0 29 -3 42 -7c41 -15 70 -92 70 -133
c0 -9 -1 -19 -3 -28c-13 -67 -28 -133 -43 -199l49 11c13 113 35 221 66 330c1 3 2 7 2 10c0 13 -10 20 -10 29c0 3 2 5 5 5c13 0 33 -22 43 -30c8 -8 11 -16 11 -27c0 -8 -1 -16 -3 -24c-20 -91 -33 -184 -42 -278c6 1 7 1 8 1c19 0 77 -13 77 -37zM454 746
c-61 0 -93 69 -124 118c-21 -31 -92 -111 -127 -111c-15 0 -18 17 -18 23c0 28 34 59 61 90c30 35 44 78 72 78c61 0 83 -84 96 -102c15 -21 52 -63 52 -84c0 -6 -4 -12 -12 -12z" />
    <glyph glyph-name="hcircumflex" unicode="&#x125;" horiz-adv-x="347" 
d="M340 140c0 -43 -4 -85 -29 -121c-10 -13 -23 -28 -41 -28c-12 0 -21 8 -29 16c-38 44 -56 98 -56 156c0 15 1 29 3 44c5 30 16 65 16 98c0 0 0 7 -2 7s-5 -8 -7 -15c-26 -85 -49 -173 -72 -260c-3 -9 -7 -28 -19 -28c-25 0 -56 73 -64 93c-15 33 -20 70 -20 106
c0 109 26 213 50 319c-9 0 -25 4 -25 15c0 5 3 11 6 15c35 55 57 92 78 154c2 8 6 17 16 17c24 0 32 -66 32 -85c0 -34 -12 -69 -38 -93c-15 -92 -31 -185 -44 -277c-1 -6 -1 -13 -1 -16s0 -14 4 -14c5 0 8 7 12 14c28 50 45 105 74 153c12 20 32 37 56 37
c48 0 54 -66 54 -101c0 -69 -18 -141 -38 -207c-1 -4 -1 -7 -1 -8c0 -6 4 -11 10 -11c20 0 58 58 68 58c8 0 7 -31 7 -38zM279 760c-61 0 -93 69 -124 118c-21 -31 -92 -111 -127 -111c-15 0 -18 17 -18 23c0 28 34 59 61 90c30 35 44 78 72 78c61 0 83 -84 96 -102
c15 -21 52 -63 52 -84c0 -6 -4 -12 -12 -12z" />
    <glyph glyph-name="Hbar" unicode="&#x126;" horiz-adv-x="472" 
d="M486 308c0 -7 -7 -12 -12 -16c-22 -16 -43 -43 -69 -52c-8 -3 -6 -2 -13 -4c-2 -33 -5 -51 -5 -83c0 -34 9 -66 15 -99c1 -5 1 -10 1 -15c0 -15 -5 -53 -25 -53c-8 0 -15 6 -21 11c-31 29 -45 56 -45 98c0 44 3 74 7 118c-23 -6 -45 -13 -68 -21c-9 -39 -25 -86 -25 -124
c0 -25 10 -46 10 -68c0 -18 -13 -48 -34 -48c-24 0 -36 40 -46 57c-11 20 -19 39 -19 63c0 35 6 72 11 107c-18 2 -37 -6 -49 9c-11 13 -45 70 -45 85c0 5 2 9 7 9c10 0 21 -9 34 -9c23 0 55 12 77 17l20 89c-19 -2 -40 -3 -66 -4c-14 0 -25 39 -25 52c0 28 4 33 20 33
c20 0 35 1 48 1c16 0 29 -1 43 -1c11 43 21 87 31 128c2 7 3 14 3 21c0 6 -1 18 -10 18h-3c-12 -3 -56 -7 -56 -22c0 -14 21 -14 21 -32c0 -2 0 -3 -1 -5c-40 -51 -87 -106 -139 -145c-6 -5 -12 -8 -20 -8c-17 0 -27 16 -31 30c-8 23 -17 38 -17 61c0 15 6 28 16 39
c53 53 113 101 174 145c10 8 23 10 35 10c15 0 29 -3 42 -7c41 -15 70 -92 70 -133c0 -9 -1 -19 -3 -28c-5 -23 -9 -48 -14 -73c13 0 26 1 38 2c12 73 29 145 48 213c1 3 2 7 2 10c0 13 -10 20 -10 29c0 3 2 5 5 5c13 0 33 -22 43 -30c8 -8 11 -16 11 -27
c0 -8 -1 -16 -3 -24c-11 -50 -20 -106 -28 -161c8 3 15 6 23 10c4 3 8 3 14 4c15 0 23 -41 24 -49c0 -36 -33 -47 -72 -50c-1 -16 -3 -32 -4 -47c6 1 7 1 8 1c19 0 77 -13 77 -37zM328 389c-12 -1 -23 -1 -33 -2l-15 -69l49 11c2 20 4 40 7 60h-8z" />
    <glyph glyph-name="hbar" unicode="&#x127;" horiz-adv-x="347" 
d="M144 490h-15c-12 -73 -24 -145 -34 -217c-1 -6 -1 -11 -1 -16c0 -3 0 -14 4 -14c5 0 11 11 12 14c28 50 45 105 74 153c12 20 32 37 56 37c48 0 54 -66 54 -101c0 -69 -14 -142 -38 -207c-1 -3 -1 -5 -1 -8c0 -6 4 -11 10 -11c20 0 58 58 68 58c8 0 7 -31 7 -38
c0 -43 -4 -85 -29 -121c-10 -13 -23 -28 -41 -28c-12 0 -21 8 -29 16c-38 44 -55 98 -55 156c0 15 1 29 2 44c5 32 16 65 16 98c0 0 0 7 -2 7s-7 -13 -7 -15c-27 -85 -49 -173 -72 -260c-3 -9 -8 -28 -19 -28c-25 0 -56 73 -64 93c-15 33 -20 70 -20 106c0 95 19 186 40 278
c-14 -1 -30 -1 -48 -1c-14 0 -20 36 -23 50v8c0 23 7 28 21 28c27 0 42 -2 58 -3c30 49 41 85 61 143c2 8 6 17 16 17c24 0 32 -66 32 -85c0 -26 -7 -53 -22 -75c16 2 32 6 52 11c2 1 5 1 8 1c16 0 23 -41 23 -49c0 -43 -60 -41 -94 -41z" />
    <glyph glyph-name="Igrave" unicode="&#xcc;" horiz-adv-x="293" 
d="M272 501c0 -171 -23 -358 -54 -529c-3 -14 -9 -22 -22 -22c-32 0 -105 87 -129 112c-8 9 -15 19 -15 32c0 16 16 60 37 60c23 0 27 -42 45 -42c8 0 10 11 11 17c4 28 7 56 11 84c9 59 19 118 29 177c11 70 22 141 22 213c0 13 4 65 -15 65c-18 0 -42 -39 -42 -56
c0 -3 1 -6 2 -10c4 -18 8 -35 8 -54c0 -40 -31 -170 -47 -208c-4 -9 -10 -19 -22 -19c-8 0 -15 5 -20 11c-14 15 -23 35 -36 52c-8 11 -15 24 -15 38c0 27 67 166 83 197c-5 6 -14 15 -14 23c0 9 9 12 17 12c4 0 9 -2 13 -4c18 32 36 78 79 78c79 0 74 -175 74 -227z
M135 824c-51 68 -95 89 -95 106c0 13 34 34 63 34c24 0 29 -18 71 -84c14 -23 58 -85 58 -103c0 -6 -4 -11 -12 -11c-50 0 -61 26 -85 58z" />
    <glyph glyph-name="igrave" unicode="&#xec;" horiz-adv-x="240" 
d="M240 179c0 -64 -24 -135 -76 -175c-12 -9 -27 -16 -42 -16c-40 0 -59 53 -71 84c-13 33 -19 67 -19 103c0 40 7 79 13 118c1 5 1 10 1 16c0 36 -32 58 -32 75c0 15 33 37 44 46c10 8 21 13 33 13c26 0 49 -19 48 -46l-1 -6c-4 -82 -22 -163 -32 -245c-1 -4 -1 -8 -1 -12
c0 -6 1 -18 9 -18c18 0 89 109 101 128c2 4 10 17 15 17c4 0 5 -10 5 -12c3 -23 5 -47 5 -70zM27 539c-51 68 -95 89 -95 106c0 13 34 34 63 34c24 0 29 -18 71 -84c14 -23 58 -85 58 -103c0 -6 -4 -11 -12 -11c-50 0 -61 26 -85 58z" />
    <glyph glyph-name="Iacute" unicode="&#xcd;" horiz-adv-x="293" 
d="M272 501c0 -171 -23 -358 -54 -529c-3 -14 -9 -22 -22 -22c-32 0 -105 87 -129 112c-8 9 -15 19 -15 32c0 16 16 60 37 60c23 0 27 -42 45 -42c8 0 10 11 11 17c4 28 7 56 11 84c9 59 19 118 29 177c11 70 22 141 22 213c0 13 4 65 -15 65c-18 0 -42 -39 -42 -56
c0 -3 1 -6 2 -10c4 -18 8 -35 8 -54c0 -40 -31 -170 -47 -208c-4 -9 -10 -19 -22 -19c-8 0 -15 5 -20 11c-14 15 -23 35 -36 52c-8 11 -15 24 -15 38c0 27 67 166 83 197c-5 6 -14 15 -14 23c0 9 9 12 17 12c4 0 9 -2 13 -4c18 32 36 78 79 78c79 0 74 -175 74 -227z
M238 892c30 34 49 42 50 61c0 5 2 9 6 9c37 0 51 -63 51 -70c0 -20 -10 -36 -22 -46c-10 -13 -99 -80 -125 -80c-12 0 -17 13 -17 17c0 44 27 77 57 109z" />
    <glyph glyph-name="iacute" unicode="&#xed;" horiz-adv-x="240" 
d="M240 179c0 -64 -24 -135 -76 -175c-12 -9 -27 -16 -42 -16c-40 0 -59 53 -71 84c-13 33 -19 67 -19 103c0 40 7 79 13 118c1 5 1 10 1 16c0 36 -32 58 -32 75c0 15 33 37 44 46c10 8 21 13 33 13c26 0 49 -19 48 -46l-1 -6c-4 -82 -22 -163 -32 -245c-1 -4 -1 -8 -1 -12
c0 -6 1 -18 9 -18c18 0 89 109 101 128c2 4 10 17 15 17c4 0 5 -10 5 -12c3 -23 5 -47 5 -70zM130 607c30 34 49 42 50 61c0 5 2 9 6 9c37 0 51 -63 51 -70c0 -20 -10 -36 -22 -46c-10 -13 -99 -80 -125 -80c-12 0 -17 13 -17 17c0 44 27 77 57 109z" />
    <glyph glyph-name="Icircumflex" unicode="&#xce;" horiz-adv-x="293" 
d="M272 501c0 -171 -23 -358 -54 -529c-3 -14 -9 -22 -22 -22c-32 0 -105 87 -129 112c-8 9 -15 19 -15 32c0 16 16 60 37 60c23 0 27 -42 45 -42c8 0 10 11 11 17c4 28 7 56 11 84c9 59 19 118 29 177c11 70 22 141 22 213c0 13 4 65 -15 65c-18 0 -42 -39 -42 -56
c0 -3 1 -6 2 -10c4 -18 8 -35 8 -54c0 -40 -31 -170 -47 -208c-4 -9 -10 -19 -22 -19c-8 0 -15 5 -20 11c-14 15 -23 35 -36 52c-8 11 -15 24 -15 38c0 27 67 166 83 197c-5 6 -14 15 -14 23c0 9 9 12 17 12c4 0 9 -2 13 -4c18 32 36 78 79 78c79 0 74 -175 74 -227z
M330 766c-61 0 -93 69 -124 118c-21 -31 -92 -111 -127 -111c-15 0 -18 17 -18 23c0 28 34 59 61 90c30 35 44 78 72 78c61 0 83 -84 96 -102c15 -21 52 -63 52 -84c0 -6 -4 -12 -12 -12z" />
    <glyph glyph-name="icircumflex" unicode="&#xee;" horiz-adv-x="240" 
d="M240 179c0 -64 -24 -135 -76 -175c-12 -9 -27 -16 -42 -16c-40 0 -59 53 -71 84c-13 33 -19 67 -19 103c0 40 7 79 13 118c1 5 1 10 1 16c0 36 -32 58 -32 75c0 15 33 37 44 46c10 8 21 13 33 13c26 0 49 -19 48 -46l-1 -6c-4 -82 -22 -163 -32 -245c-1 -4 -1 -8 -1 -12
c0 -6 1 -18 9 -18c18 0 89 109 101 128c2 4 10 17 15 17c4 0 5 -10 5 -12c3 -23 5 -47 5 -70zM222 481c-61 0 -93 69 -124 118c-21 -31 -92 -111 -127 -111c-15 0 -18 17 -18 23c0 28 34 59 61 90c30 35 44 78 72 78c61 0 83 -84 96 -102c15 -21 52 -63 52 -84
c0 -6 -4 -12 -12 -12z" />
    <glyph glyph-name="Idieresis" unicode="&#xcf;" horiz-adv-x="293" 
d="M272 501c0 -171 -23 -358 -54 -529c-3 -14 -9 -22 -22 -22c-32 0 -105 87 -129 112c-8 9 -15 19 -15 32c0 16 16 60 37 60c23 0 27 -42 45 -42c8 0 10 11 11 17c4 28 7 56 11 84c9 59 19 118 29 177c11 70 22 141 22 213c0 13 4 65 -15 65c-18 0 -42 -39 -42 -56
c0 -3 1 -6 2 -10c4 -18 8 -35 8 -54c0 -40 -31 -170 -47 -208c-4 -9 -10 -19 -22 -19c-8 0 -15 5 -20 11c-14 15 -23 35 -36 52c-8 11 -15 24 -15 38c0 27 67 166 83 197c-5 6 -14 15 -14 23c0 9 9 12 17 12c4 0 9 -2 13 -4c18 32 36 78 79 78c79 0 74 -175 74 -227z
M331 878c2 -7 3 -14 3 -20c0 -32 -22 -62 -59 -62c-29 0 -52 24 -52 53c0 25 13 67 59 67c17 0 40 -9 49 -38zM170 879c2 -7 3 -14 3 -21c0 -31 -18 -62 -51 -62c-24 0 -47 28 -47 67c0 27 11 56 47 56c16 0 39 -12 48 -40z" />
    <glyph glyph-name="idieresis" unicode="&#xef;" horiz-adv-x="240" 
d="M240 179c0 -64 -24 -135 -76 -175c-12 -9 -27 -16 -42 -16c-40 0 -59 53 -71 84c-13 33 -19 67 -19 103c0 40 7 79 13 118c1 5 1 10 1 16c0 36 -32 58 -32 75c0 15 33 37 44 46c10 8 21 13 33 13c26 0 49 -19 48 -46l-1 -6c-4 -82 -22 -163 -32 -245c-1 -4 -1 -8 -1 -12
c0 -6 1 -18 9 -18c18 0 89 109 101 128c2 4 10 17 15 17c4 0 5 -10 5 -12c3 -23 5 -47 5 -70zM223 593c2 -7 3 -14 3 -20c0 -32 -22 -62 -59 -62c-29 0 -52 24 -52 53c0 25 13 67 59 67c17 0 40 -9 49 -38zM62 594c2 -7 3 -14 3 -21c0 -31 -18 -62 -51 -62
c-24 0 -47 28 -47 67c0 27 11 56 47 56c16 0 39 -12 48 -40z" />
    <glyph glyph-name="Itilde" unicode="&#x128;" horiz-adv-x="293" 
d="M272 501c0 -171 -23 -358 -54 -529c-3 -14 -9 -22 -22 -22c-32 0 -105 87 -129 112c-8 9 -15 19 -15 32c0 16 16 60 37 60c23 0 27 -42 45 -42c8 0 10 11 11 17c4 28 7 56 11 84c9 59 19 118 29 177c11 70 22 141 22 213c0 13 4 65 -15 65c-18 0 -42 -39 -42 -56
c0 -3 1 -6 2 -10c4 -18 8 -35 8 -54c0 -40 -31 -170 -47 -208c-4 -9 -10 -19 -22 -19c-8 0 -15 5 -20 11c-14 15 -23 35 -36 52c-8 11 -15 24 -15 38c0 27 67 166 83 197c-5 6 -14 15 -14 23c0 9 9 12 17 12c4 0 9 -2 13 -4c18 32 36 78 79 78c79 0 74 -175 74 -227z
M243 861c33 0 35 49 55 49c24 0 36 -36 36 -53c0 -46 -38 -75 -73 -75c-51 0 -87 59 -117 59c-32 0 -27 -60 -64 -60c-10 0 -22 21 -22 42c0 53 49 95 78 95c47 0 81 -57 107 -57z" />
    <glyph glyph-name="itilde" unicode="&#x129;" horiz-adv-x="240" 
d="M240 179c0 -64 -24 -135 -76 -175c-12 -9 -27 -16 -42 -16c-40 0 -59 53 -71 84c-13 33 -19 67 -19 103c0 40 7 79 13 118c1 5 1 10 1 16c0 36 -32 58 -32 75c0 15 33 37 44 46c10 8 21 13 33 13c26 0 49 -19 48 -46l-1 -6c-4 -82 -22 -163 -32 -245c-1 -4 -1 -8 -1 -12
c0 -6 1 -18 9 -18c18 0 89 109 101 128c2 4 10 17 15 17c4 0 5 -10 5 -12c3 -23 5 -47 5 -70zM135 576c33 0 35 49 55 49c24 0 36 -36 36 -53c0 -46 -38 -75 -73 -75c-51 0 -87 59 -117 59c-32 0 -27 -60 -64 -60c-10 0 -22 21 -22 42c0 53 49 95 78 95c47 0 81 -57 107 -57
z" />
    <glyph glyph-name="Imacron" unicode="&#x12a;" horiz-adv-x="293" 
d="M272 501c0 -171 -23 -358 -54 -529c-3 -14 -9 -22 -22 -22c-32 0 -105 87 -129 112c-8 9 -15 19 -15 32c0 16 16 60 37 60c23 0 27 -42 45 -42c8 0 10 11 11 17c4 28 7 56 11 84c9 59 19 118 29 177c11 70 22 141 22 213c0 13 4 65 -15 65c-18 0 -42 -39 -42 -56
c0 -3 1 -6 2 -10c4 -18 8 -35 8 -54c0 -40 -31 -170 -47 -208c-4 -9 -10 -19 -22 -19c-8 0 -15 5 -20 11c-14 15 -23 35 -36 52c-8 11 -15 24 -15 38c0 27 67 166 83 197c-5 6 -14 15 -14 23c0 9 9 12 17 12c4 0 9 -2 13 -4c18 32 36 78 79 78c79 0 74 -175 74 -227z
M231 811c-57 0 -82 -5 -132 -5c-14 0 -20 36 -23 50v8c0 23 7 28 21 28c48 0 57 -5 105 -5c37 0 58 4 92 13c2 1 5 1 8 1c16 0 23 -41 23 -49c0 -43 -60 -41 -94 -41z" />
    <glyph glyph-name="imacron" unicode="&#x12b;" horiz-adv-x="240" 
d="M240 179c0 -64 -24 -135 -76 -175c-12 -9 -27 -16 -42 -16c-40 0 -59 53 -71 84c-13 33 -19 67 -19 103c0 40 7 79 13 118c1 5 1 10 1 16c0 36 -32 58 -32 75c0 15 33 37 44 46c10 8 21 13 33 13c26 0 49 -19 48 -46l-1 -6c-4 -82 -22 -163 -32 -245c-1 -4 -1 -8 -1 -12
c0 -6 1 -18 9 -18c18 0 89 109 101 128c2 4 10 17 15 17c4 0 5 -10 5 -12c3 -23 5 -47 5 -70zM123 526c-57 0 -82 -5 -132 -5c-14 0 -20 36 -23 50v8c0 23 7 28 21 28c48 0 57 -5 105 -5c37 0 58 4 92 13c2 1 5 1 8 1c16 0 23 -41 23 -49c0 -43 -60 -41 -94 -41z" />
    <glyph glyph-name="Ibreve" unicode="&#x12c;" horiz-adv-x="293" 
d="M272 501c0 -171 -23 -358 -54 -529c-3 -14 -9 -22 -22 -22c-32 0 -105 87 -129 112c-8 9 -15 19 -15 32c0 16 16 60 37 60c23 0 27 -42 45 -42c8 0 10 11 11 17c4 28 7 56 11 84c9 59 19 118 29 177c11 70 22 141 22 213c0 13 4 65 -15 65c-18 0 -42 -39 -42 -56
c0 -3 1 -6 2 -10c4 -18 8 -35 8 -54c0 -40 -31 -170 -47 -208c-4 -9 -10 -19 -22 -19c-8 0 -15 5 -20 11c-14 15 -23 35 -36 52c-8 11 -15 24 -15 38c0 27 67 166 83 197c-5 6 -14 15 -14 23c0 9 9 12 17 12c4 0 9 -2 13 -4c18 32 36 78 79 78c79 0 74 -175 74 -227zM53 944
c47 0 63 -89 127 -89c79 0 78 92 125 92c13 0 36 -28 36 -36c0 -28 -43 -135 -126 -135c-100 0 -175 113 -175 150c0 9 4 18 13 18z" />
    <glyph glyph-name="ibreve" unicode="&#x12d;" horiz-adv-x="240" 
d="M240 179c0 -64 -24 -135 -76 -175c-12 -9 -27 -16 -42 -16c-40 0 -59 53 -71 84c-13 33 -19 67 -19 103c0 40 7 79 13 118c1 5 1 10 1 16c0 36 -32 58 -32 75c0 15 33 37 44 46c10 8 21 13 33 13c26 0 49 -19 48 -46l-1 -6c-4 -82 -22 -163 -32 -245c-1 -4 -1 -8 -1 -12
c0 -6 1 -18 9 -18c18 0 89 109 101 128c2 4 10 17 15 17c4 0 5 -10 5 -12c3 -23 5 -47 5 -70zM-55 659c47 0 63 -89 127 -89c79 0 78 92 125 92c13 0 36 -28 36 -36c0 -28 -43 -135 -126 -135c-100 0 -175 113 -175 150c0 9 4 18 13 18z" />
    <glyph glyph-name="Iogonek" unicode="&#x12e;" horiz-adv-x="293" 
d="M80 -165c-2 6 -3 13 -3 22c0 44 22 114 50 141c-25 24 -48 51 -60 64c-8 9 -15 19 -15 32c0 16 16 60 37 60c23 0 27 -42 45 -42c8 0 10 11 11 17c4 28 7 56 11 84c9 59 19 118 29 177c11 70 22 141 22 213c0 13 4 65 -15 65c-18 0 -42 -39 -42 -56c0 -3 1 -6 2 -10
c4 -18 8 -35 8 -54c0 -40 -31 -170 -47 -208c-4 -9 -10 -19 -22 -19c-8 0 -15 5 -20 11c-14 15 -23 35 -36 52c-8 11 -15 24 -15 38c0 27 67 166 83 197c-5 6 -14 15 -14 23c0 9 9 12 17 12c4 0 9 -2 13 -4c18 32 36 78 79 78c79 0 74 -175 74 -227
c0 -171 -24 -361 -54 -529c-3 -12 -9 -22 -22 -22c-32 0 -50 -44 -50 -80c0 -12 4 -22 14 -28c58 0 104 43 135 43c12 0 22 -39 22 -52c-11 -49 -61 -85 -142 -85c-29 0 -81 42 -95 87z" />
    <glyph glyph-name="iogonek" unicode="&#x12f;" horiz-adv-x="240" 
d="M26 -155c-2 6 -3 13 -3 22c0 47 25 124 56 146c-13 18 -22 42 -28 59c-13 33 -19 67 -19 103c0 40 7 79 13 118c1 5 1 10 1 16c0 36 -32 58 -32 75c0 15 33 37 44 46c10 8 21 13 33 13c26 0 49 -19 48 -46l-1 -6c-4 -82 -22 -163 -32 -245c-1 -4 -1 -8 -1 -12
c0 -6 1 -18 9 -18c18 0 89 109 101 128c2 4 10 17 15 17c4 0 5 -10 5 -12c3 -23 5 -47 5 -70c0 -69 -40 -141 -107 -190c-26 -19 -41 -76 -41 -109c0 -12 4 -22 14 -28c58 0 104 43 135 43c12 0 22 -39 22 -52c-11 -49 -61 -85 -142 -85c-29 0 -81 42 -95 87zM205 688
c0 -46 -50 -144 -81 -176c-3 -4 -7 -6 -12 -6c-22 0 -25 23 -25 39c0 41 18 78 35 113c7 15 9 30 11 46c2 10 2 23 16 23c23 0 56 -14 56 -39z" />
    <glyph glyph-name="Idotaccent" unicode="&#x130;" horiz-adv-x="293" 
d="M272 501c0 -171 -23 -358 -54 -529c-3 -14 -9 -22 -22 -22c-32 0 -105 87 -129 112c-8 9 -15 19 -15 32c0 16 16 60 37 60c23 0 27 -42 45 -42c8 0 10 11 11 17c4 28 7 56 11 84c9 59 19 118 29 177c11 70 22 141 22 213c0 13 4 65 -15 65c-18 0 -42 -39 -42 -56
c0 -3 1 -6 2 -10c4 -18 8 -35 8 -54c0 -40 -31 -170 -47 -208c-4 -9 -10 -19 -22 -19c-8 0 -15 5 -20 11c-14 15 -23 35 -36 52c-8 11 -15 24 -15 38c0 27 67 166 83 197c-5 6 -14 15 -14 23c0 9 9 12 17 12c4 0 9 -2 13 -4c18 32 36 78 79 78c79 0 74 -175 74 -227z
M200 922c29 0 60 -31 60 -74c0 -33 -18 -62 -62 -62c-37 0 -62 36 -62 72c0 31 17 64 64 64z" />
    <glyph glyph-name="dotlessi" unicode="&#x131;" horiz-adv-x="240" 
d="M240 179c0 -64 -24 -135 -76 -175c-12 -9 -27 -16 -42 -16c-40 0 -59 53 -71 84c-13 33 -19 67 -19 103c0 40 7 79 13 118c1 5 1 10 1 16c0 36 -32 58 -32 75c0 15 33 37 44 46c10 8 21 13 33 13c26 0 49 -19 48 -46l-1 -6c-4 -82 -22 -163 -32 -245c-1 -4 -1 -8 -1 -12
c0 -6 1 -18 9 -18c18 0 89 109 101 128c2 4 10 17 15 17c4 0 5 -10 5 -12c3 -23 5 -47 5 -70z" />
    <glyph glyph-name="IJ" unicode="&#x132;" horiz-adv-x="719" 
d="M272 501c0 -171 -23 -358 -54 -529c-3 -14 -9 -22 -22 -22c-32 0 -105 87 -129 112c-8 9 -15 19 -15 32c0 16 16 60 37 60c23 0 27 -42 45 -42c8 0 10 11 11 17c4 28 7 56 11 84c9 59 19 118 29 177c11 70 22 141 22 213c0 13 4 65 -15 65c-18 0 -42 -39 -42 -56
c0 -3 1 -6 2 -10c4 -18 8 -35 8 -54c0 -40 -31 -170 -47 -208c-4 -9 -10 -19 -22 -19c-8 0 -15 5 -20 11c-14 15 -23 35 -36 52c-8 11 -15 24 -15 38c0 27 67 166 83 197c-5 6 -14 15 -14 23c0 9 9 12 17 12c4 0 9 -2 13 -4c18 32 36 78 79 78c79 0 74 -175 74 -227z
M869 653c0 -12 -6 -21 -15 -28c-53 -40 -146 -36 -210 -34c-25 -37 -40 -77 -40 -122c0 -15 2 -30 4 -44c14 -78 39 -153 39 -233c0 -16 -1 -33 -4 -49c-9 -57 -25 -130 -89 -147c-28 -8 -57 -12 -86 -12c-54 0 -108 15 -155 42c-21 12 -30 26 -30 49c0 11 1 22 3 33
c2 16 3 37 21 44c52 21 111 32 167 32c11 0 72 1 72 -13c0 -7 -11 -13 -16 -16c-30 -15 -65 -26 -87 -53c20 3 40 8 60 9c79 5 89 88 89 151c0 84 -28 164 -28 247c0 29 4 60 11 84l-149 9c-29 2 -55 8 -58 41c-1 14 -2 28 -2 41c0 14 4 21 18 21c101 0 202 -5 303 -5
c39 0 78 1 117 1c29 0 65 -14 65 -48z" />
    <glyph glyph-name="ij" unicode="&#x133;" horiz-adv-x="424" 
d="M205 688c0 -46 -50 -144 -81 -176c-3 -4 -7 -6 -12 -6c-22 0 -25 23 -25 39c0 41 18 78 35 113c7 15 9 30 11 46c2 10 2 23 16 23c23 0 56 -14 56 -39zM240 179c0 -64 -24 -135 -76 -175c-12 -9 -27 -16 -42 -16c-40 0 -59 53 -71 84c-13 33 -19 67 -19 103
c0 40 7 79 13 118c1 5 1 10 1 16c0 36 -32 58 -32 75c0 15 33 37 44 46c10 8 21 13 33 13c26 0 49 -19 48 -46c0 -76 -21 -151 -33 -251c-1 -9 -1 -10 -1 -14c0 -6 1 -16 9 -16c18 0 89 109 101 128c4 6 10 17 15 17c3 0 5 -10 5 -12c3 -23 5 -47 5 -70zM438 645
c0 -23 -22 -110 -49 -110c-21 0 -32 70 -32 88c0 21 4 44 8 65c2 11 10 16 20 16c31 0 53 -31 53 -59zM403 63c0 -21 -16 -62 -22 -85c-7 -28 -22 -42 -49 -52c-22 -104 -51 -211 -96 -308c-13 -29 -36 -51 -69 -51c-24 0 -44 12 -59 29c-51 54 -78 126 -100 195
c-4 13 -8 27 -8 40s3 24 12 34c71 78 172 130 268 170c23 96 38 193 49 291c5 41 7 81 11 121c1 9 2 21 14 21c26 0 43 -36 43 -58c0 -8 0 -16 -1 -24c-10 -107 -22 -215 -39 -321c9 3 27 11 36 11c8 0 10 -6 10 -13zM243 -102c-8 -3 -16 -6 -23 -10
c-29 -13 -143 -82 -143 -114c0 -20 51 -44 68 -44c15 0 26 11 33 22c29 44 49 96 65 146z" />
    <glyph glyph-name="Jcircumflex" unicode="&#x134;" horiz-adv-x="376" 
d="M526 663c0 -12 -6 -21 -15 -28c-53 -40 -146 -36 -210 -34c-25 -37 -40 -77 -40 -122c0 -15 2 -30 4 -44c14 -78 39 -153 39 -233c0 -16 -1 -33 -4 -49c-9 -57 -25 -130 -89 -147c-28 -8 -57 -12 -86 -12c-54 0 -108 15 -155 42c-21 12 -30 26 -30 49c0 11 1 22 3 33
c2 16 3 37 21 44c52 21 111 32 167 32c11 0 72 1 72 -13c0 -7 -11 -13 -16 -16c-30 -15 -65 -26 -87 -53c20 3 40 8 60 9c79 5 89 88 89 151c0 84 -28 164 -28 247c0 29 4 60 11 84l-149 9c-29 2 -55 8 -58 41c-1 14 -2 28 -2 41c0 14 4 21 18 21c101 0 202 -5 303 -5
c39 0 78 1 117 1c29 0 65 -14 65 -48zM399 749c-61 0 -93 69 -124 118c-21 -31 -92 -111 -127 -111c-15 0 -18 17 -18 23c0 28 34 59 61 90c30 35 44 78 72 78c61 0 83 -84 96 -102c15 -21 52 -63 52 -84c0 -6 -4 -12 -12 -12z" />
    <glyph glyph-name="jcircumflex" unicode="&#x135;" horiz-adv-x="184" 
d="M163 63c0 -21 -17 -62 -22 -85c-8 -28 -22 -42 -49 -52c-22 -104 -51 -211 -96 -308c-13 -29 -36 -51 -69 -51c-24 0 -44 12 -59 29c-51 54 -78 126 -100 195c-4 13 -8 27 -8 40s3 24 12 34c71 78 172 130 268 170c23 96 38 193 49 291c5 41 7 81 11 121c1 9 2 21 14 21
c26 0 43 -36 43 -58c0 -8 0 -16 -1 -24c-10 -107 -22 -215 -39 -321c9 3 27 11 36 11c8 0 10 -6 10 -13zM3 -102c-8 -3 -16 -6 -23 -10c-29 -13 -143 -82 -143 -114c0 -20 51 -44 68 -44c15 0 26 11 33 22c29 44 49 96 65 146zM256 506c-61 0 -93 69 -124 118
c-21 -31 -92 -111 -127 -111c-15 0 -18 17 -18 23c0 28 34 59 61 90c30 35 44 78 72 78c61 0 83 -84 96 -102c15 -21 52 -63 52 -84c0 -6 -4 -12 -12 -12z" />
    <glyph glyph-name="dotlessj" unicode="&#x237;" horiz-adv-x="184" 
d="M163 63c0 -21 -17 -62 -22 -85c-8 -28 -22 -42 -49 -52c-22 -104 -51 -211 -96 -308c-13 -29 -36 -51 -69 -51c-24 0 -44 12 -59 29c-51 54 -78 126 -100 195c-4 13 -8 27 -8 40s3 24 12 34c71 78 172 130 268 170c23 96 38 193 49 291c5 41 7 81 11 121c1 9 2 21 14 21
c26 0 43 -36 43 -58c0 -8 0 -16 -1 -24c-10 -107 -22 -215 -39 -321c9 3 27 11 36 11c8 0 10 -6 10 -13zM3 -102c-8 -3 -16 -6 -23 -10c-29 -13 -143 -82 -143 -114c0 -20 51 -44 68 -44c15 0 26 11 33 22c29 44 49 96 65 146z" />
    <glyph glyph-name="Kcommaaccent" unicode="&#x136;" horiz-adv-x="532" 
d="M572 693c0 -6 -3 -12 -6 -17c-59 -133 -148 -247 -247 -352c-1 -1 -2 -3 -2 -5c0 -4 2 -9 7 -11c9 -2 18 -2 27 -4c38 -10 61 -40 77 -75c16 -37 30 -74 47 -110c4 -10 12 -24 25 -24c12 0 17 10 25 10c15 0 15 -37 15 -46c0 -34 -1 -50 -30 -71c-12 -9 -30 -23 -46 -23
c-17 0 -30 14 -40 26c-61 74 -64 153 -103 234c-5 12 -15 26 -29 26c-27 0 -19 -35 -50 -34c-9 -42 -15 -85 -15 -127c0 -21 2 -41 5 -61c1 -3 1 -6 1 -8c0 -20 -24 -41 -43 -41c-13 0 -24 13 -32 22c-19 20 -14 34 -16 58c-2 23 -4 46 -4 69c0 173 71 313 112 476
c1 4 2 9 2 14c0 12 -5 20 -18 20c-28 0 -24 -19 -24 -38c0 -79 -88 -160 -149 -199c-7 -4 -15 -8 -23 -8c-25 0 -38 51 -38 71c0 13 5 22 13 33c52 69 117 135 189 184c13 9 28 14 44 14c20 0 40 -7 57 -16c30 -16 42 -52 42 -84c0 -43 -38 -148 -52 -193
c71 68 160 223 212 309c0 10 3 25 15 25c14 0 29 -19 40 -27c6 -5 12 -9 12 -17zM240 -245c0 27 49 69 49 113c0 0 -12 14 -12 28c0 8 25 24 51 24c20 0 43 -20 43 -48c0 -48 -83 -137 -111 -137c-13 0 -20 12 -20 20z" />
    <glyph glyph-name="kcommaaccent" unicode="&#x137;" horiz-adv-x="342" 
d="M332 320c0 -92 -80 -122 -149 -156c-3 -2 -7 -4 -7 -9c0 -3 3 -6 5 -8c27 -27 72 -53 110 -58c18 -2 24 0 29 -21c2 -10 -1 -20 2 -30c1 -4 2 -9 2 -13c0 -24 -44 -32 -62 -32c-23 0 -42 10 -57 26c-41 43 -73 94 -106 143v-25c0 -31 2 -61 7 -91c1 -4 2 -9 2 -14
c0 -23 -16 -33 -38 -33c-14 0 -23 6 -29 18c-8 17 -22 74 -22 93c0 26 8 51 10 77c5 61 9 122 15 184c13 127 31 254 52 380c-2 8 -4 16 -4 25c0 6 1 16 10 16c8 0 17 -8 22 -14c24 -24 37 -78 37 -111c0 -13 -2 -25 -4 -38c-15 -92 -34 -183 -45 -276c38 36 76 78 132 78
c63 0 88 -55 88 -111zM256 347c-42 -19 -79 -50 -109 -84c45 14 81 47 109 84zM95 -245c0 27 49 69 49 113c0 0 -12 14 -12 28c0 8 25 24 51 24c20 0 43 -20 43 -48c0 -48 -83 -137 -111 -137c-13 0 -20 12 -20 20z" />
    <glyph glyph-name="kgreenlandic" unicode="&#x138;" horiz-adv-x="342" 
d="M119 323c25 49 69 108 125 108c63 0 88 -55 88 -111c0 -92 -80 -122 -149 -156c-3 -2 -7 -4 -7 -9c0 -3 3 -6 5 -8c27 -27 72 -53 110 -58c18 -2 24 0 29 -21c2 -10 -1 -20 2 -30c1 -4 2 -9 2 -13c0 -24 -44 -32 -62 -32c-23 0 -42 10 -57 26c-41 43 -73 94 -106 143v-25
c0 -31 2 -61 7 -91c1 -4 2 -9 2 -14c0 -23 -16 -33 -38 -33c-14 0 -23 6 -29 18c-8 17 -22 74 -22 93c0 26 8 51 10 77c5 61 5 85 12 143c6 46 9 82 9 131c0 6 1 16 10 16c8 0 17 -8 22 -14c24 -24 41 -69 41 -102c0 -13 -2 -25 -4 -38zM256 347c-61 -8 -96 -54 -109 -84
c45 14 81 47 109 84z" />
    <glyph glyph-name="Lacute" unicode="&#x139;" horiz-adv-x="396" 
d="M385 148c0 -31 -3 -64 -10 -94c-11 -45 -44 -63 -88 -63c-56 0 -109 24 -157 49c-16 -22 -37 -48 -67 -48c-38 0 -123 85 -123 124c0 24 33 34 53 34c29 0 62 -13 90 -22c23 43 36 90 41 138c14 140 38 279 56 418c1 7 4 28 13 28c12 0 31 -36 37 -46v6c0 9 -4 17 -4 25
c0 2 1 4 3 4c3 0 6 -2 9 -4c15 -10 29 -19 44 -28c19 -13 26 -31 29 -53c2 -20 4 -39 4 -59c0 -36 -8 -71 -31 -100c-4 -5 -10 -14 -17 -14c-23 0 -7 46 -27 46c-7 0 -8 -5 -9 -11c-2 -31 -1 -62 -2 -93c-4 -81 -15 -161 -41 -237c-5 -14 -11 -28 -17 -41c17 -3 35 -5 52 -5
c52 0 105 12 140 52c3 4 11 12 16 12c7 0 6 -14 6 -18zM51 83c-3 1 -15 8 -18 8s-3 -4 -3 -6c0 -5 2 -15 8 -15c4 0 11 10 13 13zM276 876c30 34 49 42 50 61c0 5 2 9 6 9c37 0 51 -63 51 -70c0 -20 -10 -36 -22 -46c-10 -13 -99 -80 -125 -80c-12 0 -17 13 -17 17
c0 44 27 77 57 109z" />
    <glyph glyph-name="lacute" unicode="&#x13a;" horiz-adv-x="241" 
d="M241 235c0 -28 -9 -69 -12 -98c-5 -58 -28 -80 -65 -129c-8 -10 -18 -16 -30 -16c-34 0 -55 46 -71 79c-23 45 -35 89 -35 143c0 91 20 183 32 273c-13 0 -23 6 -23 20c0 7 2 14 4 20c13 41 51 141 51 178c0 10 -5 20 -5 30c0 9 5 12 13 12c5 0 9 -1 13 -2
c39 -8 60 -28 60 -69c0 -10 -1 -19 -3 -29c-27 -168 -58 -334 -58 -505c0 -15 5 -29 14 -29c4 0 7 2 11 6c33 41 65 78 81 106c4 7 11 21 17 21s6 -9 6 -11zM172 904c30 34 49 42 50 61c0 5 2 9 6 9c37 0 51 -63 51 -70c0 -20 -10 -36 -22 -46c-10 -13 -99 -80 -125 -80
c-12 0 -17 13 -17 17c0 44 27 77 57 109z" />
    <glyph glyph-name="Lcommaaccent" unicode="&#x13b;" horiz-adv-x="396" 
d="M385 148c0 -31 -3 -64 -10 -94c-11 -45 -44 -63 -88 -63c-56 0 -109 24 -157 49c-16 -22 -37 -48 -67 -48c-38 0 -123 85 -123 124c0 24 33 34 53 34c29 0 62 -13 90 -22c23 43 36 90 41 138c14 140 38 279 56 418c1 7 4 28 13 28c12 0 31 -36 37 -46v6c0 9 -4 17 -4 25
c0 2 1 4 3 4c3 0 6 -2 9 -4c15 -10 29 -19 44 -28c19 -13 26 -31 29 -53c2 -20 4 -39 4 -59c0 -36 -8 -71 -31 -100c-4 -5 -10 -14 -17 -14c-23 0 -7 46 -27 46c-7 0 -8 -5 -9 -11c-2 -31 -1 -62 -2 -93c-4 -81 -15 -161 -41 -237c-5 -14 -11 -28 -17 -41c17 -3 35 -5 52 -5
c52 0 105 12 140 52c3 4 11 12 16 12c7 0 6 -14 6 -18zM51 83c-3 1 -15 8 -18 8s-3 -4 -3 -6c0 -5 2 -15 8 -15c4 0 11 10 13 13zM92 -245c0 27 49 69 49 113c0 0 -12 14 -12 28c0 8 25 24 51 24c20 0 43 -20 43 -48c0 -48 -83 -137 -111 -137c-13 0 -20 12 -20 20z" />
    <glyph glyph-name="lcommaaccent" unicode="&#x13c;" horiz-adv-x="241" 
d="M241 235c0 -28 -9 -69 -12 -98c-5 -58 -28 -80 -65 -129c-8 -10 -18 -16 -30 -16c-34 0 -55 46 -71 79c-23 45 -35 89 -35 143c0 91 20 183 32 273c-13 0 -23 6 -23 20c0 7 2 14 4 20c13 41 51 141 51 178c0 10 -5 20 -5 30c0 9 5 12 13 12c5 0 9 -1 13 -2
c39 -8 60 -28 60 -69c0 -10 -1 -19 -3 -29c-27 -168 -58 -334 -58 -505c0 -15 5 -29 14 -29c4 0 7 2 11 6c33 41 65 78 81 106c4 7 11 21 17 21s6 -9 6 -11zM35 -245c0 27 49 69 49 113c0 0 -12 14 -12 28c0 8 25 24 51 24c20 0 43 -20 43 -48c0 -48 -83 -137 -111 -137
c-13 0 -20 12 -20 20z" />
    <glyph glyph-name="Lcaron" unicode="&#x13d;" horiz-adv-x="396" 
d="M385 148c0 -31 -3 -64 -10 -94c-11 -45 -44 -63 -88 -63c-56 0 -109 24 -157 49c-16 -22 -37 -48 -67 -48c-38 0 -123 85 -123 124c0 24 33 34 53 34c29 0 62 -13 90 -22c23 43 36 90 41 138c14 140 38 279 56 418c1 7 4 28 13 28c12 0 31 -36 37 -46v6c0 9 -4 17 -4 25
c0 2 1 4 3 4c3 0 6 -2 9 -4c15 -10 29 -19 44 -28c19 -13 26 -31 29 -53c2 -20 4 -39 4 -59c0 -36 -8 -71 -31 -100c-4 -5 -10 -14 -17 -14c-23 0 -7 46 -27 46c-7 0 -8 -5 -9 -11c-2 -31 -1 -62 -2 -93c-4 -81 -15 -161 -41 -237c-5 -14 -11 -28 -17 -41c17 -3 35 -5 52 -5
c52 0 105 12 140 52c3 4 11 12 16 12c7 0 6 -14 6 -18zM51 83c-3 1 -15 8 -18 8s-3 -4 -3 -6c0 -5 2 -15 8 -15c4 0 11 10 13 13zM358 517c0 2 -1 4 -1 7c0 28 16 88 16 113s-15 41 -15 57c0 10 9 12 16 12c43 0 73 -52 73 -72c0 -52 -37 -144 -64 -144c-16 0 -22 16 -25 27
z" />
    <glyph glyph-name="lcaron" unicode="&#x13e;" horiz-adv-x="263" 
d="M241 235c0 -28 -9 -69 -12 -98c-5 -58 -28 -80 -65 -129c-8 -10 -18 -16 -30 -16c-34 0 -55 46 -71 79c-23 45 -35 89 -35 143c0 91 20 183 32 273c-13 0 -23 6 -23 20c0 7 2 14 4 20c13 41 51 141 51 178c0 10 -5 20 -5 30c0 9 5 12 13 12c5 0 9 -1 13 -2
c39 -8 60 -28 60 -69c0 -10 -1 -19 -3 -29c-27 -168 -58 -334 -58 -505c0 -15 5 -29 14 -29c4 0 7 2 11 6c33 41 65 78 81 106c4 7 11 21 17 21s6 -9 6 -11zM223 504c-2 6 -3 14 -3 22c0 26 8 59 8 88c0 38 -24 58 -24 74c0 8 11 12 24 12c38 0 85 -41 85 -79
c0 -52 -49 -131 -75 -131c-7 0 -12 5 -15 14z" />
    <glyph glyph-name="Ldot" unicode="&#x13f;" horiz-adv-x="430" 
d="M385 148c0 -31 -3 -64 -10 -94c-11 -45 -44 -63 -88 -63c-56 0 -109 24 -157 49c-16 -22 -37 -48 -67 -48c-38 0 -123 85 -123 124c0 24 33 34 53 34c29 0 62 -13 90 -22c23 43 36 90 41 138c14 140 38 279 56 418c1 7 4 28 13 28c12 0 31 -36 37 -46v6c0 9 -4 17 -4 25
c0 2 1 4 3 4c3 0 7 -3 9 -4c15 -10 29 -19 44 -28c19 -13 26 -31 29 -53c2 -20 4 -39 4 -59c0 -36 -8 -71 -31 -100c-4 -5 -10 -14 -17 -14c-23 0 -7 46 -27 46c-7 0 -8 -5 -9 -11c-2 -31 -1 -62 -2 -93c-4 -81 -15 -161 -41 -237c-5 -14 -11 -28 -17 -41c17 -3 35 -5 52 -5
c52 0 102 15 140 52c3 4 11 12 16 12c7 0 6 -14 6 -18zM51 83c-3 1 -15 8 -18 8s-3 -4 -3 -6c0 -5 2 -15 8 -15c4 0 11 10 13 13zM373 221c-30 0 -50 28 -50 74c0 39 15 81 53 81c22 0 54 -21 54 -78c0 -38 -18 -77 -57 -77z" />
    <glyph glyph-name="ldotaccent" unicode="&#x140;" horiz-adv-x="312" 
d="M239 207c0 -28 -7 -41 -10 -70c-5 -58 -28 -80 -65 -129c-8 -10 -18 -16 -30 -16c-34 0 -55 46 -71 79c-23 45 -35 89 -35 143c0 91 20 183 32 273c-13 0 -23 6 -23 20c0 7 2 14 4 20c13 41 51 141 51 178c0 10 -5 20 -5 30c0 9 5 12 13 12c5 0 9 -1 13 -2
c39 -8 60 -28 60 -69c0 -10 -1 -19 -3 -29c-27 -168 -58 -334 -58 -505c0 -15 5 -29 14 -29c4 0 25 8 29 12c27 24 52 61 61 72c5 6 11 21 17 21s6 -9 6 -11zM235 251c-30 0 -50 28 -50 74c0 39 15 81 53 81c22 0 54 -21 54 -78c0 -38 -18 -77 -57 -77z" />
    <glyph glyph-name="Lslash" unicode="&#x141;" horiz-adv-x="396" 
d="M385 148c0 -31 -3 -64 -10 -94c-11 -45 -44 -63 -88 -63c-56 0 -109 24 -157 49c-16 -22 -37 -48 -67 -48c-38 0 -123 85 -123 124c0 24 33 34 53 34c29 0 62 -13 90 -22c20 37 32 77 38 118c-4 -1 -7 -2 -10 -3c-32 -10 -61 -37 -67 -2c-5 30 10 45 16 47
c10 4 37 13 68 23c14 125 36 249 52 373c1 7 4 28 13 28c12 0 31 -36 37 -46v6c0 9 -4 17 -4 25c0 2 1 4 3 4c3 0 7 -3 9 -4c15 -10 29 -19 44 -28c19 -13 26 -31 29 -53c2 -20 4 -39 4 -59c0 -36 -8 -71 -31 -100c-4 -5 -10 -14 -17 -14c-23 0 -7 46 -27 46
c-7 0 -8 -5 -9 -11c-2 -31 -1 -62 -2 -93l-3 -40c20 7 37 14 49 19c2 6 10 19 17 19c10 1 25 -27 23 -49c-1 -17 -13 -34 -45 -43c-4 -1 -26 -7 -52 -15c-6 -44 -16 -87 -30 -128c-5 -14 -11 -28 -17 -41c17 -3 35 -5 52 -5c52 0 102 15 140 52c3 4 11 12 16 12
c7 0 6 -14 6 -18zM51 83c-3 1 -15 8 -18 8s-3 -4 -3 -6c0 -5 2 -15 8 -15c4 0 11 10 13 13z" />
    <glyph glyph-name="lslash" unicode="&#x142;" horiz-adv-x="241" 
d="M241 235c0 -28 -9 -69 -12 -98c-5 -58 -28 -80 -65 -129c-8 -10 -18 -16 -30 -16c-34 0 -55 46 -71 79c-23 45 -35 89 -35 143c0 18 0 37 2 55c-13 -7 -24 -14 -32 -14c-9 0 -18 12 -18 33c0 19 10 29 14 31l44 21c6 49 15 98 22 147c-13 0 -23 6 -23 20c0 7 2 14 4 20
c13 41 51 141 51 178c0 10 -5 20 -5 30c0 9 5 12 13 12c5 0 9 -1 13 -2c39 -8 60 -28 60 -69c0 -10 -1 -19 -3 -29c-14 -88 -30 -175 -41 -263l21 12c2 6 8 20 15 21c10 0 28 -23 28 -47c0 -28 -8 -34 -73 -61c-5 -56 -8 -111 -8 -167c0 -15 5 -29 14 -29c4 0 7 2 11 6
c33 41 65 78 81 106c4 7 11 21 17 21s6 -9 6 -11z" />
    <glyph glyph-name="Ntilde" unicode="&#xd1;" horiz-adv-x="601" 
d="M591 302c0 -75 -16 -197 -62 -260c-11 -15 -28 -35 -49 -35c-9 0 -14 3 -20 8c-8 6 -17 12 -23 18c-26 28 -33 69 -33 105c0 22 2 43 6 65c22 144 54 287 82 430c-90 -150 -139 -320 -167 -492c-6 -31 -10 -63 -14 -94c-1 -10 -3 -15 -3 -25c0 -6 2 -12 2 -18
c0 -29 -26 -52 -55 -52c-31 0 -69 53 -69 83c0 13 3 25 8 37c2 4 4 7 5 11c3 16 3 33 4 48c4 37 9 74 14 111c16 109 38 218 53 327v10c0 12 -4 24 -18 24c-13 0 -26 -9 -35 -18c2 -4 2 -9 2 -14c0 -13 -4 -24 -9 -36c-34 -80 -64 -156 -95 -238c-7 -17 -17 -36 -38 -36
c-38 0 -67 55 -67 88c0 12 3 23 7 34c25 59 56 117 86 173c17 31 33 64 51 94c5 9 11 14 22 14c5 0 10 -1 14 -2c13 16 32 23 53 23s43 -8 61 -19c31 -19 34 -69 34 -101c0 -49 -8 -98 -11 -147c27 77 84 234 144 289c9 9 19 11 31 11c65 0 68 -26 68 -85
c0 -96 -39 -234 -59 -331c-5 -24 -8 -52 -8 -77c0 -2 -1 -11 3 -11c15 0 67 107 79 107c6 0 6 -17 6 -19zM434 846c33 0 35 49 55 49c24 0 36 -36 36 -53c0 -46 -38 -75 -73 -75c-51 0 -87 59 -117 59c-32 0 -27 -60 -64 -60c-10 0 -22 21 -22 42c0 53 49 95 78 95
c47 0 81 -57 107 -57z" />
    <glyph glyph-name="ntilde" unicode="&#xf1;" horiz-adv-x="351" 
d="M351 222c0 -28 -1 -56 -5 -83c-5 -37 -52 -159 -97 -159c-10 0 -18 6 -25 14c-20 24 -39 53 -50 83c-6 17 -9 34 -9 52c0 13 1 25 3 37c9 49 19 99 26 148c1 6 2 15 2 18c0 2 0 9 -3 9s-7 -6 -8 -8c-56 -98 -65 -205 -74 -315c0 -8 -2 -25 -13 -25c-8 0 -15 7 -20 11
c-36 31 -54 80 -54 126c0 60 11 118 14 177c1 13 7 139 27 139c14 0 17 -45 17 -53c0 -21 1 -45 3 -64c0 -3 1 -11 6 -11c17 0 32 129 101 129c14 0 27 -4 39 -11c35 -18 43 -56 43 -92c0 -18 -2 -35 -5 -52c-6 -38 -9 -63 -14 -107c-1 -9 -2 -19 -2 -21s0 -8 4 -8
c18 0 62 80 85 80c7 0 9 -8 9 -14zM225 580c33 0 35 49 55 49c24 0 36 -36 36 -53c0 -46 -38 -75 -73 -75c-51 0 -87 59 -117 59c-32 0 -27 -60 -64 -60c-10 0 -22 21 -22 42c0 53 49 95 78 95c47 0 81 -57 107 -57z" />
    <glyph glyph-name="Nacute" unicode="&#x143;" horiz-adv-x="601" 
d="M591 302c0 -75 -16 -197 -62 -260c-11 -15 -28 -35 -49 -35c-9 0 -14 3 -20 8c-8 6 -17 12 -23 18c-26 28 -33 69 -33 105c0 22 2 43 6 65c22 144 54 287 82 430c-90 -150 -139 -320 -167 -492c-6 -31 -10 -63 -14 -94c-1 -10 -3 -15 -3 -25c0 -6 2 -12 2 -18
c0 -29 -26 -52 -55 -52c-31 0 -69 53 -69 83c0 13 3 25 8 37c2 4 4 7 5 11c3 16 3 33 4 48c4 37 9 74 14 111c16 109 38 218 53 327v10c0 12 -4 24 -18 24c-13 0 -26 -9 -35 -18c2 -4 2 -9 2 -14c0 -13 -4 -24 -9 -36c-34 -80 -64 -156 -95 -238c-7 -17 -17 -36 -38 -36
c-38 0 -67 55 -67 88c0 12 3 23 7 34c25 59 56 117 86 173c17 31 33 64 51 94c5 9 11 14 22 14c5 0 10 -1 14 -2c13 16 32 23 53 23s43 -8 61 -19c31 -19 34 -69 34 -101c0 -49 -8 -98 -11 -147c27 77 84 234 144 289c9 9 19 11 31 11c65 0 68 -26 68 -85
c0 -96 -39 -234 -59 -331c-5 -24 -8 -52 -8 -77c0 -2 -1 -11 3 -11c15 0 67 107 79 107c6 0 6 -17 6 -19zM429 877c30 34 49 42 50 61c0 5 2 9 6 9c37 0 51 -63 51 -70c0 -20 -10 -36 -22 -46c-10 -13 -99 -80 -125 -80c-12 0 -17 13 -17 17c0 44 27 77 57 109z" />
    <glyph glyph-name="nacute" unicode="&#x144;" horiz-adv-x="351" 
d="M351 222c0 -28 -1 -56 -5 -83c-5 -37 -52 -159 -97 -159c-10 0 -18 6 -25 14c-20 24 -39 53 -50 83c-6 17 -9 34 -9 52c0 13 1 25 3 37c9 49 19 99 26 148c1 6 2 15 2 18c0 2 0 9 -3 9s-7 -6 -8 -8c-56 -98 -65 -205 -74 -315c0 -8 -2 -25 -13 -25c-8 0 -15 7 -20 11
c-36 31 -54 80 -54 126c0 60 11 118 14 177c1 13 7 139 27 139c14 0 17 -45 17 -53c0 -21 1 -45 3 -64c0 -3 1 -11 6 -11c17 0 32 129 101 129c14 0 27 -4 39 -11c35 -18 43 -56 43 -92c0 -18 -2 -35 -5 -52c-6 -38 -9 -63 -14 -107c-1 -9 -2 -19 -2 -21s0 -8 4 -8
c18 0 62 80 85 80c7 0 9 -8 9 -14zM194 611c30 34 49 42 50 61c0 5 2 9 6 9c37 0 51 -63 51 -70c0 -20 -10 -36 -22 -46c-10 -13 -99 -80 -125 -80c-12 0 -17 13 -17 17c0 44 27 77 57 109z" />
    <glyph glyph-name="Ncommaaccent" unicode="&#x145;" horiz-adv-x="601" 
d="M591 302c0 -75 -16 -197 -62 -260c-11 -15 -28 -35 -49 -35c-9 0 -14 3 -20 8c-8 6 -17 12 -23 18c-26 28 -33 69 -33 105c0 22 2 43 6 65c22 144 54 287 82 430c-90 -150 -139 -320 -167 -492c-6 -31 -10 -63 -14 -94c-1 -10 -3 -15 -3 -25c0 -6 2 -12 2 -18
c0 -29 -26 -52 -55 -52c-31 0 -69 53 -69 83c0 13 3 25 8 37c2 4 4 7 5 11c3 16 3 33 4 48c4 37 9 74 14 111c16 109 38 218 53 327v10c0 12 -4 24 -18 24c-13 0 -26 -9 -35 -18c2 -4 2 -9 2 -14c0 -13 -4 -24 -9 -36c-34 -80 -64 -156 -95 -238c-7 -17 -17 -36 -38 -36
c-38 0 -67 55 -67 88c0 12 3 23 7 34c25 59 56 117 86 173c17 31 33 64 51 94c5 9 11 14 22 14c5 0 10 -1 14 -2c13 16 32 23 53 23s43 -8 61 -19c31 -19 34 -69 34 -101c0 -49 -8 -98 -11 -147c27 77 84 234 144 289c9 9 19 11 31 11c65 0 68 -26 68 -85
c0 -96 -39 -234 -59 -331c-5 -24 -8 -52 -8 -77c0 -2 -1 -11 3 -11c15 0 67 107 79 107c6 0 6 -17 6 -19zM280 -245c0 27 49 69 49 113c0 0 -12 14 -12 28c0 8 25 24 51 24c20 0 43 -20 43 -48c0 -48 -83 -137 -111 -137c-13 0 -20 12 -20 20z" />
    <glyph glyph-name="ncommaaccent" unicode="&#x146;" horiz-adv-x="351" 
d="M351 222c0 -28 -1 -56 -5 -83c-5 -37 -52 -159 -97 -159c-10 0 -18 6 -25 14c-20 24 -39 53 -50 83c-6 17 -9 34 -9 52c0 13 1 25 3 37c9 49 19 99 26 148c1 6 2 15 2 18c0 2 0 9 -3 9s-7 -6 -8 -8c-56 -98 -65 -205 -74 -315c0 -8 -2 -25 -13 -25c-8 0 -15 7 -20 11
c-36 31 -54 80 -54 126c0 60 11 118 14 177c1 13 7 139 27 139c14 0 17 -45 17 -53c0 -21 1 -45 3 -64c0 -3 1 -11 6 -11c17 0 32 129 101 129c14 0 27 -4 39 -11c35 -18 43 -56 43 -92c0 -18 -2 -35 -5 -52c-6 -38 -9 -63 -14 -107c-1 -9 -2 -19 -2 -21s0 -8 4 -8
c18 0 62 80 85 80c7 0 9 -8 9 -14zM70 -245c0 27 49 69 49 113c0 0 -12 14 -12 28c0 8 25 24 51 24c20 0 43 -20 43 -48c0 -48 -83 -137 -111 -137c-13 0 -20 12 -20 20z" />
    <glyph glyph-name="Ncaron" unicode="&#x147;" horiz-adv-x="601" 
d="M591 302c0 -75 -16 -197 -62 -260c-11 -15 -28 -35 -49 -35c-9 0 -14 3 -20 8c-8 6 -17 12 -23 18c-26 28 -33 69 -33 105c0 22 2 43 6 65c22 144 54 287 82 430c-90 -150 -139 -320 -167 -492c-6 -31 -10 -63 -14 -94c-1 -10 -3 -15 -3 -25c0 -6 2 -12 2 -18
c0 -29 -26 -52 -55 -52c-31 0 -69 53 -69 83c0 13 3 25 8 37c2 4 4 7 5 11c3 16 3 33 4 48c4 37 9 74 14 111c16 109 38 218 53 327v10c0 12 -4 24 -18 24c-13 0 -26 -9 -35 -18c2 -4 2 -9 2 -14c0 -13 -4 -24 -9 -36c-34 -80 -64 -156 -95 -238c-7 -17 -17 -36 -38 -36
c-38 0 -67 55 -67 88c0 12 3 23 7 34c25 59 56 117 86 173c17 31 33 64 51 94c5 9 11 14 22 14c5 0 10 -1 14 -2c13 16 32 23 53 23s43 -8 61 -19c31 -19 34 -69 34 -101c0 -49 -8 -98 -11 -147c27 77 84 234 144 289c9 9 19 11 31 11c65 0 68 -26 68 -85
c0 -96 -39 -234 -59 -331c-5 -24 -8 -52 -8 -77c0 -2 -1 -11 3 -11c15 0 67 107 79 107c6 0 6 -17 6 -19zM262 949c47 0 84 -69 115 -118c21 31 80 111 115 111c12 0 37 -28 37 -36c0 -19 -32 -45 -59 -77c-30 -35 -42 -78 -72 -78c-35 0 -52 25 -52 24c-1 4 0 7 -2 12
c-5 9 -95 140 -95 155c0 5 5 7 13 7z" />
    <glyph glyph-name="ncaron" unicode="&#x148;" horiz-adv-x="351" 
d="M351 222c0 -28 -1 -56 -5 -83c-5 -37 -52 -159 -97 -159c-10 0 -18 6 -25 14c-20 24 -39 53 -50 83c-6 17 -9 34 -9 52c0 13 1 25 3 37c9 49 19 99 26 148c1 6 2 15 2 18c0 2 0 9 -3 9s-7 -6 -8 -8c-56 -98 -65 -205 -74 -315c0 -8 -2 -25 -13 -25c-8 0 -15 7 -20 11
c-36 31 -54 80 -54 126c0 60 11 118 14 177c1 13 7 139 27 139c14 0 17 -45 17 -53c0 -21 1 -45 3 -64c0 -3 1 -11 6 -11c17 0 32 129 101 129c14 0 27 -4 39 -11c35 -18 43 -56 43 -92c0 -18 -2 -35 -5 -52c-6 -38 -9 -63 -14 -107c-1 -9 -2 -19 -2 -21s0 -8 4 -8
c18 0 62 80 85 80c7 0 9 -8 9 -14zM27 683c47 0 84 -69 115 -118c21 31 80 111 115 111c12 0 37 -28 37 -36c0 -19 -32 -45 -59 -77c-30 -35 -42 -78 -72 -78c-35 0 -52 25 -52 24c-1 4 0 7 -2 12c-5 9 -95 140 -95 155c0 5 5 7 13 7z" />
    <glyph glyph-name="napostrophe" unicode="&#x149;" horiz-adv-x="351" 
d="M351 222c0 -28 -1 -56 -5 -83c-5 -37 -52 -159 -97 -159c-10 0 -18 6 -25 14c-20 24 -39 53 -50 83c-6 17 -9 34 -9 52c0 13 1 25 3 37c9 49 19 99 26 148c1 6 2 15 2 18c0 2 0 9 -3 9s-7 -6 -8 -8c-56 -98 -65 -205 -74 -315c0 -8 -2 -25 -13 -25c-8 0 -15 7 -20 11
c-36 31 -54 80 -54 126c0 60 11 118 14 177c1 13 7 139 27 139c14 0 17 -45 17 -53c0 -21 1 -45 3 -64c0 -3 1 -11 6 -11c17 0 32 129 101 129c14 0 27 -4 39 -11c35 -18 43 -56 43 -92c0 -18 -2 -35 -5 -52c-6 -38 -9 -63 -14 -107c-1 -9 -2 -19 -2 -21s0 -8 4 -8
c18 0 62 80 85 80c7 0 9 -8 9 -14zM-15 548c0 2 -1 4 -1 7c0 28 16 88 16 113s-15 41 -15 57c0 10 9 12 16 12c43 0 73 -52 73 -72c0 -52 -37 -144 -64 -144c-16 0 -22 16 -25 27z" />
    <glyph glyph-name="Eng" unicode="&#x14a;" horiz-adv-x="580" 
d="M428 229c9 55 40 236 64 404c-90 -150 -144 -314 -172 -486c-6 -31 -10 -63 -14 -94c-1 -10 -3 -15 -3 -25c0 -6 2 -12 2 -18c0 -29 -26 -52 -55 -52c-31 0 -69 53 -69 83c0 13 3 25 8 37c2 4 4 7 5 11c3 16 3 33 4 48c4 37 18 102 23 139c16 109 34 184 49 293v10
c0 12 -4 24 -18 24c-13 0 -26 -9 -35 -18c2 -4 2 -9 2 -14c0 -13 -4 -24 -9 -36c-34 -80 -64 -156 -95 -238c-7 -17 -17 -36 -38 -36c-38 0 -67 55 -67 88c0 12 3 23 7 34c25 59 56 117 86 173c17 31 33 64 51 94c5 9 11 14 22 14c5 0 10 -1 14 -2c13 16 32 23 53 23
s43 -8 61 -19c31 -19 34 -69 34 -101c0 -49 -8 -98 -11 -147c27 77 84 234 144 289c9 9 19 11 31 11c65 0 77 -27 68 -85c-13 -84 -42 -372 -90 -597c-22 -105 -44 -181 -86 -274c-13 -29 -56 -51 -89 -51c-14 0 -46 9 -54 23c-30 42 -66 79 -81 133c-4 11 -8 31 5 31
c8 0 24 -16 33 -25c9 -7 46 -19 55 -19c81 0 144 244 165 375z" />
    <glyph glyph-name="eng" unicode="&#x14b;" horiz-adv-x="296" 
d="M81 -106c110 0 115 349 115 438c0 2 0 9 -3 9s-6 -6 -7 -8c-56 -98 -66 -205 -75 -315c0 -8 -2 -25 -13 -25c-8 0 -15 7 -20 11c-36 31 -54 80 -54 126c0 60 11 118 14 177c1 13 7 139 27 139c14 0 17 -45 17 -53c0 -21 3 -42 3 -64c0 -3 1 -11 6 -11
c17 0 32 129 101 129c14 0 27 -4 39 -11c35 -18 43 -56 43 -92c0 -85 -12 -208 -26 -288c-18 -105 -31 -177 -76 -274c-13 -29 -36 -51 -69 -51c-14 0 -26 9 -34 23c-30 42 -46 99 -61 153c-4 11 -8 31 5 31c8 0 24 -16 33 -25c9 -7 26 -19 35 -19z" />
    <glyph glyph-name="Ograve" unicode="&#xd2;" horiz-adv-x="427" 
d="M427 398c0 -55 -19 -99 -60 -137c-21 -78 -51 -164 -95 -232c-18 -27 -42 -49 -77 -49c-19 0 -37 8 -54 18c-44 27 -85 60 -96 113c-10 48 -15 97 -15 145c0 133 39 271 96 390c5 10 12 23 25 23c9 0 37 -14 47 -18c19 44 56 58 102 58c54 0 75 -19 88 -66
c11 -39 14 -82 14 -121c0 -36 -3 -72 -7 -107l24 48c5 -21 8 -43 8 -65zM321 594c0 18 -7 49 -30 49c-10 0 -15 -5 -21 -12c-8 -9 -15 -20 -21 -30c-41 -66 -57 -146 -57 -223c0 -36 23 -104 67 -104c4 0 9 1 13 2c34 102 49 211 49 318zM254 228c-39 10 -79 38 -95 77
c-14 37 -22 77 -22 116c0 21 2 42 6 62c-31 -64 -43 -136 -43 -207c0 -61 7 -128 25 -187c4 -13 13 -30 28 -30c12 0 19 10 24 18c31 44 58 101 77 151zM224 805c-51 68 -95 89 -95 106c0 13 34 34 63 34c24 0 29 -18 71 -84c14 -23 58 -85 58 -103c0 -6 -4 -11 -12 -11
c-50 0 -61 26 -85 58z" />
    <glyph glyph-name="ograve" unicode="&#xf2;" horiz-adv-x="275" 
d="M257 236c0 -77 -24 -153 -70 -215c-15 -19 -37 -32 -62 -32c-16 0 -30 5 -42 15c-51 42 -65 123 -65 185c0 74 25 163 49 232c5 13 7 15 19 15c16 0 14 21 46 21c45 0 81 -29 97 -70c18 -48 28 -100 28 -151zM174 301c0 18 1 92 -23 92c-10 0 -16 -9 -20 -17
c-27 -64 -40 -157 -40 -227c0 -17 0 -33 1 -50c62 48 82 127 82 202zM97 553c-51 68 -95 89 -95 106c0 13 34 34 63 34c24 0 29 -18 71 -84c14 -23 58 -85 58 -103c0 -6 -4 -11 -12 -11c-50 0 -61 26 -85 58z" />
    <glyph glyph-name="Oacute" unicode="&#xd3;" horiz-adv-x="427" 
d="M427 398c0 -55 -19 -99 -60 -137c-21 -78 -51 -164 -95 -232c-18 -27 -42 -49 -77 -49c-19 0 -37 8 -54 18c-44 27 -85 60 -96 113c-10 48 -15 97 -15 145c0 133 39 271 96 390c5 10 12 23 25 23c9 0 37 -14 47 -18c19 44 56 58 102 58c54 0 75 -19 88 -66
c11 -39 14 -82 14 -121c0 -36 -3 -72 -7 -107l24 48c5 -21 8 -43 8 -65zM321 594c0 18 -7 49 -30 49c-10 0 -15 -5 -21 -12c-8 -9 -15 -20 -21 -30c-41 -66 -57 -146 -57 -223c0 -36 23 -104 67 -104c4 0 9 1 13 2c34 102 49 211 49 318zM254 228c-39 10 -79 38 -95 77
c-14 37 -22 77 -22 116c0 21 2 42 6 62c-31 -64 -43 -136 -43 -207c0 -61 7 -128 25 -187c4 -13 13 -30 28 -30c12 0 19 10 24 18c31 44 58 101 77 151zM327 873c30 34 49 42 50 61c0 5 2 9 6 9c37 0 51 -63 51 -70c0 -20 -10 -36 -22 -46c-10 -13 -99 -80 -125 -80
c-12 0 -17 13 -17 17c0 44 27 77 57 109z" />
    <glyph glyph-name="oacute" unicode="&#xf3;" horiz-adv-x="275" 
d="M257 236c0 -77 -24 -153 -70 -215c-15 -19 -37 -32 -62 -32c-16 0 -30 5 -42 15c-51 42 -65 123 -65 185c0 74 25 163 49 232c5 13 7 15 19 15c16 0 14 21 46 21c45 0 81 -29 97 -70c18 -48 28 -100 28 -151zM174 301c0 18 1 92 -23 92c-10 0 -16 -9 -20 -17
c-27 -64 -40 -157 -40 -227c0 -17 0 -33 1 -50c62 48 82 127 82 202zM200 621c30 34 49 42 50 61c0 5 2 9 6 9c37 0 51 -63 51 -70c0 -20 -10 -36 -22 -46c-10 -13 -99 -80 -125 -80c-12 0 -17 13 -17 17c0 44 27 77 57 109z" />
    <glyph glyph-name="Ocircumflex" unicode="&#xd4;" horiz-adv-x="427" 
d="M427 398c0 -55 -19 -99 -60 -137c-21 -78 -51 -164 -95 -232c-18 -27 -42 -49 -77 -49c-19 0 -37 8 -54 18c-44 27 -85 60 -96 113c-10 48 -15 97 -15 145c0 133 39 271 96 390c5 10 12 23 25 23c9 0 37 -14 47 -18c19 44 56 58 102 58c54 0 75 -19 88 -66
c11 -39 14 -82 14 -121c0 -36 -3 -72 -7 -107l24 48c5 -21 8 -43 8 -65zM321 594c0 18 -7 49 -30 49c-10 0 -15 -5 -21 -12c-8 -9 -15 -20 -21 -30c-41 -66 -57 -146 -57 -223c0 -36 23 -104 67 -104c4 0 9 1 13 2c34 102 49 211 49 318zM254 228c-39 10 -79 38 -95 77
c-14 37 -22 77 -22 116c0 21 2 42 6 62c-31 -64 -43 -136 -43 -207c0 -61 7 -128 25 -187c4 -13 13 -30 28 -30c12 0 19 10 24 18c31 44 58 101 77 151zM419 747c-61 0 -93 69 -124 118c-21 -31 -92 -111 -127 -111c-15 0 -18 17 -18 23c0 28 34 59 61 90c30 35 44 78 72 78
c61 0 83 -84 96 -102c15 -21 52 -63 52 -84c0 -6 -4 -12 -12 -12z" />
    <glyph glyph-name="ocircumflex" unicode="&#xf4;" horiz-adv-x="275" 
d="M257 236c0 -77 -24 -153 -70 -215c-15 -19 -37 -32 -62 -32c-16 0 -30 5 -42 15c-51 42 -65 123 -65 185c0 74 25 163 49 232c5 13 7 15 19 15c16 0 14 21 46 21c45 0 81 -29 97 -70c18 -48 28 -100 28 -151zM174 301c0 18 1 92 -23 92c-10 0 -16 -9 -20 -17
c-27 -64 -40 -157 -40 -227c0 -17 0 -33 1 -50c62 48 82 127 82 202zM292 495c-61 0 -93 69 -124 118c-21 -31 -92 -111 -127 -111c-15 0 -18 17 -18 23c0 28 34 59 61 90c30 35 44 78 72 78c61 0 83 -84 96 -102c15 -21 52 -63 52 -84c0 -6 -4 -12 -12 -12z" />
    <glyph glyph-name="Otilde" unicode="&#xd5;" horiz-adv-x="427" 
d="M427 398c0 -55 -19 -99 -60 -137c-21 -78 -51 -164 -95 -232c-18 -27 -42 -49 -77 -49c-19 0 -37 8 -54 18c-44 27 -85 60 -96 113c-10 48 -15 97 -15 145c0 133 39 271 96 390c5 10 12 23 25 23c9 0 37 -14 47 -18c19 44 56 58 102 58c54 0 75 -19 88 -66
c11 -39 14 -82 14 -121c0 -36 -3 -72 -7 -107l24 48c5 -21 8 -43 8 -65zM321 594c0 18 -7 49 -30 49c-10 0 -15 -5 -21 -12c-8 -9 -15 -20 -21 -30c-41 -66 -57 -146 -57 -223c0 -36 23 -104 67 -104c4 0 9 1 13 2c34 102 49 211 49 318zM254 228c-39 10 -79 38 -95 77
c-14 37 -22 77 -22 116c0 21 2 42 6 62c-31 -64 -43 -136 -43 -207c0 -61 7 -128 25 -187c4 -13 13 -30 28 -30c12 0 19 10 24 18c31 44 58 101 77 151zM332 842c33 0 35 49 55 49c24 0 36 -36 36 -53c0 -46 -38 -75 -73 -75c-51 0 -87 59 -117 59c-32 0 -27 -60 -64 -60
c-10 0 -22 21 -22 42c0 53 49 95 78 95c47 0 81 -57 107 -57z" />
    <glyph glyph-name="otilde" unicode="&#xf5;" horiz-adv-x="275" 
d="M257 236c0 -77 -24 -153 -70 -215c-15 -19 -37 -32 -62 -32c-16 0 -30 5 -42 15c-51 42 -65 123 -65 185c0 74 25 163 49 232c5 13 7 15 19 15c16 0 14 21 46 21c45 0 81 -29 97 -70c18 -48 28 -100 28 -151zM174 301c0 18 1 92 -23 92c-10 0 -16 -9 -20 -17
c-27 -64 -40 -157 -40 -227c0 -17 0 -33 1 -50c62 48 82 127 82 202zM205 590c33 0 35 49 55 49c24 0 36 -36 36 -53c0 -46 -38 -75 -73 -75c-51 0 -87 59 -117 59c-32 0 -27 -60 -64 -60c-10 0 -22 21 -22 42c0 53 49 95 78 95c47 0 81 -57 107 -57z" />
    <glyph glyph-name="Odieresis" unicode="&#xd6;" horiz-adv-x="427" 
d="M427 398c0 -55 -19 -99 -60 -137c-21 -78 -51 -164 -95 -232c-18 -27 -42 -49 -77 -49c-19 0 -37 8 -54 18c-44 27 -85 60 -96 113c-10 48 -15 97 -15 145c0 133 39 271 96 390c5 10 12 23 25 23c9 0 37 -14 47 -18c19 44 56 58 102 58c54 0 75 -19 88 -66
c11 -39 14 -82 14 -121c0 -36 -3 -72 -7 -107l24 48c5 -21 8 -43 8 -65zM321 594c0 18 -7 49 -30 49c-10 0 -15 -5 -21 -12c-8 -9 -15 -20 -21 -30c-41 -66 -57 -146 -57 -223c0 -36 23 -104 67 -104c4 0 9 1 13 2c34 102 49 211 49 318zM254 228c-39 10 -79 38 -95 77
c-14 37 -22 77 -22 116c0 21 2 42 6 62c-31 -64 -43 -136 -43 -207c0 -61 7 -128 25 -187c4 -13 13 -30 28 -30c12 0 19 10 24 18c31 44 58 101 77 151zM420 859c2 -7 3 -14 3 -20c0 -32 -22 -62 -59 -62c-29 0 -52 24 -52 53c0 25 13 67 59 67c17 0 40 -9 49 -38zM259 860
c2 -7 3 -14 3 -21c0 -31 -18 -62 -51 -62c-24 0 -47 28 -47 67c0 27 11 56 47 56c16 0 39 -12 48 -40z" />
    <glyph glyph-name="odieresis" unicode="&#xf6;" horiz-adv-x="275" 
d="M257 236c0 -77 -24 -153 -70 -215c-15 -19 -37 -32 -62 -32c-16 0 -30 5 -42 15c-51 42 -65 123 -65 185c0 74 25 163 49 232c5 13 7 15 19 15c16 0 14 21 46 21c45 0 81 -29 97 -70c18 -48 28 -100 28 -151zM174 301c0 18 1 92 -23 92c-10 0 -16 -9 -20 -17
c-27 -64 -40 -157 -40 -227c0 -17 0 -33 1 -50c62 48 82 127 82 202zM293 607c2 -7 3 -14 3 -20c0 -32 -22 -62 -59 -62c-29 0 -52 24 -52 53c0 25 13 67 59 67c17 0 40 -9 49 -38zM132 608c2 -7 3 -14 3 -21c0 -31 -18 -62 -51 -62c-24 0 -47 28 -47 67c0 27 11 56 47 56
c16 0 39 -12 48 -40z" />
    <glyph glyph-name="Omacron" unicode="&#x14c;" horiz-adv-x="427" 
d="M427 398c0 -55 -19 -99 -60 -137c-21 -78 -51 -164 -95 -232c-18 -27 -42 -49 -77 -49c-19 0 -37 8 -54 18c-44 27 -85 60 -96 113c-10 48 -15 97 -15 145c0 133 39 271 96 390c5 10 12 23 25 23c9 0 37 -14 47 -18c19 44 56 58 102 58c54 0 75 -19 88 -66
c11 -39 14 -82 14 -121c0 -36 -3 -72 -7 -107l24 48c5 -21 8 -43 8 -65zM321 594c0 18 -7 49 -30 49c-10 0 -15 -5 -21 -12c-8 -9 -15 -20 -21 -30c-41 -66 -57 -146 -57 -223c0 -36 23 -104 67 -104c4 0 9 1 13 2c34 102 49 211 49 318zM254 228c-39 10 -79 38 -95 77
c-14 37 -22 77 -22 116c0 21 2 42 6 62c-31 -64 -43 -136 -43 -207c0 -61 7 -128 25 -187c4 -13 13 -30 28 -30c12 0 19 10 24 18c31 44 58 101 77 151zM320 792c-57 0 -82 -5 -132 -5c-14 0 -20 36 -23 50v8c0 23 7 28 21 28c48 0 57 -5 105 -5c37 0 58 4 92 13
c2 1 5 1 8 1c16 0 23 -41 23 -49c0 -43 -60 -41 -94 -41z" />
    <glyph glyph-name="omacron" unicode="&#x14d;" horiz-adv-x="275" 
d="M257 236c0 -77 -24 -153 -70 -215c-15 -19 -37 -32 -62 -32c-16 0 -30 5 -42 15c-51 42 -65 123 -65 185c0 74 25 163 49 232c5 13 7 15 19 15c16 0 14 21 46 21c45 0 81 -29 97 -70c18 -48 28 -100 28 -151zM174 301c0 18 1 92 -23 92c-10 0 -16 -9 -20 -17
c-27 -64 -40 -157 -40 -227c0 -17 0 -33 1 -50c62 48 82 127 82 202zM193 540c-57 0 -82 -5 -132 -5c-14 0 -20 36 -23 50v8c0 23 7 28 21 28c48 0 57 -5 105 -5c37 0 58 4 92 13c2 1 5 1 8 1c16 0 23 -41 23 -49c0 -43 -60 -41 -94 -41z" />
    <glyph glyph-name="Obreve" unicode="&#x14e;" horiz-adv-x="427" 
d="M427 398c0 -55 -19 -99 -60 -137c-21 -78 -51 -164 -95 -232c-18 -27 -42 -49 -77 -49c-19 0 -37 8 -54 18c-44 27 -85 60 -96 113c-10 48 -15 97 -15 145c0 133 39 271 96 390c5 10 12 23 25 23c9 0 37 -14 47 -18c19 44 56 58 102 58c54 0 75 -19 88 -66
c11 -39 14 -82 14 -121c0 -36 -3 -72 -7 -107l24 48c5 -21 8 -43 8 -65zM321 594c0 18 -7 49 -30 49c-10 0 -15 -5 -21 -12c-8 -9 -15 -20 -21 -30c-41 -66 -57 -146 -57 -223c0 -36 23 -104 67 -104c4 0 9 1 13 2c34 102 49 211 49 318zM254 228c-39 10 -79 38 -95 77
c-14 37 -22 77 -22 116c0 21 2 42 6 62c-31 -64 -43 -136 -43 -207c0 -61 7 -128 25 -187c4 -13 13 -30 28 -30c12 0 19 10 24 18c31 44 58 101 77 151zM142 925c47 0 63 -89 127 -89c79 0 78 92 125 92c13 0 36 -28 36 -36c0 -28 -43 -135 -126 -135
c-100 0 -175 113 -175 150c0 9 4 18 13 18z" />
    <glyph glyph-name="obreve" unicode="&#x14f;" horiz-adv-x="275" 
d="M257 236c0 -77 -24 -153 -70 -215c-15 -19 -37 -32 -62 -32c-16 0 -30 5 -42 15c-51 42 -65 123 -65 185c0 74 25 163 49 232c5 13 7 15 19 15c16 0 14 21 46 21c45 0 81 -29 97 -70c18 -48 28 -100 28 -151zM174 301c0 18 1 92 -23 92c-10 0 -16 -9 -20 -17
c-27 -64 -40 -157 -40 -227c0 -17 0 -33 1 -50c62 48 82 127 82 202zM15 673c47 0 63 -89 127 -89c79 0 78 92 125 92c13 0 36 -28 36 -36c0 -28 -43 -135 -126 -135c-100 0 -175 113 -175 150c0 9 4 18 13 18z" />
    <glyph glyph-name="Ohungarumlaut" unicode="&#x150;" horiz-adv-x="427" 
d="M427 398c0 -55 -19 -99 -60 -137c-21 -78 -51 -164 -95 -232c-18 -27 -42 -49 -77 -49c-19 0 -37 8 -54 18c-44 27 -85 60 -96 113c-10 48 -15 97 -15 145c0 133 39 271 96 390c5 10 12 23 25 23c9 0 37 -14 47 -18c19 44 56 58 102 58c54 0 75 -19 88 -66
c11 -39 14 -82 14 -121c0 -36 -3 -72 -7 -107l24 48c5 -21 8 -43 8 -65zM321 594c0 18 -7 49 -30 49c-10 0 -15 -5 -21 -12c-8 -9 -15 -20 -21 -30c-41 -66 -57 -146 -57 -223c0 -36 23 -104 67 -104c4 0 9 1 13 2c34 102 49 211 49 318zM254 228c-39 10 -79 38 -95 77
c-14 37 -22 77 -22 116c0 21 2 42 6 62c-31 -64 -43 -136 -43 -207c0 -61 7 -128 25 -187c4 -13 13 -30 28 -30c12 0 19 10 24 18c31 44 58 101 77 151zM226 868c18 33 28 46 28 61c0 3 -1 6 -1 9c0 5 5 6 9 6c29 0 52 -40 55 -50c2 -6 3 -12 3 -18c0 -14 -6 -26 -14 -36
c-7 -16 -71 -93 -92 -93c-16 0 -19 20 -19 30c0 28 15 63 31 91zM374 873c25 28 23 60 39 60c38 0 51 -63 51 -70c0 -20 -10 -36 -22 -46c-10 -13 -82 -70 -108 -70c-12 0 -17 13 -17 17c0 44 27 77 57 109z" />
    <glyph glyph-name="ohungarumlaut" unicode="&#x151;" horiz-adv-x="275" 
d="M257 236c0 -77 -24 -153 -70 -215c-15 -19 -37 -32 -62 -32c-16 0 -30 5 -42 15c-51 42 -65 123 -65 185c0 74 25 163 49 232c5 13 7 15 19 15c16 0 14 21 46 21c45 0 81 -29 97 -70c18 -48 28 -100 28 -151zM174 301c0 18 1 92 -23 92c-10 0 -16 -9 -20 -17
c-27 -64 -40 -157 -40 -227c0 -17 0 -33 1 -50c62 48 82 127 82 202zM99 616c18 33 28 46 28 61c0 3 -1 6 -1 9c0 5 5 6 9 6c29 0 52 -40 55 -50c2 -6 3 -12 3 -18c0 -14 -6 -26 -14 -36c-7 -16 -71 -93 -92 -93c-16 0 -19 20 -19 30c0 28 15 63 31 91zM247 621
c25 28 23 60 39 60c38 0 51 -63 51 -70c0 -20 -10 -36 -22 -46c-10 -13 -82 -70 -108 -70c-12 0 -17 13 -17 17c0 44 27 77 57 109z" />
    <glyph glyph-name="Oslash" unicode="&#xd8;" horiz-adv-x="417" 
d="M459 755c3 -8 7 -18 7 -30c0 -6 -1 -12 -3 -19c-13 -36 -36 -78 -64 -124c2 -20 3 -41 3 -60c0 -136 -42 -360 -130 -493c-18 -27 -42 -49 -77 -49c-19 0 -37 8 -54 18c-22 13 -42 27 -59 45c-19 -48 -33 -96 -39 -144c-1 -11 1 -24 -12 -24c-39 0 -47 84 -47 90
c0 10 3 18 8 30c14 39 32 79 52 121c-10 46 -14 93 -14 140c0 133 39 271 96 390c5 10 12 23 25 23c9 0 37 -14 47 -18c19 44 56 58 102 58h5c36 -1 57 -11 71 -35l57 90c2 4 6 12 13 12c9 0 7 -1 13 -21zM177 77c71 100 115 231 134 369c-67 -101 -141 -211 -195 -324
c2 -12 5 -22 9 -33c4 -13 13 -30 28 -30c12 0 19 10 24 18zM176 378c-47 12 -39 69 -33 105c-31 -64 -43 -136 -43 -207c0 -16 0 -33 1 -49c67 121 146 247 220 362v5c0 18 -7 49 -30 49c-40 0 -92 -133 -102 -175c-3 -12 -10 -43 -13 -90z" />
    <glyph glyph-name="oslash" unicode="&#xf8;" horiz-adv-x="261" 
d="M253 521c10 -1 18 -61 17 -70c-1 -3 0 -6 -2 -9l-47 -73c14 -43 22 -88 22 -133c0 -77 -24 -153 -70 -215c-15 -19 -37 -32 -62 -32c-16 0 -30 5 -42 15c-11 8 -20 19 -27 30c-18 -43 -30 -83 -33 -116c-1 -10 0 -20 -1 -28c-1 -4 -3 -7 -8 -6c-19 2 -49 55 -49 71
c0 10 4 26 7 32l56 113c-7 30 -10 61 -10 89c0 74 25 163 49 232c5 13 7 15 19 15c16 0 14 21 46 21c30 0 56 -13 74 -34l51 90c1 2 5 9 10 8zM137 398c-34 0 -54 -104 -62 -183l85 152c-4 20 -11 31 -23 31zM74 79c70 47 91 125 92 199c-32 -54 -66 -115 -94 -174
c1 -10 1 -19 2 -25z" />
    <glyph glyph-name="Oslashacute" unicode="&#x1fe;" horiz-adv-x="417" 
d="M459 755c3 -8 7 -18 7 -30c0 -6 -1 -12 -3 -19c-13 -36 -36 -78 -64 -124c2 -20 3 -41 3 -60c0 -136 -42 -360 -130 -493c-18 -27 -42 -49 -77 -49c-19 0 -37 8 -54 18c-22 13 -42 27 -59 45c-19 -48 -33 -96 -39 -144c-1 -11 1 -24 -12 -24c-39 0 -47 84 -47 90
c0 10 3 18 8 30c14 39 32 79 52 121c-10 46 -14 93 -14 140c0 133 39 271 96 390c5 10 12 23 25 23c9 0 37 -14 47 -18c19 44 56 58 102 58h5c36 -1 57 -11 71 -35l57 90c2 4 6 12 13 12c9 0 7 -1 13 -21zM177 77c71 100 115 231 134 369c-67 -101 -141 -211 -195 -324
c2 -12 5 -22 9 -33c4 -13 13 -30 28 -30c12 0 19 10 24 18zM176 378c-47 12 -39 69 -33 105c-31 -64 -43 -136 -43 -207c0 -16 0 -33 1 -49c67 121 146 247 220 362v5c0 18 -7 49 -30 49c-40 0 -92 -133 -102 -175c-3 -12 -10 -43 -13 -90zM326 873c30 34 49 42 50 61
c0 5 2 9 6 9c37 0 51 -63 51 -70c0 -20 -10 -36 -22 -46c-10 -13 -99 -80 -125 -80c-12 0 -17 13 -17 17c0 44 27 77 57 109z" />
    <glyph glyph-name="oslashacute" unicode="&#x1ff;" horiz-adv-x="261" 
d="M253 521c10 -1 18 -61 17 -70c-1 -3 0 -6 -2 -9l-47 -73c14 -43 22 -88 22 -133c0 -77 -24 -153 -70 -215c-15 -19 -37 -32 -62 -32c-16 0 -30 5 -42 15c-11 8 -20 19 -27 30c-18 -43 -30 -83 -33 -116c-1 -10 0 -20 -1 -28c-1 -4 -3 -7 -8 -6c-19 2 -49 55 -49 71
c0 10 4 26 7 32l56 113c-7 30 -10 61 -10 89c0 74 25 163 49 232c5 13 7 15 19 15c16 0 14 21 46 21c30 0 56 -13 74 -34l51 90c1 2 5 9 10 8zM137 398c-34 0 -54 -104 -62 -183l85 152c-4 20 -11 31 -23 31zM74 79c70 47 91 125 92 199c-32 -54 -66 -115 -94 -174
c1 -10 1 -19 2 -25zM149 621c30 34 49 42 50 61c0 5 2 9 6 9c37 0 51 -63 51 -70c0 -20 -10 -36 -22 -46c-10 -13 -99 -80 -125 -80c-12 0 -17 13 -17 17c0 44 27 77 57 109z" />
    <glyph glyph-name="OE" unicode="&#x152;" horiz-adv-x="703" 
d="M703 640c0 -34 -123 -85 -153 -97c-3 -1 -5 -2 -8 -2c-5 0 -6 4 -6 8c0 8 7 30 10 39c-72 -38 -109 -44 -144 -125c-3 -6 -6 -13 -6 -20c0 -37 129 -33 156 -34c9 5 24 15 34 15c18 0 36 -21 47 -33c14 -15 21 -38 21 -58c0 -10 -5 -12 -13 -12c-12 0 -26 4 -37 6
c-105 -31 -185 -45 -253 -141c-16 -22 -26 -52 -26 -80c0 -43 24 -72 69 -72s165 20 165 80c0 14 -6 38 -23 38c-28 0 -146 -81 -155 -81c-4 0 -6 4 -6 8c0 7 4 14 7 21c34 65 103 107 179 107c59 0 117 -43 117 -105c0 -21 -7 -41 -20 -58c-49 -64 -156 -80 -232 -80
c-62 0 -114 21 -150 71c-2 -2 -3 -4 -4 -6c-18 -27 -42 -49 -77 -49c-19 0 -37 8 -54 18c-44 27 -85 60 -96 113c-10 48 -15 97 -15 145c0 133 39 271 96 390c5 10 12 23 25 23c9 0 37 -14 47 -18c19 44 56 58 107 58c49 -1 70 -19 83 -66c5 -18 6 -37 6 -56
c54 45 118 76 177 113c9 6 18 10 28 10c19 0 34 -13 46 -27c6 1 12 2 17 2c16 0 26 -6 33 -20c3 -7 8 -17 8 -25zM210 266c-45 24 -73 109 -73 155c0 21 2 42 6 62c-31 -64 -43 -136 -43 -207c0 -61 7 -128 25 -187c4 -13 13 -30 28 -30c12 0 19 10 24 18
c96 136 144 345 144 517c0 18 -7 49 -30 49c-10 0 -15 -5 -21 -12c-8 -9 -15 -20 -21 -30c-41 -66 -57 -146 -57 -223c0 -42 41 -124 18 -112zM383 395c-3 -19 -6 -38 -10 -58c21 11 43 20 66 28c-22 7 -41 17 -56 30z" />
    <glyph glyph-name="oe" unicode="&#x153;" horiz-adv-x="518" 
d="M498 132c0 -104 -53 -152 -154 -152c-73 0 -106 35 -128 87c-9 -16 -18 -32 -29 -46c-15 -19 -37 -32 -62 -32c-16 0 -30 5 -42 15c-51 42 -65 123 -65 185c0 74 25 163 49 232c5 13 7 15 19 15c16 0 14 21 46 21c45 0 81 -29 97 -70c10 -27 18 -55 22 -84
c9 12 17 23 25 32c1 15 4 55 25 55c7 0 13 -6 15 -13c22 20 71 55 101 55c38 0 79 -47 79 -84c0 -47 -82 -133 -118 -161c-13 -10 -28 -17 -44 -17c-29 0 -42 29 -50 53c-15 -27 -41 -67 -41 -98c0 -27 15 -41 41 -41c97 0 153 44 210 115c2 -22 4 -45 4 -67zM174 301
c0 18 1 92 -23 92c-10 0 -16 -9 -20 -17c-27 -64 -40 -157 -40 -227c0 -17 0 -33 1 -50c62 48 82 127 82 202zM414 348c0 6 -3 12 -10 12c-17 0 -66 -57 -77 -71c-1 -6 -2 -12 -2 -18c0 -7 1 -18 10 -18c22 0 79 73 79 95z" />
    <glyph glyph-name="Thorn" unicode="&#xde;" horiz-adv-x="436" 
d="M223 629l-3 -18c9 1 18 2 26 2c122 0 200 -84 200 -187c0 -122 -67 -249 -211 -249c-21 0 -51 4 -67 19c0 -47 3 -89 9 -139c0 -5 1 -10 1 -15c0 -24 -10 -38 -31 -49c-11 -6 -25 -12 -38 -12c-20 0 -31 18 -40 33c-28 45 -44 100 -56 151c-2 5 -3 11 -3 17
c0 5 1 13 7 13c15 0 64 -70 77 -70c7 0 6 15 6 18c0 6 -1 60 10 228c2 32 5 65 8 97c-2 -2 -4 -5 -6 -8c-16 -21 -38 -43 -65 -43c-26 0 -33 22 -33 43c0 37 13 75 46 93c20 12 47 24 75 35c8 54 18 108 27 163c-2 8 -4 16 -4 25c0 6 1 16 10 16c8 0 17 -8 22 -14
c24 -24 37 -78 37 -111c0 -13 -2 -25 -4 -38zM180 359c21 25 53 32 84 32c4 0 15 0 15 -5c0 -3 -8 -4 -10 -4c-33 0 -68 0 -68 -41c0 -26 7 -48 37 -48c7 0 13 1 19 2c88 19 136 64 136 155c0 61 -69 81 -134 81c-18 0 -37 -3 -55 -9c-9 -54 -18 -107 -24 -163z" />
    <glyph glyph-name="thorn" unicode="&#xfe;" horiz-adv-x="331" 
d="M18 -61c0 131 9 256 19 357c-10 13 -22 20 -22 29c0 14 24 15 29 43c6 50 12 91 16 119c-13 0 -23 6 -23 20c0 7 2 14 4 20c13 41 51 141 51 178c0 10 -5 20 -5 30c0 9 5 12 13 12c5 0 9 -1 13 -2c39 -8 60 -28 60 -69c0 -10 -1 -19 -3 -29c-12 -74 -37 -163 -54 -248
c22 15 47 22 60 22c80 0 140 -97 140 -169c0 -16 -2 -32 -5 -48c-16 -69 -38 -139 -96 -184c-11 -9 -26 -18 -41 -18c-49 0 -55 94 -55 129c0 10 2 72 12 72s5 -52 39 -52c11 0 20 8 25 18c18 32 46 102 46 138c0 14 -8 22 -22 22c-10 0 -20 -4 -29 -8
c-18 -7 -58 -41 -75 -81c-37 -90 -41 -158 -41 -307c0 -38 3 -74 5 -87c1 -8 3 -15 3 -23c0 -16 -16 -34 -32 -34c-34 0 -32 127 -32 150z" />
    <glyph glyph-name="Racute" unicode="&#x154;" horiz-adv-x="460" 
d="M460 544c0 -114 -117 -185 -205 -229c43 -23 66 -70 66 -123c0 -12 -1 -26 -1 -43c0 -24 1 -69 36 -69c51 0 81 42 92 42c7 0 8 -7 8 -12c0 -27 -28 -72 -44 -93c-15 -18 -35 -31 -59 -31c-65 0 -104 91 -104 146c0 18 2 36 2 53c0 53 0 79 -50 103l-32 -15
c-7 -52 -13 -103 -13 -156c0 -29 1 -58 1 -87c0 -14 -2 -37 -21 -37c-9 0 -17 5 -24 9c-51 32 -74 88 -86 144c-1 5 -1 6 -1 8c0 8 6 9 12 9c39 0 41 -34 51 -34c8 0 9 12 9 17c0 16 -4 32 -4 47c2 110 11 216 25 321c3 20 5 39 11 58c1 5 2 9 2 14c0 3 0 7 -1 10
c-22 -6 -40 -12 -56 -28c-8 -8 -17 -14 -29 -14c-29 0 -37 25 -49 46c-4 9 -6 16 -6 25c0 13 0 52 18 52c8 0 15 -4 24 -4c11 0 21 3 31 6c57 18 119 34 179 34c96 0 218 -59 218 -169zM380 566c0 39 -97 48 -125 48c-19 0 -37 -1 -56 -4c-4 -16 -3 -32 -3 -49
c0 -59 -5 -118 -12 -177c78 29 147 90 190 162c3 6 6 13 6 20zM285 877c30 34 49 42 50 61c0 5 2 9 6 9c37 0 51 -63 51 -70c0 -20 -10 -36 -22 -46c-10 -13 -99 -80 -125 -80c-12 0 -17 13 -17 17c0 44 27 77 57 109z" />
    <glyph glyph-name="racute" unicode="&#x155;" horiz-adv-x="307" 
d="M326 192c0 -36 -8 -62 -28 -92c-28 -41 -68 -113 -125 -113c-44 0 -63 46 -80 78c-13 24 -19 47 -19 73c0 56 24 117 38 171c-7 -9 -32 -34 -40 -41c-5 -4 -12 -8 -21 -8c-8 0 -16 6 -20 12c-9 12 -31 75 -31 90c0 24 27 51 35 76c2 8 6 18 15 18c7 0 13 -4 19 -7
c17 -10 26 -24 30 -44c1 -5 3 -12 9 -12c10 0 22 22 45 22c19 0 44 -20 57 -32c12 -12 12 -25 12 -41c0 -44 -14 -33 -20 -51s-51 -177 -51 -186c0 -4 1 -10 6 -10c12 0 128 103 145 119c4 3 12 11 17 11c9 0 7 -26 7 -33zM172 616c30 34 49 42 50 61c0 5 2 9 6 9
c37 0 51 -63 51 -70c0 -20 -10 -36 -22 -46c-10 -13 -99 -80 -125 -80c-12 0 -17 13 -17 17c0 44 27 77 57 109z" />
    <glyph glyph-name="Rcommaaccent" unicode="&#x156;" horiz-adv-x="460" 
d="M460 544c0 -114 -117 -185 -205 -229c43 -23 66 -70 66 -123c0 -12 -1 -26 -1 -43c0 -24 1 -69 36 -69c51 0 81 42 92 42c7 0 8 -7 8 -12c0 -27 -28 -72 -44 -93c-15 -18 -35 -31 -59 -31c-65 0 -104 91 -104 146c0 18 2 36 2 53c0 53 0 79 -50 103l-32 -15
c-7 -52 -13 -103 -13 -156c0 -29 1 -58 1 -87c0 -14 -2 -37 -21 -37c-9 0 -17 5 -24 9c-51 32 -74 88 -86 144c-1 5 -1 6 -1 8c0 8 6 9 12 9c39 0 41 -34 51 -34c8 0 9 12 9 17c0 16 -4 32 -4 47c2 110 11 216 25 321c3 20 5 39 11 58c1 5 2 9 2 14c0 3 0 7 -1 10
c-22 -6 -40 -12 -56 -28c-8 -8 -17 -14 -29 -14c-29 0 -37 25 -49 46c-4 9 -6 16 -6 25c0 13 0 52 18 52c8 0 15 -4 24 -4c11 0 21 3 31 6c57 18 119 34 179 34c96 0 218 -59 218 -169zM380 566c0 39 -97 48 -125 48c-19 0 -37 -1 -56 -4c-4 -16 -3 -32 -3 -49
c0 -59 -5 -118 -12 -177c78 29 147 90 190 162c3 6 6 13 6 20zM134 -245c0 27 49 69 49 113c0 0 -12 14 -12 28c0 8 25 24 51 24c20 0 43 -20 43 -48c0 -48 -83 -137 -111 -137c-13 0 -20 12 -20 20z" />
    <glyph glyph-name="rcommaaccent" unicode="&#x157;" horiz-adv-x="307" 
d="M326 192c0 -36 -8 -62 -28 -92c-28 -41 -68 -113 -125 -113c-44 0 -63 46 -80 78c-13 24 -19 47 -19 73c0 56 24 117 38 171c-7 -9 -32 -34 -40 -41c-5 -4 -12 -8 -21 -8c-8 0 -16 6 -20 12c-9 12 -31 75 -31 90c0 24 27 51 35 76c2 8 6 18 15 18c7 0 13 -4 19 -7
c17 -10 26 -24 30 -44c1 -5 3 -12 9 -12c10 0 22 22 45 22c19 0 44 -20 57 -32c12 -12 12 -25 12 -41c0 -44 -14 -33 -20 -51s-51 -177 -51 -186c0 -4 1 -10 6 -10c12 0 128 103 145 119c4 3 12 11 17 11c9 0 7 -26 7 -33zM38 -245c0 27 49 69 49 113c0 0 -12 14 -12 28
c0 8 25 24 51 24c20 0 43 -20 43 -48c0 -48 -83 -137 -111 -137c-13 0 -20 12 -20 20z" />
    <glyph glyph-name="Rcaron" unicode="&#x158;" horiz-adv-x="460" 
d="M460 544c0 -114 -117 -185 -205 -229c43 -23 66 -70 66 -123c0 -12 -1 -26 -1 -43c0 -24 1 -69 36 -69c51 0 81 42 92 42c7 0 8 -7 8 -12c0 -27 -28 -72 -44 -93c-15 -18 -35 -31 -59 -31c-65 0 -104 91 -104 146c0 18 2 36 2 53c0 53 0 79 -50 103l-32 -15
c-7 -52 -13 -103 -13 -156c0 -29 1 -58 1 -87c0 -14 -2 -37 -21 -37c-9 0 -17 5 -24 9c-51 32 -74 88 -86 144c-1 5 -1 6 -1 8c0 8 6 9 12 9c39 0 41 -34 51 -34c8 0 9 12 9 17c0 16 -4 32 -4 47c2 110 11 216 25 321c3 20 5 39 11 58c1 5 2 9 2 14c0 3 0 7 -1 10
c-22 -6 -40 -12 -56 -28c-8 -8 -17 -14 -29 -14c-29 0 -37 25 -49 46c-4 9 -6 16 -6 25c0 13 0 52 18 52c8 0 15 -4 24 -4c11 0 21 3 31 6c57 18 119 34 179 34c96 0 218 -59 218 -169zM380 566c0 39 -97 48 -125 48c-19 0 -37 -1 -56 -4c-4 -16 -3 -32 -3 -49
c0 -59 -5 -118 -12 -177c78 29 147 90 190 162c3 6 6 13 6 20zM118 949c47 0 84 -69 115 -118c21 31 80 111 115 111c12 0 37 -28 37 -36c0 -19 -32 -45 -59 -77c-30 -35 -42 -78 -72 -78c-35 0 -52 25 -52 24c-1 4 0 7 -2 12c-5 9 -95 140 -95 155c0 5 5 7 13 7z" />
    <glyph glyph-name="rcaron" unicode="&#x159;" horiz-adv-x="307" 
d="M326 192c0 -36 -8 -62 -28 -92c-28 -41 -68 -113 -125 -113c-44 0 -63 46 -80 78c-13 24 -19 47 -19 73c0 56 24 117 38 171c-7 -9 -32 -34 -40 -41c-5 -4 -12 -8 -21 -8c-8 0 -16 6 -20 12c-9 12 -31 75 -31 90c0 24 27 51 35 76c2 8 6 18 15 18c7 0 13 -4 19 -7
c17 -10 26 -24 30 -44c1 -5 3 -12 9 -12c10 0 22 22 45 22c19 0 44 -20 57 -32c12 -12 12 -25 12 -41c0 -44 -14 -33 -20 -51s-51 -177 -51 -186c0 -4 1 -10 6 -10c12 0 128 103 145 119c4 3 12 11 17 11c9 0 7 -26 7 -33zM25 688c47 0 84 -69 115 -118
c21 31 80 111 115 111c12 0 37 -28 37 -36c0 -19 -32 -45 -59 -77c-30 -35 -42 -78 -72 -78c-35 0 -52 25 -52 24c-1 4 0 7 -2 12c-5 9 -95 140 -95 155c0 5 5 7 13 7z" />
    <glyph glyph-name="Sacute" unicode="&#x15a;" horiz-adv-x="419" 
d="M444 625c0 -8 -4 -12 -10 -19c-30 -34 -76 -78 -110 -107c-6 -5 -14 -12 -21 -12c-9 0 -10 9 -10 16c0 27 27 59 27 70c0 4 -2 5 -5 5c-2 0 -5 -1 -8 -2c-65 -23 -128 -66 -160 -129c-5 -10 -10 -21 -10 -33c0 -24 21 -38 40 -49c48 -28 143 -71 176 -113
c20 -25 40 -66 40 -98c0 -25 -16 -57 -37 -70c-90 -56 -194 -105 -301 -105c-43 0 -70 21 -70 64c0 14 5 28 14 40c-11 8 -24 21 -24 36c0 16 15 31 27 40c53 40 144 48 206 48c22 0 55 -19 70 -33c11 6 25 14 25 27c0 9 -7 15 -13 20c-33 25 -97 46 -136 68
c-59 33 -87 100 -87 166c0 138 162 209 272 249c7 2 15 4 22 4c16 0 28 -6 39 -18c11 -13 44 -49 44 -65zM210 136c-5 1 -10 2 -16 2c-19 0 -95 -17 -95 -39c0 -4 3 -6 7 -6c19 0 86 33 104 43zM357 870c30 34 49 42 50 61c0 5 2 9 6 9c37 0 51 -63 51 -70
c0 -20 -10 -36 -22 -46c-10 -13 -99 -80 -125 -80c-12 0 -17 13 -17 17c0 44 27 77 57 109z" />
    <glyph glyph-name="sacute" unicode="&#x15b;" horiz-adv-x="322" 
d="M322 381c0 -35 -34 -71 -70 -71c-25 0 -47 14 -57 38c-1 3 -3 6 -8 6c-4 0 -60 -24 -68 -28c-4 -2 -12 -6 -12 -11c0 -7 10 -9 14 -11c71 -19 178 -57 178 -147c0 -24 -9 -47 -23 -66c-44 -60 -116 -92 -186 -92c-54 0 -75 41 -75 90c0 7 0 14 1 21c2 25 12 42 32 56
c18 12 50 29 72 29c2 0 7 0 7 -3c0 -5 -10 -10 -15 -13c-17 -10 -51 -38 -51 -53c0 -11 16 -11 24 -11c44 0 88 14 126 36c6 3 14 10 14 16c0 9 -11 15 -18 18c-47 23 -99 38 -147 61c-20 10 -33 24 -33 47c0 17 8 32 10 48c3 19 10 37 28 46c39 20 79 38 118 56
c11 5 24 7 36 7c35 0 103 -28 103 -69zM231 614c30 34 49 42 50 61c0 5 2 9 6 9c37 0 51 -63 51 -70c0 -20 -10 -36 -22 -46c-10 -13 -99 -80 -125 -80c-12 0 -17 13 -17 17c0 44 27 77 57 109z" />
    <glyph glyph-name="Scircumflex" unicode="&#x15c;" horiz-adv-x="419" 
d="M444 625c0 -8 -4 -12 -10 -19c-30 -34 -76 -78 -110 -107c-6 -5 -14 -12 -21 -12c-9 0 -10 9 -10 16c0 27 27 59 27 70c0 4 -2 5 -5 5c-2 0 -5 -1 -8 -2c-65 -23 -128 -66 -160 -129c-5 -10 -10 -21 -10 -33c0 -24 21 -38 40 -49c48 -28 143 -71 176 -113
c20 -25 40 -66 40 -98c0 -25 -16 -57 -37 -70c-90 -56 -194 -105 -301 -105c-43 0 -70 21 -70 64c0 14 5 28 14 40c-11 8 -24 21 -24 36c0 16 15 31 27 40c53 40 144 48 206 48c22 0 55 -19 70 -33c11 6 25 14 25 27c0 9 -7 15 -13 20c-33 25 -97 46 -136 68
c-59 33 -87 100 -87 166c0 138 162 209 272 249c7 2 15 4 22 4c16 0 28 -6 39 -18c11 -13 44 -49 44 -65zM210 136c-5 1 -10 2 -16 2c-19 0 -95 -17 -95 -39c0 -4 3 -6 7 -6c19 0 86 33 104 43zM449 744c-61 0 -93 69 -124 118c-21 -31 -92 -111 -127 -111
c-15 0 -18 17 -18 23c0 28 34 59 61 90c30 35 44 78 72 78c61 0 83 -84 96 -102c15 -21 52 -63 52 -84c0 -6 -4 -12 -12 -12z" />
    <glyph glyph-name="scircumflex" unicode="&#x15d;" horiz-adv-x="322" 
d="M322 381c0 -35 -34 -71 -70 -71c-25 0 -47 14 -57 38c-1 3 -3 6 -8 6c-4 0 -60 -24 -68 -28c-4 -2 -12 -6 -12 -11c0 -7 10 -9 14 -11c71 -19 178 -57 178 -147c0 -24 -9 -47 -23 -66c-44 -60 -116 -92 -186 -92c-54 0 -75 41 -75 90c0 7 0 14 1 21c2 25 12 42 32 56
c18 12 50 29 72 29c2 0 7 0 7 -3c0 -5 -10 -10 -15 -13c-17 -10 -51 -38 -51 -53c0 -11 16 -11 24 -11c44 0 88 14 126 36c6 3 14 10 14 16c0 9 -11 15 -18 18c-47 23 -99 38 -147 61c-20 10 -33 24 -33 47c0 17 8 32 10 48c3 19 10 37 28 46c39 20 79 38 118 56
c11 5 24 7 36 7c35 0 103 -28 103 -69zM323 488c-61 0 -93 69 -124 118c-21 -31 -92 -111 -127 -111c-15 0 -18 17 -18 23c0 28 34 59 61 90c30 35 44 78 72 78c61 0 83 -84 96 -102c15 -21 52 -63 52 -84c0 -6 -4 -12 -12 -12z" />
    <glyph glyph-name="Scedilla" unicode="&#x15e;" horiz-adv-x="419" 
d="M227 -151c-10 30 -134 22 -134 105c0 9 1 18 4 28c-14 -2 -28 -3 -42 -3c-43 0 -70 21 -70 64c0 14 5 28 14 40c-11 8 -24 21 -24 36c0 16 15 31 27 40c53 40 144 48 206 48c22 0 55 -19 70 -33c11 6 25 14 25 27c0 9 -7 15 -13 20c-33 25 -97 46 -136 68
c-59 33 -87 100 -87 166c0 138 162 209 272 249c7 2 15 4 22 4c16 0 28 -6 39 -18c11 -13 44 -49 44 -65c0 -8 -4 -12 -10 -19c-30 -34 -76 -78 -110 -107c-6 -5 -14 -12 -21 -12c-9 0 -10 9 -10 16c0 27 27 59 27 70c0 4 -2 5 -5 5c-2 0 -5 -1 -8 -2
c-65 -23 -128 -66 -160 -129c-5 -10 -10 -21 -10 -33c0 -24 21 -38 40 -49c48 -28 143 -71 176 -113c20 -25 40 -66 40 -98c0 -25 -16 -57 -37 -70c-59 -37 -124 -71 -191 -89c-5 -8 -10 -17 -10 -27c0 -40 138 -7 138 -117c0 -90 -71 -120 -148 -120c-33 0 -60 1 -60 58
c0 19 8 33 21 33c7 0 6 -8 11 -8c82 6 110 22 110 33v2zM210 136c-5 1 -10 2 -16 2c-19 0 -95 -17 -95 -39c0 -4 3 -6 7 -6c19 0 86 33 104 43z" />
    <glyph glyph-name="scedilla" unicode="&#x15f;" horiz-adv-x="322" 
d="M199 -141c-10 30 -134 22 -134 105c0 11 2 25 7 36c-41 8 -57 46 -57 89c0 7 0 14 1 21c2 25 12 42 32 56c18 12 50 29 72 29c2 0 7 0 7 -3c0 -5 -10 -10 -15 -13c-17 -10 -51 -38 -51 -53c0 -11 16 -11 24 -11c44 0 88 14 126 36c6 3 14 10 14 16c0 9 -11 15 -18 18
c-47 23 -99 38 -147 61c-20 10 -33 24 -33 47c0 17 8 32 10 48c3 19 10 37 28 46c39 20 79 38 118 56c11 5 24 7 36 7c35 0 103 -28 103 -69c0 -35 -34 -71 -70 -71c-25 0 -47 14 -57 38c-1 3 -3 6 -8 6c-4 0 -60 -24 -68 -28c-4 -2 -12 -6 -12 -11c0 -7 10 -9 14 -11
c71 -19 178 -57 178 -147c0 -24 -9 -47 -23 -66c-35 -47 -86 -76 -140 -87c-5 -7 -9 -16 -9 -26c0 -40 138 -7 138 -117c0 -90 -71 -120 -148 -120c-33 0 -60 1 -60 58c0 19 8 33 21 33c7 0 6 -8 11 -8c82 6 110 22 110 33v2z" />
    <glyph glyph-name="Scaron" unicode="&#x160;" horiz-adv-x="419" 
d="M444 625c0 -8 -4 -12 -10 -19c-30 -34 -76 -78 -110 -107c-6 -5 -14 -12 -21 -12c-9 0 -10 9 -10 16c0 27 27 59 27 70c0 4 -2 5 -5 5c-2 0 -5 -1 -8 -2c-65 -23 -128 -66 -160 -129c-5 -10 -10 -21 -10 -33c0 -24 21 -38 40 -49c48 -28 143 -71 176 -113
c20 -25 40 -66 40 -98c0 -25 -16 -57 -37 -70c-90 -56 -194 -105 -301 -105c-43 0 -70 21 -70 64c0 14 5 28 14 40c-11 8 -24 21 -24 36c0 16 15 31 27 40c53 40 144 48 206 48c22 0 55 -19 70 -33c11 6 25 14 25 27c0 9 -7 15 -13 20c-33 25 -97 46 -136 68
c-59 33 -87 100 -87 166c0 138 162 209 272 249c7 2 15 4 22 4c16 0 28 -6 39 -18c11 -13 44 -49 44 -65zM210 136c-5 1 -10 2 -16 2c-19 0 -95 -17 -95 -39c0 -4 3 -6 7 -6c19 0 86 33 104 43zM190 942c47 0 84 -69 115 -118c21 31 80 111 115 111c12 0 37 -28 37 -36
c0 -19 -32 -45 -59 -77c-30 -35 -42 -78 -72 -78c-35 0 -52 25 -52 24c-1 4 0 7 -2 12c-5 9 -95 140 -95 155c0 5 5 7 13 7z" />
    <glyph glyph-name="scaron" unicode="&#x161;" horiz-adv-x="322" 
d="M322 381c0 -35 -34 -71 -70 -71c-25 0 -47 14 -57 38c-1 3 -3 6 -8 6c-4 0 -60 -24 -68 -28c-4 -2 -12 -6 -12 -11c0 -7 10 -9 14 -11c71 -19 178 -57 178 -147c0 -24 -9 -47 -23 -66c-44 -60 -116 -92 -186 -92c-54 0 -75 41 -75 90c0 7 0 14 1 21c2 25 12 42 32 56
c18 12 50 29 72 29c2 0 7 0 7 -3c0 -5 -10 -10 -15 -13c-17 -10 -51 -38 -51 -53c0 -11 16 -11 24 -11c44 0 88 14 126 36c6 3 14 10 14 16c0 9 -11 15 -18 18c-47 23 -99 38 -147 61c-20 10 -33 24 -33 47c0 17 8 32 10 48c3 19 10 37 28 46c39 20 79 38 118 56
c11 5 24 7 36 7c35 0 103 -28 103 -69zM64 686c47 0 84 -69 115 -118c21 31 80 111 115 111c12 0 37 -28 37 -36c0 -19 -32 -45 -59 -77c-30 -35 -42 -78 -72 -78c-35 0 -52 25 -52 24c-1 4 0 7 -2 12c-5 9 -95 140 -95 155c0 5 5 7 13 7z" />
    <glyph glyph-name="Tcommaaccent" unicode="&#x162;" horiz-adv-x="381" 
d="M551 695c0 -13 -9 -27 -18 -36c-65 -71 -144 -97 -237 -96c-33 -127 -34 -273 -46 -405c-1 -10 -1 -13 -1 -18c0 -33 10 -66 17 -98c1 -4 1 -7 1 -10c0 -19 -13 -29 -30 -29c-46 0 -79 67 -96 102c-6 11 -10 23 -10 36c0 5 1 15 8 15c14 0 26 -32 34 -32c3 0 3 7 3 8
c0 27 -3 53 -3 79c0 121 19 241 60 355c-17 2 -35 5 -52 5c-93 0 -93 -60 -174 -81c-7 -2 -15 -3 -22 -3c-48 0 -36 39 -43 71c-1 5 -2 9 -2 14c0 12 7 20 15 27c68 60 169 76 257 76c22 0 44 -1 66 -3l8 18l13 -19h19c72 0 138 15 206 38c4 1 7 2 11 2c10 0 16 -6 16 -16z
M125 -245c0 27 49 69 49 113c0 0 -12 14 -12 28c0 8 25 24 51 24c20 0 43 -20 43 -48c0 -48 -83 -137 -111 -137c-13 0 -20 12 -20 20z" />
    <glyph glyph-name="tcommaaccent" unicode="&#x163;" horiz-adv-x="269" 
d="M274 404c0 -12 -3 -22 -13 -30c-26 -23 -76 -35 -110 -40c-6 -57 -10 -115 -10 -173c0 -7 -3 -48 9 -48s73 64 82 64c16 0 17 -49 17 -60c0 -40 -20 -143 -73 -143c-43 0 -69 58 -90 88c-15 21 -27 43 -29 70s-3 54 -3 82c0 38 2 75 6 113c-44 1 -68 33 -90 87
c-2 6 -5 12 -5 19c0 10 6 13 15 13c28 0 50 -6 96 -6c9 53 21 105 31 157c1 7 2 15 2 22c0 6 -2 12 -2 19c0 11 8 16 19 16c21 0 69 -30 69 -52c0 -13 -12 -40 -14 -56c-6 -36 -12 -71 -17 -106c23 0 57 4 79 4c25 0 31 -19 31 -40zM69 -245c0 27 49 69 49 113
c0 0 -12 14 -12 28c0 8 25 24 51 24c20 0 43 -20 43 -48c0 -48 -83 -137 -111 -137c-13 0 -20 12 -20 20z" />
    <glyph glyph-name="Tcaron" unicode="&#x164;" horiz-adv-x="381" 
d="M551 695c0 -13 -9 -27 -18 -36c-65 -71 -144 -97 -237 -96c-33 -127 -34 -273 -46 -405c-1 -10 -1 -13 -1 -18c0 -33 10 -66 17 -98c1 -4 1 -7 1 -10c0 -19 -13 -29 -30 -29c-46 0 -79 67 -96 102c-6 11 -10 23 -10 36c0 5 1 15 8 15c14 0 26 -32 34 -32c3 0 3 7 3 8
c0 27 -3 53 -3 79c0 121 19 241 60 355c-17 2 -35 5 -52 5c-93 0 -93 -60 -174 -81c-7 -2 -15 -3 -22 -3c-48 0 -36 39 -43 71c-1 5 -2 9 -2 14c0 12 7 20 15 27c68 60 169 76 257 76c22 0 44 -1 66 -3l8 18l13 -19h19c72 0 138 15 206 38c4 1 7 2 11 2c10 0 16 -6 16 -16z
M148 909c47 0 84 -69 115 -118c21 31 80 111 115 111c12 0 37 -28 37 -36c0 -19 -32 -45 -59 -77c-30 -35 -42 -78 -72 -78c-35 0 -52 25 -52 24c-1 4 0 7 -2 12c-5 9 -95 140 -95 155c0 5 5 7 13 7z" />
    <glyph glyph-name="tcaron" unicode="&#x165;" horiz-adv-x="269" 
d="M274 404c0 -12 -3 -22 -13 -30c-26 -23 -76 -35 -110 -40c-6 -57 -10 -115 -10 -173c0 -7 -3 -48 9 -48s73 64 82 64c16 0 17 -49 17 -60c0 -40 -20 -143 -73 -143c-43 0 -69 58 -90 88c-15 21 -27 43 -29 70s-3 54 -3 82c0 38 2 75 6 113c-44 1 -68 33 -90 87
c-2 6 -5 12 -5 19c0 10 6 13 15 13c28 0 50 -6 96 -6c9 53 21 105 31 157c1 7 2 15 2 22c0 6 -2 12 -2 19c0 11 8 16 19 16c21 0 69 -30 69 -52c0 -13 -12 -40 -14 -56c-6 -36 -12 -71 -17 -106c23 0 57 4 79 4c25 0 31 -19 31 -40zM235 504c-2 6 -3 14 -3 22
c0 26 8 59 8 88c0 38 -24 58 -24 74c0 8 11 12 24 12c38 0 85 -41 85 -79c0 -52 -49 -131 -75 -131c-7 0 -12 5 -15 14z" />
    <glyph glyph-name="Tbar" unicode="&#x166;" horiz-adv-x="381" 
d="M278 330h-17c-4 -60 -7 -120 -11 -176c-1 -5 -1 -9 -1 -14c0 -33 10 -66 17 -98c1 -4 1 -7 1 -10c0 -19 -13 -29 -30 -29c-46 0 -80 66 -96 102c-6 11 -10 23 -10 36c0 5 1 15 8 15c14 0 26 -32 34 -32c3 0 3 7 3 8c0 27 -3 53 -3 79c0 39 2 78 6 116
c-28 -1 -55 -2 -90 -2c-20 0 -28 36 -33 50v8c0 23 10 28 30 28c50 0 70 -3 104 -4c10 54 24 107 43 159c-17 2 -35 5 -52 5c-93 0 -93 -60 -174 -81c-7 -2 -15 -3 -22 -3c-48 0 -36 39 -43 71c-1 5 -2 9 -2 14c0 12 7 20 15 27c68 60 169 76 257 76c22 0 44 -1 66 -3l8 18
l13 -19h19c72 0 138 15 206 38c4 1 7 2 11 2c10 0 16 -6 16 -16c0 -13 -10 -26 -18 -36c-65 -68 -144 -97 -237 -96c-13 -50 -21 -103 -27 -157c34 2 61 6 100 13c3 1 8 1 11 1c23 0 33 -41 33 -49c0 -43 -86 -41 -135 -41z" />
    <glyph glyph-name="tbar" unicode="&#x167;" horiz-adv-x="269" 
d="M276 412c0 -12 -3 -22 -13 -30c-26 -23 -76 -35 -110 -40c-2 -21 -5 -43 -7 -66c19 2 36 6 58 12c2 1 5 1 8 1c16 0 23 -41 23 -49c0 -43 -60 -41 -94 -41v-38c0 -7 -3 -48 9 -48s73 50 82 50c16 0 17 -49 17 -60c0 -40 -20 -129 -73 -129c-43 0 -69 58 -90 88
c-15 21 -27 43 -29 70c-2 21 -3 41 -3 63c-14 -1 -28 -1 -45 -1c-14 0 -20 36 -23 50v8c0 23 7 28 21 28c22 0 36 -1 49 -2c2 19 4 39 6 57c-44 1 -68 33 -90 87c-2 6 -5 12 -5 19c0 10 6 13 15 13c28 0 50 -6 96 -6c9 53 19 97 29 149c1 7 2 15 2 22c0 6 -2 12 -2 19
c0 11 8 16 19 16c21 0 69 -30 69 -52c0 -13 -12 -40 -14 -56c-6 -36 -10 -63 -15 -98c23 0 57 4 79 4c25 0 31 -19 31 -40z" />
    <glyph glyph-name="Ugrave" unicode="&#xd9;" horiz-adv-x="563" 
d="M563 202c0 -53 -48 -185 -112 -185c-34 0 -63 32 -70 63c-17 80 -22 163 -33 244c-20 -78 -36 -157 -58 -235c-11 -38 -36 -88 -83 -88c-37 0 -68 24 -75 60c-9 42 -12 85 -12 127c0 128 35 247 73 368c2 6 3 13 3 20c0 4 -1 11 -6 11c-4 0 -8 -4 -11 -7
c-44 -47 -64 -107 -93 -169c-7 -15 -18 -29 -37 -29c-33 0 -49 52 -49 79c0 16 6 28 17 40c53 59 94 124 133 193l14 -11c10 3 19 7 29 7c4 0 8 -1 11 -2c56 -18 97 -17 97 -90c0 -17 -2 -33 -6 -49c-30 -130 -80 -257 -95 -390v-9c0 -2 0 -17 6 -17s10 11 12 16
c21 51 41 103 60 155c35 94 68 190 99 285c3 10 6 20 6 30c0 11 -7 20 -7 30c0 9 4 13 11 17c19 13 66 35 89 35c13 0 16 -11 16 -21c0 -11 -3 -22 -6 -32c-38 -116 -56 -228 -56 -347c0 -48 3 -125 13 -172c2 -7 5 -18 15 -18c5 0 8 2 11 5c36 37 60 85 64 136
c0 3 0 20 6 20c5 0 9 -8 11 -11c10 -17 13 -40 13 -59zM258 793c-51 68 -95 89 -95 106c0 13 34 34 63 34c24 0 29 -18 71 -84c14 -23 58 -85 58 -103c0 -6 -4 -11 -12 -11c-50 0 -61 26 -85 58z" />
    <glyph glyph-name="ugrave" unicode="&#xf9;" horiz-adv-x="338" 
d="M338 115c0 -27 -18 -72 -31 -96c-8 -15 -22 -27 -39 -27c-24 0 -34 22 -47 39c-19 25 -23 56 -31 86c-20 -38 -34 -80 -60 -114c-7 -10 -16 -17 -28 -17c-18 0 -33 14 -43 26c-20 27 -33 59 -33 102c-1 82 20 147 46 223c1 4 3 8 3 12c0 5 -2 8 -7 8c-8 0 -15 -6 -23 -6
c-14 0 -20 9 -24 20c-9 20 -16 56 -16 78c0 6 3 12 10 12c9 0 17 -6 27 -6c17 0 32 9 48 9c17 0 30 -6 43 -17c14 -12 45 -31 45 -51c0 -18 -71 -198 -81 -231c-1 -4 -1 -7 -1 -8c0 -3 1 -8 5 -8c13 0 124 214 139 244c6 12 15 19 28 19c22 0 42 -10 42 -35
c0 -4 0 -6 -1 -11c-15 -77 -40 -152 -57 -228c-1 -6 -1 -8 -1 -10c0 -3 1 -8 5 -8c13 0 33 105 47 105c5 0 8 -6 10 -9c13 -27 25 -71 25 -101zM148 553c-51 68 -95 89 -95 106c0 13 34 34 63 34c24 0 29 -18 71 -84c14 -23 58 -85 58 -103c0 -6 -4 -11 -12 -11
c-50 0 -61 26 -85 58z" />
    <glyph glyph-name="Uacute" unicode="&#xda;" horiz-adv-x="563" 
d="M563 202c0 -53 -48 -185 -112 -185c-34 0 -63 32 -70 63c-17 80 -22 163 -33 244c-20 -78 -36 -157 -58 -235c-11 -38 -36 -88 -83 -88c-37 0 -68 24 -75 60c-9 42 -12 85 -12 127c0 128 35 247 73 368c2 6 3 13 3 20c0 4 -1 11 -6 11c-4 0 -8 -4 -11 -7
c-44 -47 -64 -107 -93 -169c-7 -15 -18 -29 -37 -29c-33 0 -49 52 -49 79c0 16 6 28 17 40c53 59 94 124 133 193l14 -11c10 3 19 7 29 7c4 0 8 -1 11 -2c56 -18 97 -17 97 -90c0 -17 -2 -33 -6 -49c-30 -130 -80 -257 -95 -390v-9c0 -2 0 -17 6 -17s10 11 12 16
c21 51 41 103 60 155c35 94 68 190 99 285c3 10 6 20 6 30c0 11 -7 20 -7 30c0 9 4 13 11 17c19 13 66 35 89 35c13 0 16 -11 16 -21c0 -11 -3 -22 -6 -32c-38 -116 -56 -228 -56 -347c0 -48 3 -125 13 -172c2 -7 5 -18 15 -18c5 0 8 2 11 5c36 37 60 85 64 136
c0 3 0 20 6 20c5 0 9 -8 11 -11c10 -17 13 -40 13 -59zM361 861c30 34 49 42 50 61c0 5 2 9 6 9c37 0 51 -63 51 -70c0 -20 -10 -36 -22 -46c-10 -13 -99 -80 -125 -80c-12 0 -17 13 -17 17c0 44 27 77 57 109z" />
    <glyph glyph-name="uacute" unicode="&#xfa;" horiz-adv-x="338" 
d="M338 115c0 -27 -18 -72 -31 -96c-8 -15 -22 -27 -39 -27c-24 0 -34 22 -47 39c-19 25 -23 56 -31 86c-20 -38 -34 -80 -60 -114c-7 -10 -16 -17 -28 -17c-18 0 -33 14 -43 26c-20 27 -33 59 -33 102c-1 82 20 147 46 223c1 4 3 8 3 12c0 5 -2 8 -7 8c-8 0 -15 -6 -23 -6
c-14 0 -20 9 -24 20c-9 20 -16 56 -16 78c0 6 3 12 10 12c9 0 17 -6 27 -6c17 0 32 9 48 9c17 0 30 -6 43 -17c14 -12 45 -31 45 -51c0 -18 -71 -198 -81 -231c-1 -4 -1 -7 -1 -8c0 -3 1 -8 5 -8c13 0 124 214 139 244c6 12 15 19 28 19c22 0 42 -10 42 -35
c0 -4 0 -6 -1 -11c-15 -77 -40 -152 -57 -228c-1 -6 -1 -8 -1 -10c0 -3 1 -8 5 -8c13 0 33 105 47 105c5 0 8 -6 10 -9c13 -27 25 -71 25 -101zM251 621c30 34 49 42 50 61c0 5 2 9 6 9c37 0 51 -63 51 -70c0 -20 -10 -36 -22 -46c-10 -13 -99 -80 -125 -80
c-12 0 -17 13 -17 17c0 44 27 77 57 109z" />
    <glyph glyph-name="Ucircumflex" unicode="&#xdb;" horiz-adv-x="563" 
d="M563 202c0 -53 -48 -185 -112 -185c-34 0 -63 32 -70 63c-17 80 -22 163 -33 244c-20 -78 -36 -157 -58 -235c-11 -38 -36 -88 -83 -88c-37 0 -68 24 -75 60c-9 42 -12 85 -12 127c0 128 35 247 73 368c2 6 3 13 3 20c0 4 -1 11 -6 11c-4 0 -8 -4 -11 -7
c-44 -47 -64 -107 -93 -169c-7 -15 -18 -29 -37 -29c-33 0 -49 52 -49 79c0 16 6 28 17 40c53 59 94 124 133 193l14 -11c10 3 19 7 29 7c4 0 8 -1 11 -2c56 -18 97 -17 97 -90c0 -17 -2 -33 -6 -49c-30 -130 -80 -257 -95 -390v-9c0 -2 0 -17 6 -17s10 11 12 16
c21 51 41 103 60 155c35 94 68 190 99 285c3 10 6 20 6 30c0 11 -7 20 -7 30c0 9 4 13 11 17c19 13 66 35 89 35c13 0 16 -11 16 -21c0 -11 -3 -22 -6 -32c-38 -116 -56 -228 -56 -347c0 -48 3 -125 13 -172c2 -7 5 -18 15 -18c5 0 8 2 11 5c36 37 60 85 64 136
c0 3 0 20 6 20c5 0 9 -8 11 -11c10 -17 13 -40 13 -59zM453 735c-61 0 -93 69 -124 118c-21 -31 -92 -111 -127 -111c-15 0 -18 17 -18 23c0 28 34 59 61 90c30 35 44 78 72 78c61 0 83 -84 96 -102c15 -21 52 -63 52 -84c0 -6 -4 -12 -12 -12z" />
    <glyph glyph-name="ucircumflex" unicode="&#xfb;" horiz-adv-x="338" 
d="M338 115c0 -27 -18 -72 -31 -96c-8 -15 -22 -27 -39 -27c-24 0 -34 22 -47 39c-19 25 -23 56 -31 86c-20 -38 -34 -80 -60 -114c-7 -10 -16 -17 -28 -17c-18 0 -33 14 -43 26c-20 27 -33 59 -33 102c-1 82 20 147 46 223c1 4 3 8 3 12c0 5 -2 8 -7 8c-8 0 -15 -6 -23 -6
c-14 0 -20 9 -24 20c-9 20 -16 56 -16 78c0 6 3 12 10 12c9 0 17 -6 27 -6c17 0 32 9 48 9c17 0 30 -6 43 -17c14 -12 45 -31 45 -51c0 -18 -71 -198 -81 -231c-1 -4 -1 -7 -1 -8c0 -3 1 -8 5 -8c13 0 124 214 139 244c6 12 15 19 28 19c22 0 42 -10 42 -35
c0 -4 0 -6 -1 -11c-15 -77 -40 -152 -57 -228c-1 -6 -1 -8 -1 -10c0 -3 1 -8 5 -8c13 0 33 105 47 105c5 0 8 -6 10 -9c13 -27 25 -71 25 -101zM343 495c-61 0 -93 69 -124 118c-21 -31 -92 -111 -127 -111c-15 0 -18 17 -18 23c0 28 34 59 61 90c30 35 44 78 72 78
c61 0 83 -84 96 -102c15 -21 52 -63 52 -84c0 -6 -4 -12 -12 -12z" />
    <glyph glyph-name="Udieresis" unicode="&#xdc;" horiz-adv-x="563" 
d="M563 202c0 -53 -48 -185 -112 -185c-34 0 -63 32 -70 63c-17 80 -22 163 -33 244c-20 -78 -36 -157 -58 -235c-11 -38 -36 -88 -83 -88c-37 0 -68 24 -75 60c-9 42 -12 85 -12 127c0 128 35 247 73 368c2 6 3 13 3 20c0 4 -1 11 -6 11c-4 0 -8 -4 -11 -7
c-44 -47 -64 -107 -93 -169c-7 -15 -18 -29 -37 -29c-33 0 -49 52 -49 79c0 16 6 28 17 40c53 59 94 124 133 193l14 -11c10 3 19 7 29 7c4 0 8 -1 11 -2c56 -18 97 -17 97 -90c0 -17 -2 -33 -6 -49c-30 -130 -80 -257 -95 -390v-9c0 -2 0 -17 6 -17s10 11 12 16
c21 51 41 103 60 155c35 94 68 190 99 285c3 10 6 20 6 30c0 11 -7 20 -7 30c0 9 4 13 11 17c19 13 66 35 89 35c13 0 16 -11 16 -21c0 -11 -3 -22 -6 -32c-38 -116 -56 -228 -56 -347c0 -48 3 -125 13 -172c2 -7 5 -18 15 -18c5 0 8 2 11 5c36 37 60 85 64 136
c0 3 0 20 6 20c5 0 9 -8 11 -11c10 -17 13 -40 13 -59zM454 847c2 -7 3 -14 3 -20c0 -32 -22 -62 -59 -62c-29 0 -52 24 -52 53c0 25 13 67 59 67c17 0 40 -9 49 -38zM293 848c2 -7 3 -14 3 -21c0 -31 -18 -62 -51 -62c-24 0 -47 28 -47 67c0 27 11 56 47 56
c16 0 39 -12 48 -40z" />
    <glyph glyph-name="udieresis" unicode="&#xfc;" horiz-adv-x="338" 
d="M338 115c0 -27 -18 -72 -31 -96c-8 -15 -22 -27 -39 -27c-24 0 -34 22 -47 39c-19 25 -23 56 -31 86c-20 -38 -34 -80 -60 -114c-7 -10 -16 -17 -28 -17c-18 0 -33 14 -43 26c-20 27 -33 59 -33 102c-1 82 20 147 46 223c1 4 3 8 3 12c0 5 -2 8 -7 8c-8 0 -15 -6 -23 -6
c-14 0 -20 9 -24 20c-9 20 -16 56 -16 78c0 6 3 12 10 12c9 0 17 -6 27 -6c17 0 32 9 48 9c17 0 30 -6 43 -17c14 -12 45 -31 45 -51c0 -18 -71 -198 -81 -231c-1 -4 -1 -7 -1 -8c0 -3 1 -8 5 -8c13 0 124 214 139 244c6 12 15 19 28 19c22 0 42 -10 42 -35
c0 -4 0 -6 -1 -11c-15 -77 -40 -152 -57 -228c-1 -6 -1 -8 -1 -10c0 -3 1 -8 5 -8c13 0 33 105 47 105c5 0 8 -6 10 -9c13 -27 25 -71 25 -101zM344 607c2 -7 3 -14 3 -20c0 -32 -22 -62 -59 -62c-29 0 -52 24 -52 53c0 25 13 67 59 67c17 0 40 -9 49 -38zM183 608
c2 -7 3 -14 3 -21c0 -31 -18 -62 -51 -62c-24 0 -47 28 -47 67c0 27 11 56 47 56c16 0 39 -12 48 -40z" />
    <glyph glyph-name="Utilde" unicode="&#x168;" horiz-adv-x="563" 
d="M563 202c0 -53 -48 -185 -112 -185c-34 0 -63 32 -70 63c-17 80 -22 163 -33 244c-20 -78 -36 -157 -58 -235c-11 -38 -36 -88 -83 -88c-37 0 -68 24 -75 60c-9 42 -12 85 -12 127c0 128 35 247 73 368c2 6 3 13 3 20c0 4 -1 11 -6 11c-4 0 -8 -4 -11 -7
c-44 -47 -64 -107 -93 -169c-7 -15 -18 -29 -37 -29c-33 0 -49 52 -49 79c0 16 6 28 17 40c53 59 94 124 133 193l14 -11c10 3 19 7 29 7c4 0 8 -1 11 -2c56 -18 97 -17 97 -90c0 -17 -2 -33 -6 -49c-30 -130 -80 -257 -95 -390v-9c0 -2 0 -17 6 -17s10 11 12 16
c21 51 41 103 60 155c35 94 68 190 99 285c3 10 6 20 6 30c0 11 -7 20 -7 30c0 9 4 13 11 17c19 13 66 35 89 35c13 0 16 -11 16 -21c0 -11 -3 -22 -6 -32c-38 -116 -56 -228 -56 -347c0 -48 3 -125 13 -172c2 -7 5 -18 15 -18c5 0 8 2 11 5c36 37 60 85 64 136
c0 3 0 20 6 20c5 0 9 -8 11 -11c10 -17 13 -40 13 -59zM366 830c33 0 35 49 55 49c24 0 36 -36 36 -53c0 -46 -38 -75 -73 -75c-51 0 -87 59 -117 59c-32 0 -27 -60 -64 -60c-10 0 -22 21 -22 42c0 53 49 95 78 95c47 0 81 -57 107 -57z" />
    <glyph glyph-name="utilde" unicode="&#x169;" horiz-adv-x="338" 
d="M338 115c0 -27 -18 -72 -31 -96c-8 -15 -22 -27 -39 -27c-24 0 -34 22 -47 39c-19 25 -23 56 -31 86c-20 -38 -34 -80 -60 -114c-7 -10 -16 -17 -28 -17c-18 0 -33 14 -43 26c-20 27 -33 59 -33 102c-1 82 20 147 46 223c1 4 3 8 3 12c0 5 -2 8 -7 8c-8 0 -15 -6 -23 -6
c-14 0 -20 9 -24 20c-9 20 -16 56 -16 78c0 6 3 12 10 12c9 0 17 -6 27 -6c17 0 32 9 48 9c17 0 30 -6 43 -17c14 -12 45 -31 45 -51c0 -18 -71 -198 -81 -231c-1 -4 -1 -7 -1 -8c0 -3 1 -8 5 -8c13 0 124 214 139 244c6 12 15 19 28 19c22 0 42 -10 42 -35
c0 -4 0 -6 -1 -11c-15 -77 -40 -152 -57 -228c-1 -6 -1 -8 -1 -10c0 -3 1 -8 5 -8c13 0 33 105 47 105c5 0 8 -6 10 -9c13 -27 25 -71 25 -101zM256 590c33 0 35 49 55 49c24 0 36 -36 36 -53c0 -46 -38 -75 -73 -75c-51 0 -87 59 -117 59c-32 0 -27 -60 -64 -60
c-10 0 -22 21 -22 42c0 53 49 95 78 95c47 0 81 -57 107 -57z" />
    <glyph glyph-name="Umacron" unicode="&#x16a;" horiz-adv-x="563" 
d="M563 202c0 -53 -48 -185 -112 -185c-34 0 -63 32 -70 63c-17 80 -22 163 -33 244c-20 -78 -36 -157 -58 -235c-11 -38 -36 -88 -83 -88c-37 0 -68 24 -75 60c-9 42 -12 85 -12 127c0 128 35 247 73 368c2 6 3 13 3 20c0 4 -1 11 -6 11c-4 0 -8 -4 -11 -7
c-44 -47 -64 -107 -93 -169c-7 -15 -18 -29 -37 -29c-33 0 -49 52 -49 79c0 16 6 28 17 40c53 59 94 124 133 193l14 -11c10 3 19 7 29 7c4 0 8 -1 11 -2c56 -18 97 -17 97 -90c0 -17 -2 -33 -6 -49c-30 -130 -80 -257 -95 -390v-9c0 -2 0 -17 6 -17s10 11 12 16
c21 51 41 103 60 155c35 94 68 190 99 285c3 10 6 20 6 30c0 11 -7 20 -7 30c0 9 4 13 11 17c19 13 66 35 89 35c13 0 16 -11 16 -21c0 -11 -3 -22 -6 -32c-38 -116 -56 -228 -56 -347c0 -48 3 -125 13 -172c2 -7 5 -18 15 -18c5 0 8 2 11 5c36 37 60 85 64 136
c0 3 0 20 6 20c5 0 9 -8 11 -11c10 -17 13 -40 13 -59zM354 780c-57 0 -82 -5 -132 -5c-14 0 -20 36 -23 50v8c0 23 7 28 21 28c48 0 57 -5 105 -5c37 0 58 4 92 13c2 1 5 1 8 1c16 0 23 -41 23 -49c0 -43 -60 -41 -94 -41z" />
    <glyph glyph-name="umacron" unicode="&#x16b;" horiz-adv-x="338" 
d="M338 115c0 -27 -18 -72 -31 -96c-8 -15 -22 -27 -39 -27c-24 0 -34 22 -47 39c-19 25 -23 56 -31 86c-20 -38 -34 -80 -60 -114c-7 -10 -16 -17 -28 -17c-18 0 -33 14 -43 26c-20 27 -33 59 -33 102c-1 82 20 147 46 223c1 4 3 8 3 12c0 5 -2 8 -7 8c-8 0 -15 -6 -23 -6
c-14 0 -20 9 -24 20c-9 20 -16 56 -16 78c0 6 3 12 10 12c9 0 17 -6 27 -6c17 0 32 9 48 9c17 0 30 -6 43 -17c14 -12 45 -31 45 -51c0 -18 -71 -198 -81 -231c-1 -4 -1 -7 -1 -8c0 -3 1 -8 5 -8c13 0 124 214 139 244c6 12 15 19 28 19c22 0 42 -10 42 -35
c0 -4 0 -6 -1 -11c-15 -77 -40 -152 -57 -228c-1 -6 -1 -8 -1 -10c0 -3 1 -8 5 -8c13 0 33 105 47 105c5 0 8 -6 10 -9c13 -27 25 -71 25 -101zM244 540c-57 0 -82 -5 -132 -5c-14 0 -20 36 -23 50v8c0 23 7 28 21 28c48 0 57 -5 105 -5c37 0 58 4 92 13c2 1 5 1 8 1
c16 0 23 -41 23 -49c0 -43 -60 -41 -94 -41z" />
    <glyph glyph-name="Ubreve" unicode="&#x16c;" horiz-adv-x="563" 
d="M563 202c0 -53 -48 -185 -112 -185c-34 0 -63 32 -70 63c-17 80 -22 163 -33 244c-20 -78 -36 -157 -58 -235c-11 -38 -36 -88 -83 -88c-37 0 -68 24 -75 60c-9 42 -12 85 -12 127c0 128 35 247 73 368c2 6 3 13 3 20c0 4 -1 11 -6 11c-4 0 -8 -4 -11 -7
c-44 -47 -64 -107 -93 -169c-7 -15 -18 -29 -37 -29c-33 0 -49 52 -49 79c0 16 6 28 17 40c53 59 94 124 133 193l14 -11c10 3 19 7 29 7c4 0 8 -1 11 -2c56 -18 97 -17 97 -90c0 -17 -2 -33 -6 -49c-30 -130 -80 -257 -95 -390v-9c0 -2 0 -17 6 -17s10 11 12 16
c21 51 41 103 60 155c35 94 68 190 99 285c3 10 6 20 6 30c0 11 -7 20 -7 30c0 9 4 13 11 17c19 13 66 35 89 35c13 0 16 -11 16 -21c0 -11 -3 -22 -6 -32c-38 -116 -56 -228 -56 -347c0 -48 3 -125 13 -172c2 -7 5 -18 15 -18c5 0 8 2 11 5c36 37 60 85 64 136
c0 3 0 20 6 20c5 0 9 -8 11 -11c10 -17 13 -40 13 -59zM176 913c47 0 63 -89 127 -89c79 0 78 92 125 92c13 0 36 -28 36 -36c0 -28 -43 -135 -126 -135c-100 0 -175 113 -175 150c0 9 4 18 13 18z" />
    <glyph glyph-name="ubreve" unicode="&#x16d;" horiz-adv-x="338" 
d="M338 115c0 -27 -18 -72 -31 -96c-8 -15 -22 -27 -39 -27c-24 0 -34 22 -47 39c-19 25 -23 56 -31 86c-20 -38 -34 -80 -60 -114c-7 -10 -16 -17 -28 -17c-18 0 -33 14 -43 26c-20 27 -33 59 -33 102c-1 82 20 147 46 223c1 4 3 8 3 12c0 5 -2 8 -7 8c-8 0 -15 -6 -23 -6
c-14 0 -20 9 -24 20c-9 20 -16 56 -16 78c0 6 3 12 10 12c9 0 17 -6 27 -6c17 0 32 9 48 9c17 0 30 -6 43 -17c14 -12 45 -31 45 -51c0 -18 -71 -198 -81 -231c-1 -4 -1 -7 -1 -8c0 -3 1 -8 5 -8c13 0 124 214 139 244c6 12 15 19 28 19c22 0 42 -10 42 -35
c0 -4 0 -6 -1 -11c-15 -77 -40 -152 -57 -228c-1 -6 -1 -8 -1 -10c0 -3 1 -8 5 -8c13 0 33 105 47 105c5 0 8 -6 10 -9c13 -27 25 -71 25 -101zM66 673c47 0 63 -89 127 -89c79 0 78 92 125 92c13 0 36 -28 36 -36c0 -28 -43 -135 -126 -135c-100 0 -175 113 -175 150
c0 9 4 18 13 18z" />
    <glyph glyph-name="Uring" unicode="&#x16e;" horiz-adv-x="563" 
d="M563 202c0 -53 -48 -185 -112 -185c-34 0 -63 32 -70 63c-17 80 -22 163 -33 244c-20 -78 -36 -157 -58 -235c-11 -38 -36 -88 -83 -88c-37 0 -68 24 -75 60c-9 42 -12 85 -12 127c0 128 35 247 73 368c2 6 3 13 3 20c0 4 -1 11 -6 11c-4 0 -8 -4 -11 -7
c-44 -47 -64 -107 -93 -169c-7 -15 -18 -29 -37 -29c-33 0 -49 52 -49 79c0 16 6 28 17 40c53 59 94 124 133 193l14 -11c10 3 19 7 29 7c4 0 8 -1 11 -2c56 -18 97 -17 97 -90c0 -17 -2 -33 -6 -49c-30 -130 -80 -257 -95 -390v-9c0 -2 0 -17 6 -17s10 11 12 16
c21 51 41 103 60 155c35 94 68 190 99 285c3 10 6 20 6 30c0 11 -7 20 -7 30c0 9 4 13 11 17c19 13 66 35 89 35c13 0 16 -11 16 -21c0 -11 -3 -22 -6 -32c-38 -116 -56 -228 -56 -347c0 -48 3 -125 13 -172c2 -7 5 -18 15 -18c5 0 8 2 11 5c36 37 60 85 64 136
c0 3 0 20 6 20c5 0 9 -8 11 -11c10 -17 13 -40 13 -59zM355 981c53 0 101 -48 101 -111c0 -39 -28 -145 -135 -145c-89 0 -118 89 -118 130c0 51 31 89 94 114v1c0 8 40 11 58 11zM318 916c-21 0 -50 -23 -50 -59c0 -44 26 -55 51 -55c44 0 67 33 67 63c0 32 -34 39 -68 51z
" />
    <glyph glyph-name="uring" unicode="&#x16f;" horiz-adv-x="338" 
d="M338 115c0 -27 -18 -72 -31 -96c-8 -15 -22 -27 -39 -27c-24 0 -34 22 -47 39c-19 25 -23 56 -31 86c-20 -38 -34 -80 -60 -114c-7 -10 -16 -17 -28 -17c-18 0 -33 14 -43 26c-20 27 -33 59 -33 102c-1 82 20 147 46 223c1 4 3 8 3 12c0 5 -2 8 -7 8c-8 0 -15 -6 -23 -6
c-14 0 -20 9 -24 20c-9 20 -16 56 -16 78c0 6 3 12 10 12c9 0 17 -6 27 -6c17 0 32 9 48 9c17 0 30 -6 43 -17c14 -12 45 -31 45 -51c0 -18 -71 -198 -81 -231c-1 -4 -1 -7 -1 -8c0 -3 1 -8 5 -8c13 0 124 214 139 244c6 12 15 19 28 19c22 0 42 -10 42 -35
c0 -4 0 -6 -1 -11c-15 -77 -40 -152 -57 -228c-1 -6 -1 -8 -1 -10c0 -3 1 -8 5 -8c13 0 33 105 47 105c5 0 8 -6 10 -9c13 -27 25 -71 25 -101zM245 741c53 0 101 -48 101 -111c0 -39 -28 -145 -135 -145c-89 0 -118 89 -118 130c0 51 31 89 94 114v1c0 8 40 11 58 11z
M208 676c-21 0 -50 -23 -50 -59c0 -44 26 -55 51 -55c44 0 67 33 67 63c0 32 -34 39 -68 51z" />
    <glyph glyph-name="Uhungarumlaut" unicode="&#x170;" horiz-adv-x="563" 
d="M563 202c0 -53 -48 -185 -112 -185c-34 0 -63 32 -70 63c-17 80 -22 163 -33 244c-20 -78 -36 -157 -58 -235c-11 -38 -36 -88 -83 -88c-37 0 -68 24 -75 60c-9 42 -12 85 -12 127c0 128 35 247 73 368c2 6 3 13 3 20c0 4 -1 11 -6 11c-4 0 -8 -4 -11 -7
c-44 -47 -64 -107 -93 -169c-7 -15 -18 -29 -37 -29c-33 0 -49 52 -49 79c0 16 6 28 17 40c53 59 94 124 133 193l14 -11c10 3 19 7 29 7c4 0 8 -1 11 -2c56 -18 97 -17 97 -90c0 -17 -2 -33 -6 -49c-30 -130 -80 -257 -95 -390v-9c0 -2 0 -17 6 -17s10 11 12 16
c21 51 41 103 60 155c35 94 68 190 99 285c3 10 6 20 6 30c0 11 -7 20 -7 30c0 9 4 13 11 17c19 13 66 35 89 35c13 0 16 -11 16 -21c0 -11 -3 -22 -6 -32c-38 -116 -56 -228 -56 -347c0 -48 3 -125 13 -172c2 -7 5 -18 15 -18c5 0 8 2 11 5c36 37 60 85 64 136
c0 3 0 20 6 20c5 0 9 -8 11 -11c10 -17 13 -40 13 -59zM260 856c18 33 28 46 28 61c0 3 -1 6 -1 9c0 5 5 6 9 6c29 0 52 -40 55 -50c2 -6 3 -12 3 -18c0 -14 -6 -26 -14 -36c-7 -16 -71 -93 -92 -93c-16 0 -19 20 -19 30c0 28 15 63 31 91zM408 861c25 28 23 60 39 60
c38 0 51 -63 51 -70c0 -20 -10 -36 -22 -46c-10 -13 -82 -70 -108 -70c-12 0 -17 13 -17 17c0 44 27 77 57 109z" />
    <glyph glyph-name="uhungarumlaut" unicode="&#x171;" horiz-adv-x="338" 
d="M338 115c0 -27 -18 -72 -31 -96c-8 -15 -22 -27 -39 -27c-24 0 -34 22 -47 39c-19 25 -23 56 -31 86c-20 -38 -34 -80 -60 -114c-7 -10 -16 -17 -28 -17c-18 0 -33 14 -43 26c-20 27 -33 59 -33 102c-1 82 20 147 46 223c1 4 3 8 3 12c0 5 -2 8 -7 8c-8 0 -15 -6 -23 -6
c-14 0 -20 9 -24 20c-9 20 -16 56 -16 78c0 6 3 12 10 12c9 0 17 -6 27 -6c17 0 32 9 48 9c17 0 30 -6 43 -17c14 -12 45 -31 45 -51c0 -18 -71 -198 -81 -231c-1 -4 -1 -7 -1 -8c0 -3 1 -8 5 -8c13 0 124 214 139 244c6 12 15 19 28 19c22 0 42 -10 42 -35
c0 -4 0 -6 -1 -11c-15 -77 -40 -152 -57 -228c-1 -6 -1 -8 -1 -10c0 -3 1 -8 5 -8c13 0 33 105 47 105c5 0 8 -6 10 -9c13 -27 25 -71 25 -101zM150 616c18 33 28 46 28 61c0 3 -1 6 -1 9c0 5 5 6 9 6c29 0 52 -40 55 -50c2 -6 3 -12 3 -18c0 -14 -6 -26 -14 -36
c-7 -16 -71 -93 -92 -93c-16 0 -19 20 -19 30c0 28 15 63 31 91zM298 621c25 28 23 60 39 60c38 0 51 -63 51 -70c0 -20 -10 -36 -22 -46c-10 -13 -82 -70 -108 -70c-12 0 -17 13 -17 17c0 44 27 77 57 109z" />
    <glyph glyph-name="Uogonek" unicode="&#x172;" horiz-adv-x="563" 
d="M366 -125c-2 6 -3 13 -3 22c0 41 20 107 46 137c-14 12 -24 29 -28 46c-17 80 -22 163 -33 244c-20 -78 -36 -157 -58 -235c-11 -38 -36 -88 -83 -88c-37 0 -67 24 -75 60c-8 42 -12 85 -12 127c0 128 35 247 73 368c2 6 3 13 3 20c0 4 -1 11 -6 11c-4 0 -8 -3 -10 -6
c-43 -48 -68 -112 -94 -170c-8 -15 -18 -29 -37 -29c-33 0 -49 52 -49 79c0 16 6 28 17 40c53 59 94 124 133 193l14 -11c10 3 19 7 29 7c4 0 8 -1 11 -2c56 -18 97 -17 97 -90c0 -17 -2 -33 -6 -49c-30 -130 -80 -255 -95 -388v-11c0 -2 0 -17 6 -17s11 12 12 16
c22 51 40 103 60 155c34 94 68 190 99 285c3 10 6 20 6 30c0 11 -7 20 -7 30c0 9 4 13 11 17c19 13 66 35 89 35c13 0 16 -11 16 -21c0 -11 -2 -22 -6 -32c-36 -113 -56 -228 -56 -347c0 -48 3 -125 13 -172c2 -7 5 -18 15 -18c5 0 8 2 11 5c36 37 60 85 64 136
c0 3 0 20 6 20c5 0 9 -8 11 -11c10 -17 13 -40 13 -59c0 -46 -35 -128 -89 -179c-22 -21 -42 -79 -42 -113c0 -12 4 -22 14 -28c58 0 104 43 135 43c12 0 22 -39 22 -52c-11 -49 -61 -85 -142 -85c-29 0 -81 42 -95 87z" />
    <glyph glyph-name="uogonek" unicode="&#x173;" horiz-adv-x="338" 
d="M171 -145c-2 6 -3 13 -3 22c0 48 24 106 58 148c-2 2 -4 4 -5 6c-19 25 -23 56 -31 86c-20 -38 -34 -80 -60 -114c-7 -10 -16 -17 -28 -17c-18 0 -33 14 -43 26c-20 27 -33 59 -33 93v9c-1 82 20 147 46 223c1 4 3 8 3 12c0 5 -2 8 -7 8c-8 0 -15 -6 -23 -6
c-14 0 -20 9 -24 20c-9 20 -16 56 -16 78c0 6 3 12 10 12c9 0 17 -6 27 -6c17 0 32 9 48 9c17 0 30 -6 43 -17c14 -12 45 -31 45 -51c0 -18 -69 -199 -81 -231c-1 -2 -1 -5 -1 -8s1 -8 5 -8c13 0 124 214 139 244c6 12 15 19 28 19c22 0 42 -10 42 -35c0 -4 0 -7 -1 -11
c-15 -77 -40 -152 -57 -228c-1 -3 -1 -6 -1 -8c0 -3 1 -10 5 -10c13 0 33 105 47 105c5 0 8 -6 10 -9c13 -27 25 -71 25 -101c0 -50 -31 -81 -63 -122c-20 -25 -38 -72 -38 -103c0 -12 4 -22 14 -28c58 0 104 43 135 43c12 0 22 -39 22 -52c-11 -49 -61 -85 -142 -85
c-29 0 -81 42 -95 87z" />
    <glyph glyph-name="Wcircumflex" unicode="&#x174;" horiz-adv-x="611" 
d="M586 393c0 -115 -34 -229 -92 -328c-19 -33 -52 -55 -90 -55c-95 0 -99 127 -113 195c-22 -47 -38 -97 -63 -143c-12 -24 -32 -42 -60 -42c-10 0 -20 3 -28 7c-50 22 -44 75 -50 120c-1 12 -2 23 -2 35c0 114 92 299 141 403c-41 -44 -81 -75 -139 -95
c-12 -4 -25 -7 -38 -7c-36 0 -52 28 -52 61c0 76 142 149 207 149c53 0 110 -33 110 -91c0 -10 -2 -20 -6 -30c-50 -140 -112 -264 -146 -410c-2 -8 -2 -12 -2 -14c0 -5 2 -9 7 -9c29 0 108 234 120 271c-4 5 -7 12 -7 18c0 12 15 13 24 13c19 0 49 0 68 -2
c7 -1 15 -2 15 -11c0 -6 -3 -11 -7 -14c-5 -53 -11 -105 -11 -158c0 -23 7 -165 33 -165c13 0 26 27 30 37c40 88 67 188 67 285c0 98 -23 182 -74 265c-6 9 -11 20 -11 31c0 19 22 24 38 24c23 0 39 -12 50 -31c51 -92 81 -203 81 -309zM165 645c-38 -6 -73 -17 -100 -44
c-5 -5 -11 -12 -11 -19s6 -10 12 -10c31 0 79 51 99 73zM499 767c-61 0 -93 69 -124 118c-21 -31 -92 -111 -127 -111c-15 0 -18 17 -18 23c0 28 34 59 61 90c30 35 44 78 72 78c61 0 83 -84 96 -102c15 -21 52 -63 52 -84c0 -6 -4 -12 -12 -12z" />
    <glyph glyph-name="wcircumflex" unicode="&#x175;" horiz-adv-x="411" 
d="M393 165c0 -58 -11 -183 -92 -183c-15 0 -29 5 -41 14c-43 31 -53 74 -62 122c-9 -28 -49 -125 -83 -125c-6 0 -12 3 -16 6c-53 39 -62 102 -62 162c0 73 16 113 40 180c-16 -9 -37 -25 -56 -25c-37 0 -41 76 -41 102c0 7 3 12 10 12c5 0 9 -2 14 -2c20 0 64 32 88 32
c42 0 64 -67 64 -100c0 -9 -1 -18 -3 -26c-14 -71 -38 -139 -52 -210c-1 -6 -1 -8 -1 -9c0 -2 0 -7 4 -7s9 7 11 10c36 56 54 118 70 181c4 15 13 24 29 24c27 0 59 4 59 -31c0 -1 0 -3 -1 -11c-4 -38 -9 -75 -9 -114c0 -11 0 -80 11 -80c4 0 6 4 10 12c25 51 30 110 30 166
c0 29 -1 57 -2 85c-2 69 -50 76 -50 88c0 7 11 10 17 10h15c19 -1 30 -18 37 -33c37 -78 62 -163 62 -250zM339 495c-61 0 -93 69 -124 118c-21 -31 -92 -111 -127 -111c-15 0 -18 17 -18 23c0 28 34 59 61 90c30 35 44 78 72 78c61 0 83 -84 96 -102c15 -21 52 -63 52 -84
c0 -6 -4 -12 -12 -12z" />
    <glyph glyph-name="Wgrave" unicode="&#x1e80;" horiz-adv-x="611" 
d="M586 393c0 -115 -34 -229 -92 -328c-19 -33 -52 -55 -90 -55c-95 0 -99 127 -113 195c-22 -47 -38 -97 -63 -143c-12 -24 -32 -42 -60 -42c-10 0 -20 3 -28 7c-50 22 -44 75 -50 120c-1 12 -2 23 -2 35c0 114 92 299 141 403c-41 -44 -81 -75 -139 -95
c-12 -4 -25 -7 -38 -7c-36 0 -52 28 -52 61c0 76 142 149 207 149c53 0 110 -33 110 -91c0 -10 -2 -20 -6 -30c-50 -140 -112 -264 -146 -410c-2 -8 -2 -12 -2 -14c0 -5 2 -9 7 -9c29 0 108 234 120 271c-4 5 -7 12 -7 18c0 12 15 13 24 13c19 0 49 0 68 -2
c7 -1 15 -2 15 -11c0 -6 -3 -11 -7 -14c-5 -53 -11 -105 -11 -158c0 -23 7 -165 33 -165c13 0 26 27 30 37c40 88 67 188 67 285c0 98 -23 182 -74 265c-6 9 -11 20 -11 31c0 19 22 24 38 24c23 0 39 -12 50 -31c51 -92 81 -203 81 -309zM165 645c-38 -6 -73 -17 -100 -44
c-5 -5 -11 -12 -11 -19s6 -10 12 -10c31 0 79 51 99 73zM284 825c-51 68 -95 89 -95 106c0 13 34 34 63 34c24 0 29 -18 71 -84c14 -23 58 -85 58 -103c0 -6 -4 -11 -12 -11c-50 0 -61 26 -85 58z" />
    <glyph glyph-name="wgrave" unicode="&#x1e81;" horiz-adv-x="411" 
d="M393 165c0 -58 -11 -183 -92 -183c-15 0 -29 5 -41 14c-43 31 -53 74 -62 122c-9 -28 -49 -125 -83 -125c-6 0 -12 3 -16 6c-53 39 -62 102 -62 162c0 73 16 113 40 180c-16 -9 -37 -25 -56 -25c-37 0 -41 76 -41 102c0 7 3 12 10 12c5 0 9 -2 14 -2c20 0 64 32 88 32
c42 0 64 -67 64 -100c0 -9 -1 -18 -3 -26c-14 -71 -38 -139 -52 -210c-1 -6 -1 -8 -1 -9c0 -2 0 -7 4 -7s9 7 11 10c36 56 54 118 70 181c4 15 13 24 29 24c27 0 59 4 59 -31c0 -1 0 -3 -1 -11c-4 -38 -9 -75 -9 -114c0 -11 0 -80 11 -80c4 0 6 4 10 12c25 51 30 110 30 166
c0 29 -1 57 -2 85c-2 69 -50 76 -50 88c0 7 11 10 17 10h15c19 -1 30 -18 37 -33c37 -78 62 -163 62 -250zM144 553c-51 68 -95 89 -95 106c0 13 34 34 63 34c24 0 29 -18 71 -84c14 -23 58 -85 58 -103c0 -6 -4 -11 -12 -11c-50 0 -61 26 -85 58z" />
    <glyph glyph-name="Wacute" unicode="&#x1e82;" horiz-adv-x="611" 
d="M586 393c0 -115 -34 -229 -92 -328c-19 -33 -52 -55 -90 -55c-95 0 -99 127 -113 195c-22 -47 -38 -97 -63 -143c-12 -24 -32 -42 -60 -42c-10 0 -20 3 -28 7c-50 22 -44 75 -50 120c-1 12 -2 23 -2 35c0 114 92 299 141 403c-41 -44 -81 -75 -139 -95
c-12 -4 -25 -7 -38 -7c-36 0 -52 28 -52 61c0 76 142 149 207 149c53 0 110 -33 110 -91c0 -10 -2 -20 -6 -30c-50 -140 -112 -264 -146 -410c-2 -8 -2 -12 -2 -14c0 -5 2 -9 7 -9c29 0 108 234 120 271c-4 5 -7 12 -7 18c0 12 15 13 24 13c19 0 49 0 68 -2
c7 -1 15 -2 15 -11c0 -6 -3 -11 -7 -14c-5 -53 -11 -105 -11 -158c0 -23 7 -165 33 -165c13 0 26 27 30 37c40 88 67 188 67 285c0 98 -23 182 -74 265c-6 9 -11 20 -11 31c0 19 22 24 38 24c23 0 39 -12 50 -31c51 -92 81 -203 81 -309zM165 645c-38 -6 -73 -17 -100 -44
c-5 -5 -11 -12 -11 -19s6 -10 12 -10c31 0 79 51 99 73zM387 893c30 34 49 42 50 61c0 5 2 9 6 9c37 0 51 -63 51 -70c0 -20 -10 -36 -22 -46c-10 -13 -99 -80 -125 -80c-12 0 -17 13 -17 17c0 44 27 77 57 109z" />
    <glyph glyph-name="wacute" unicode="&#x1e83;" horiz-adv-x="411" 
d="M393 165c0 -58 -11 -183 -92 -183c-15 0 -29 5 -41 14c-43 31 -53 74 -62 122c-9 -28 -49 -125 -83 -125c-6 0 -12 3 -16 6c-53 39 -62 102 -62 162c0 73 16 113 40 180c-16 -9 -37 -25 -56 -25c-37 0 -41 76 -41 102c0 7 3 12 10 12c5 0 9 -2 14 -2c20 0 64 32 88 32
c42 0 64 -67 64 -100c0 -9 -1 -18 -3 -26c-14 -71 -38 -139 -52 -210c-1 -6 -1 -8 -1 -9c0 -2 0 -7 4 -7s9 7 11 10c36 56 54 118 70 181c4 15 13 24 29 24c27 0 59 4 59 -31c0 -1 0 -3 -1 -11c-4 -38 -9 -75 -9 -114c0 -11 0 -80 11 -80c4 0 6 4 10 12c25 51 30 110 30 166
c0 29 -1 57 -2 85c-2 69 -50 76 -50 88c0 7 11 10 17 10h15c19 -1 30 -18 37 -33c37 -78 62 -163 62 -250zM247 621c30 34 49 42 50 61c0 5 2 9 6 9c37 0 51 -63 51 -70c0 -20 -10 -36 -22 -46c-10 -13 -99 -80 -125 -80c-12 0 -17 13 -17 17c0 44 27 77 57 109z" />
    <glyph glyph-name="Wdieresis" unicode="&#x1e84;" horiz-adv-x="611" 
d="M586 393c0 -115 -34 -229 -92 -328c-19 -33 -52 -55 -90 -55c-95 0 -99 127 -113 195c-22 -47 -38 -97 -63 -143c-12 -24 -32 -42 -60 -42c-10 0 -20 3 -28 7c-50 22 -44 75 -50 120c-1 12 -2 23 -2 35c0 114 92 299 141 403c-41 -44 -81 -75 -139 -95
c-12 -4 -25 -7 -38 -7c-36 0 -52 28 -52 61c0 76 142 149 207 149c53 0 110 -33 110 -91c0 -10 -2 -20 -6 -30c-50 -140 -112 -264 -146 -410c-2 -8 -2 -12 -2 -14c0 -5 2 -9 7 -9c29 0 108 234 120 271c-4 5 -7 12 -7 18c0 12 15 13 24 13c19 0 49 0 68 -2
c7 -1 15 -2 15 -11c0 -6 -3 -11 -7 -14c-5 -53 -11 -105 -11 -158c0 -23 7 -165 33 -165c13 0 26 27 30 37c40 88 67 188 67 285c0 98 -23 182 -74 265c-6 9 -11 20 -11 31c0 19 22 24 38 24c23 0 39 -12 50 -31c51 -92 81 -203 81 -309zM165 645c-38 -6 -73 -17 -100 -44
c-5 -5 -11 -12 -11 -19s6 -10 12 -10c31 0 79 51 99 73zM480 879c2 -7 3 -14 3 -20c0 -32 -22 -62 -59 -62c-29 0 -52 24 -52 53c0 25 13 67 59 67c17 0 40 -9 49 -38zM319 880c2 -7 3 -14 3 -21c0 -31 -18 -62 -51 -62c-24 0 -47 28 -47 67c0 27 11 56 47 56
c16 0 39 -12 48 -40z" />
    <glyph glyph-name="wdieresis" unicode="&#x1e85;" horiz-adv-x="411" 
d="M393 165c0 -58 -11 -183 -92 -183c-15 0 -29 5 -41 14c-43 31 -53 74 -62 122c-9 -28 -49 -125 -83 -125c-6 0 -12 3 -16 6c-53 39 -62 102 -62 162c0 73 16 113 40 180c-16 -9 -37 -25 -56 -25c-37 0 -41 76 -41 102c0 7 3 12 10 12c5 0 9 -2 14 -2c20 0 64 32 88 32
c42 0 64 -67 64 -100c0 -9 -1 -18 -3 -26c-14 -71 -38 -139 -52 -210c-1 -6 -1 -8 -1 -9c0 -2 0 -7 4 -7s9 7 11 10c36 56 54 118 70 181c4 15 13 24 29 24c27 0 59 4 59 -31c0 -1 0 -3 -1 -11c-4 -38 -9 -75 -9 -114c0 -11 0 -80 11 -80c4 0 6 4 10 12c25 51 30 110 30 166
c0 29 -1 57 -2 85c-2 69 -50 76 -50 88c0 7 11 10 17 10h15c19 -1 30 -18 37 -33c37 -78 62 -163 62 -250zM340 607c2 -7 3 -14 3 -20c0 -32 -22 -62 -59 -62c-29 0 -52 24 -52 53c0 25 13 67 59 67c17 0 40 -9 49 -38zM179 608c2 -7 3 -14 3 -21c0 -31 -18 -62 -51 -62
c-24 0 -47 28 -47 67c0 27 11 56 47 56c16 0 39 -12 48 -40z" />
    <glyph glyph-name="Yacute" unicode="&#xdd;" horiz-adv-x="517" 
d="M587 705c0 -9 -5 -18 -9 -25c-87 -152 -134 -306 -155 -480c-5 -39 -11 -81 -11 -120c0 -7 3 -17 12 -17c8 0 6 20 13 20c9 0 32 -42 32 -56c0 -22 -36 -108 -47 -132c-6 -14 -19 -39 -37 -39c-5 0 -8 2 -12 4c-39 23 -42 89 -42 130c0 101 14 201 30 300
c-46 -59 -100 -161 -187 -161c-27 0 -51 12 -70 32c-13 14 -20 33 -28 50c-12 25 -18 50 -18 78c0 39 12 77 27 113c28 67 67 128 109 188l49 71c3 5 6 10 6 16c0 11 -12 14 -22 14c-19 0 -38 -6 -56 -14c-13 -5 -15 -9 -17 -22c0 -4 1 -9 1 -13c0 -16 -4 -27 -15 -38
c-13 -13 -28 -26 -43 -37c-14 -10 -34 -12 -51 -12c-43 0 -46 28 -46 64c0 20 6 33 23 45c55 36 125 89 194 89c55 0 105 -35 105 -93c0 -21 -6 -41 -14 -60c-37 -80 -95 -148 -139 -224c-17 -31 -39 -76 -39 -117c0 -11 4 -32 18 -32c4 0 7 1 11 3c95 51 168 187 224 277
l96 169c-1 5 -2 11 -2 17c0 29 20 34 45 34c15 0 31 -2 45 -5c10 -2 20 -5 20 -17zM454 892c30 34 49 42 50 61c0 5 2 9 6 9c37 0 51 -63 51 -70c0 -20 -10 -36 -22 -46c-10 -13 -99 -80 -125 -80c-12 0 -17 13 -17 17c0 44 27 77 57 109z" />
    <glyph glyph-name="yacute" unicode="&#xfd;" horiz-adv-x="379" 
d="M361 352c0 -1 0 -3 -1 -9c-28 -185 -74 -364 -110 -547c-8 -39 -7 -76 -9 -116c0 -13 -4 -31 -21 -31c-4 0 -9 1 -13 3c-53 22 -73 73 -73 128v67c0 8 2 21 13 21c16 0 30 -25 40 -36l54 267c-34 -41 -71 -91 -130 -91c-58 0 -84 61 -84 111c0 77 28 143 63 210
c-14 -2 -27 -7 -41 -7s-24 5 -30 18c-5 10 -21 58 -21 67c0 17 17 13 27 13c32 0 60 19 88 19c14 0 27 -5 38 -15c17 -14 40 -47 40 -71c0 -49 -87 -208 -87 -226c0 -5 3 -9 8 -9c2 0 5 1 8 3c91 66 130 172 173 271c4 9 10 17 21 17c26 0 47 -33 47 -57zM268 601
c30 34 49 42 50 61c0 5 2 9 6 9c37 0 51 -63 51 -70c0 -20 -10 -36 -22 -46c-10 -13 -99 -80 -125 -80c-12 0 -17 13 -17 17c0 44 27 77 57 109z" />
    <glyph glyph-name="Ycircumflex" unicode="&#x176;" horiz-adv-x="517" 
d="M587 705c0 -9 -5 -18 -9 -25c-87 -152 -134 -306 -155 -480c-5 -39 -11 -81 -11 -120c0 -7 3 -17 12 -17c8 0 6 20 13 20c9 0 32 -42 32 -56c0 -22 -36 -108 -47 -132c-6 -14 -19 -39 -37 -39c-5 0 -8 2 -12 4c-39 23 -42 89 -42 130c0 101 14 201 30 300
c-46 -59 -100 -161 -187 -161c-27 0 -51 12 -70 32c-13 14 -20 33 -28 50c-12 25 -18 50 -18 78c0 39 12 77 27 113c28 67 67 128 109 188l49 71c3 5 6 10 6 16c0 11 -12 14 -22 14c-19 0 -38 -6 -56 -14c-13 -5 -15 -9 -17 -22c0 -4 1 -9 1 -13c0 -16 -4 -27 -15 -38
c-13 -13 -28 -26 -43 -37c-14 -10 -34 -12 -51 -12c-43 0 -46 28 -46 64c0 20 6 33 23 45c55 36 125 89 194 89c55 0 105 -35 105 -93c0 -21 -6 -41 -14 -60c-37 -80 -95 -148 -139 -224c-17 -31 -39 -76 -39 -117c0 -11 4 -32 18 -32c4 0 7 1 11 3c95 51 168 187 224 277
l96 169c-1 5 -2 11 -2 17c0 29 20 34 45 34c15 0 31 -2 45 -5c10 -2 20 -5 20 -17zM546 766c-61 0 -93 69 -124 118c-21 -31 -92 -111 -127 -111c-15 0 -18 17 -18 23c0 28 34 59 61 90c30 35 44 78 72 78c61 0 83 -84 96 -102c15 -21 52 -63 52 -84c0 -6 -4 -12 -12 -12z
" />
    <glyph glyph-name="ycircumflex" unicode="&#x177;" horiz-adv-x="379" 
d="M361 352c0 -1 0 -3 -1 -9c-28 -185 -74 -364 -110 -547c-8 -39 -7 -76 -9 -116c0 -13 -4 -31 -21 -31c-4 0 -9 1 -13 3c-53 22 -73 73 -73 128v67c0 8 2 21 13 21c16 0 30 -25 40 -36l54 267c-34 -41 -71 -91 -130 -91c-58 0 -84 61 -84 111c0 77 28 143 63 210
c-14 -2 -27 -7 -41 -7s-24 5 -30 18c-5 10 -21 58 -21 67c0 17 17 13 27 13c32 0 60 19 88 19c14 0 27 -5 38 -15c17 -14 40 -47 40 -71c0 -49 -87 -208 -87 -226c0 -5 3 -9 8 -9c2 0 5 1 8 3c91 66 130 172 173 271c4 9 10 17 21 17c26 0 47 -33 47 -57zM360 475
c-61 0 -93 69 -124 118c-21 -31 -92 -111 -127 -111c-15 0 -18 17 -18 23c0 28 34 59 61 90c30 35 44 78 72 78c61 0 83 -84 96 -102c15 -21 52 -63 52 -84c0 -6 -4 -12 -12 -12z" />
    <glyph glyph-name="Ydieresis" unicode="&#x178;" horiz-adv-x="517" 
d="M587 705c0 -9 -5 -18 -9 -25c-87 -152 -134 -306 -155 -480c-5 -39 -11 -81 -11 -120c0 -7 3 -17 12 -17c8 0 6 20 13 20c9 0 32 -42 32 -56c0 -22 -36 -108 -47 -132c-6 -14 -19 -39 -37 -39c-5 0 -8 2 -12 4c-39 23 -42 89 -42 130c0 101 14 201 30 300
c-46 -59 -100 -161 -187 -161c-27 0 -51 12 -70 32c-13 14 -20 33 -28 50c-12 25 -18 50 -18 78c0 39 12 77 27 113c28 67 67 128 109 188l49 71c3 5 6 10 6 16c0 11 -12 14 -22 14c-19 0 -38 -6 -56 -14c-13 -5 -15 -9 -17 -22c0 -4 1 -9 1 -13c0 -16 -4 -27 -15 -38
c-13 -13 -28 -26 -43 -37c-14 -10 -34 -12 -51 -12c-43 0 -46 28 -46 64c0 20 6 33 23 45c55 36 125 89 194 89c55 0 105 -35 105 -93c0 -21 -6 -41 -14 -60c-37 -80 -95 -148 -139 -224c-17 -31 -39 -76 -39 -117c0 -11 4 -32 18 -32c4 0 7 1 11 3c95 51 168 187 224 277
l96 169c-1 5 -2 11 -2 17c0 29 20 34 45 34c15 0 31 -2 45 -5c10 -2 20 -5 20 -17zM547 878c2 -7 3 -14 3 -20c0 -32 -22 -62 -59 -62c-29 0 -52 24 -52 53c0 25 13 67 59 67c17 0 40 -9 49 -38zM386 879c2 -7 3 -14 3 -21c0 -31 -18 -62 -51 -62c-24 0 -47 28 -47 67
c0 27 11 56 47 56c16 0 39 -12 48 -40z" />
    <glyph glyph-name="ydieresis" unicode="&#xff;" horiz-adv-x="379" 
d="M361 352c0 -1 0 -3 -1 -9c-28 -185 -74 -364 -110 -547c-8 -39 -7 -76 -9 -116c0 -13 -4 -31 -21 -31c-4 0 -9 1 -13 3c-53 22 -73 73 -73 128v67c0 8 2 21 13 21c16 0 30 -25 40 -36l54 267c-34 -41 -71 -91 -130 -91c-58 0 -84 61 -84 111c0 77 28 143 63 210
c-14 -2 -27 -7 -41 -7s-24 5 -30 18c-5 10 -21 58 -21 67c0 17 17 13 27 13c32 0 60 19 88 19c14 0 27 -5 38 -15c17 -14 40 -47 40 -71c0 -49 -87 -208 -87 -226c0 -5 3 -9 8 -9c2 0 5 1 8 3c91 66 130 172 173 271c4 9 10 17 21 17c26 0 47 -33 47 -57zM361 587
c2 -7 3 -14 3 -20c0 -32 -22 -62 -59 -62c-29 0 -52 24 -52 53c0 25 13 67 59 67c17 0 40 -9 49 -38zM200 588c2 -7 3 -14 3 -21c0 -31 -18 -62 -51 -62c-24 0 -47 28 -47 67c0 27 11 56 47 56c16 0 39 -12 48 -40z" />
    <glyph glyph-name="Ygrave" unicode="&#x1ef2;" horiz-adv-x="517" 
d="M587 705c0 -9 -5 -18 -9 -25c-87 -152 -134 -306 -155 -480c-5 -39 -11 -81 -11 -120c0 -7 3 -17 12 -17c8 0 6 20 13 20c9 0 32 -42 32 -56c0 -22 -36 -108 -47 -132c-6 -14 -19 -39 -37 -39c-5 0 -8 2 -12 4c-39 23 -42 89 -42 130c0 101 14 201 30 300
c-46 -59 -100 -161 -187 -161c-27 0 -51 12 -70 32c-13 14 -20 33 -28 50c-12 25 -18 50 -18 78c0 39 12 77 27 113c28 67 67 128 109 188l49 71c3 5 6 10 6 16c0 11 -12 14 -22 14c-19 0 -38 -6 -56 -14c-13 -5 -15 -9 -17 -22c0 -4 1 -9 1 -13c0 -16 -4 -27 -15 -38
c-13 -13 -28 -26 -43 -37c-14 -10 -34 -12 -51 -12c-43 0 -46 28 -46 64c0 20 6 33 23 45c55 36 125 89 194 89c55 0 105 -35 105 -93c0 -21 -6 -41 -14 -60c-37 -80 -95 -148 -139 -224c-17 -31 -39 -76 -39 -117c0 -11 4 -32 18 -32c4 0 7 1 11 3c95 51 168 187 224 277
l96 169c-1 5 -2 11 -2 17c0 29 20 34 45 34c15 0 31 -2 45 -5c10 -2 20 -5 20 -17zM351 824c-51 68 -95 89 -95 106c0 13 34 34 63 34c24 0 29 -18 71 -84c14 -23 58 -85 58 -103c0 -6 -4 -11 -12 -11c-50 0 -61 26 -85 58z" />
    <glyph glyph-name="ygrave" unicode="&#x1ef3;" horiz-adv-x="379" 
d="M361 352c0 -1 0 -3 -1 -9c-28 -185 -74 -364 -110 -547c-8 -39 -7 -76 -9 -116c0 -13 -4 -31 -21 -31c-4 0 -9 1 -13 3c-53 22 -73 73 -73 128v67c0 8 2 21 13 21c16 0 30 -25 40 -36l54 267c-34 -41 -71 -91 -130 -91c-58 0 -84 61 -84 111c0 77 28 143 63 210
c-14 -2 -27 -7 -41 -7s-24 5 -30 18c-5 10 -21 58 -21 67c0 17 17 13 27 13c32 0 60 19 88 19c14 0 27 -5 38 -15c17 -14 40 -47 40 -71c0 -49 -87 -208 -87 -226c0 -5 3 -9 8 -9c2 0 5 1 8 3c91 66 130 172 173 271c4 9 10 17 21 17c26 0 47 -33 47 -57zM165 533
c-51 68 -95 89 -95 106c0 13 34 34 63 34c24 0 29 -18 71 -84c14 -23 58 -85 58 -103c0 -6 -4 -11 -12 -11c-50 0 -61 26 -85 58z" />
    <glyph glyph-name="Zacute" unicode="&#x179;" horiz-adv-x="436" 
d="M466 551c0 -36 -21 -69 -45 -94c-71 -74 -155 -134 -228 -205c-28 -27 -75 -77 -75 -118c0 -22 17 -28 37 -28c79 0 158 14 236 27c6 1 9 1 9 1c9 0 13 -4 13 -13s-3 -21 -6 -29c-23 -77 -128 -86 -195 -86c-65 0 -122 7 -152 74c-8 17 -12 36 -12 55c0 46 25 88 54 123
c86 102 183 195 270 296c5 6 11 13 11 21c0 19 -58 17 -71 17c-36 0 -72 -3 -107 -6c-40 -24 -100 -34 -147 -34c-30 0 -48 5 -48 38c0 38 3 64 41 81c32 14 160 63 189 63c19 0 26 -34 33 -49c9 -20 29 -13 48 -13c64 0 115 -25 139 -87c4 -11 6 -22 6 -34zM311 895
c30 34 49 42 50 61c0 5 2 9 6 9c37 0 51 -63 51 -70c0 -20 -10 -36 -22 -46c-10 -13 -99 -80 -125 -80c-12 0 -17 13 -17 17c0 44 27 77 57 109z" />
    <glyph glyph-name="zacute" unicode="&#x17a;" horiz-adv-x="303" 
d="M303 318c0 -14 -5 -25 -14 -34c-57 -60 -126 -108 -188 -163c32 1 63 4 95 4c36 0 62 1 62 -45c0 -15 -2 -27 -19 -30c-43 -8 -81 -24 -122 -39c-11 -4 -23 -7 -35 -7c-17 0 -29 7 -38 21c-9 16 -29 63 -29 80s7 33 17 46c52 65 117 118 175 178c-43 -7 -80 -13 -124 -19
c-5 -1 -17 -2 -22 -2c-39 0 -43 25 -49 56c-1 5 -2 10 -2 15c0 41 50 62 82 75c4 2 9 3 13 3c11 0 14 -7 15 -16c3 -18 31 -12 44 -12c69 0 97 -18 129 -77c6 -10 10 -22 10 -34zM211 621c30 34 49 42 50 61c0 5 2 9 6 9c37 0 51 -63 51 -70c0 -20 -10 -36 -22 -46
c-10 -13 -99 -80 -125 -80c-12 0 -17 13 -17 17c0 44 27 77 57 109z" />
    <glyph glyph-name="Zdotaccent" unicode="&#x17b;" horiz-adv-x="436" 
d="M466 551c0 -36 -21 -69 -45 -94c-71 -74 -155 -134 -228 -205c-28 -27 -75 -77 -75 -118c0 -22 17 -28 37 -28c79 0 158 14 236 27c6 1 9 1 9 1c9 0 13 -4 13 -13s-3 -21 -6 -29c-23 -77 -128 -86 -195 -86c-65 0 -122 7 -152 74c-8 17 -12 36 -12 55c0 46 25 88 54 123
c86 102 183 195 270 296c5 6 11 13 11 21c0 19 -58 17 -71 17c-36 0 -72 -3 -107 -6c-40 -24 -100 -34 -147 -34c-30 0 -48 5 -48 38c0 38 3 64 41 81c32 14 160 63 189 63c19 0 26 -34 33 -49c9 -20 29 -13 48 -13c64 0 115 -25 139 -87c4 -11 6 -22 6 -34zM273 925
c29 0 60 -31 60 -74c0 -33 -18 -62 -62 -62c-37 0 -62 36 -62 72c0 31 17 64 64 64z" />
    <glyph glyph-name="zdotaccent" unicode="&#x17c;" horiz-adv-x="303" 
d="M303 318c0 -14 -5 -25 -14 -34c-57 -60 -126 -108 -188 -163c32 1 63 4 95 4c36 0 62 1 62 -45c0 -15 -2 -27 -19 -30c-43 -8 -81 -24 -122 -39c-11 -4 -23 -7 -35 -7c-17 0 -29 7 -38 21c-9 16 -29 63 -29 80s7 33 17 46c52 65 117 118 175 178c-43 -7 -80 -13 -124 -19
c-5 -1 -17 -2 -22 -2c-39 0 -43 25 -49 56c-1 5 -2 10 -2 15c0 41 50 62 82 75c4 2 9 3 13 3c11 0 14 -7 15 -16c3 -18 31 -12 44 -12c69 0 97 -18 129 -77c6 -10 10 -22 10 -34zM173 651c29 0 60 -31 60 -74c0 -33 -18 -62 -62 -62c-37 0 -62 36 -62 72c0 31 17 64 64 64z
" />
    <glyph glyph-name="Zcaron" unicode="&#x17d;" horiz-adv-x="436" 
d="M466 551c0 -36 -21 -69 -45 -94c-71 -74 -155 -134 -228 -205c-28 -27 -75 -77 -75 -118c0 -22 17 -28 37 -28c79 0 158 14 236 27c6 1 9 1 9 1c9 0 13 -4 13 -13s-3 -21 -6 -29c-23 -77 -128 -86 -195 -86c-65 0 -122 7 -152 74c-8 17 -12 36 -12 55c0 46 25 88 54 123
c86 102 183 195 270 296c5 6 11 13 11 21c0 19 -58 17 -71 17c-36 0 -72 -3 -107 -6c-40 -24 -100 -34 -147 -34c-30 0 -48 5 -48 38c0 38 3 64 41 81c32 14 160 63 189 63c19 0 26 -34 33 -49c9 -20 29 -13 48 -13c64 0 115 -25 139 -87c4 -11 6 -22 6 -34zM154 967
c47 0 84 -69 115 -118c21 31 80 111 115 111c12 0 37 -28 37 -36c0 -19 -32 -45 -59 -77c-30 -35 -42 -78 -72 -78c-35 0 -52 25 -52 24c-1 4 0 7 -2 12c-5 9 -95 140 -95 155c0 5 5 7 13 7z" />
    </font>
</defs>
</svg>
