
<svg xmlns="http://www.w3.org/2000/svg"
     width="8.61111in" height="1.375in"
     viewBox="0 0 620 99">
     <defs>
        <linearGradient id="gradient" y2="1">
          <stop stop-color= "#d1fda9" offset="0" />
          <stop stop-color= "#1d911c" offset="1" />
        </linearGradient>
      </defs>
  <path id="Selection"
        fill="url(#gradient)" stroke="none" stroke-width="1"
        d="M 27.00,41.10
           C 27.00,41.10 63.00,39.00 63.00,39.00
             63.00,39.00 78.00,40.00 78.00,40.00
             78.00,40.00 112.00,41.00 112.00,41.00
             112.00,41.00 144.00,39.00 144.00,39.00
             144.00,39.00 219.00,39.00 219.00,39.00
             219.00,39.00 250.00,41.00 250.00,41.00
             250.00,41.00 266.00,42.00 266.00,42.00
             266.00,42.00 281.00,42.00 281.00,42.00
             281.00,42.00 297.00,43.00 297.00,43.00
             297.00,43.00 319.00,43.00 319.00,43.00
             319.00,43.00 336.00,42.00 336.00,42.00
             336.00,42.00 358.00,42.00 358.00,42.00
             358.00,42.00 373.00,40.49 373.00,40.49
             373.00,40.49 382.00,40.49 382.00,40.49
             388.14,40.05 387.32,39.01 396.00,39.00
             396.00,39.00 453.00,39.00 453.00,39.00
             453.00,39.00 469.00,40.00 469.00,40.00
             469.00,40.00 495.00,40.00 495.00,40.00
             495.00,40.00 508.00,39.00 508.00,39.00
             508.00,39.00 540.00,38.00 540.00,38.00
             540.00,38.00 554.00,38.88 554.00,38.88
             554.00,38.88 576.00,38.88 576.00,38.88
             580.02,38.94 588.69,37.22 591.85,38.88
             598.09,41.31 594.24,52.46 589.98,55.37
             586.97,57.43 584.32,56.28 581.00,56.30
             581.00,56.30 567.00,57.00 567.00,57.00
             567.00,57.00 563.00,57.00 563.00,57.00
             558.05,56.95 552.61,56.96 548.00,55.00
             548.00,55.00 553.00,54.00 553.00,54.00
             553.00,54.00 542.00,54.95 542.00,54.95
             542.00,54.95 523.00,54.95 523.00,54.95
             523.00,54.95 506.00,54.00 506.00,54.00
             506.00,54.00 507.00,56.04 507.00,56.04
             507.00,56.04 496.00,56.04 496.00,56.04
             496.00,56.04 486.00,57.00 486.00,57.00
             486.00,57.00 467.00,55.78 467.00,55.78
             467.00,55.78 461.42,54.94 461.42,54.94
             461.42,54.94 453.00,54.94 453.00,54.94
             453.00,54.94 437.00,54.94 437.00,54.94
             437.00,54.94 421.00,54.00 421.00,54.00
             421.00,54.00 390.00,55.00 390.00,55.00
             390.00,55.00 360.00,57.00 360.00,57.00
             360.00,57.00 337.00,57.00 337.00,57.00
             337.00,57.00 320.00,58.00 320.00,58.00
             320.00,58.00 305.00,58.00 305.00,58.00
             305.00,58.00 289.00,57.00 289.00,57.00
             289.00,57.00 262.00,57.00 262.00,57.00
             262.00,57.00 229.00,53.96 229.00,53.96
             229.00,53.96 213.00,53.96 213.00,53.96
             213.00,53.96 201.00,53.00 201.00,53.00
             201.00,53.00 102.00,53.00 102.00,53.00
             102.00,53.00 67.00,50.04 67.00,50.04
             67.00,50.04 44.00,50.04 44.00,50.04
             44.00,50.04 11.00,51.00 11.00,51.00
             15.53,46.53 19.14,48.35 25.00,47.91
             25.00,47.91 44.00,44.00 44.00,44.00
             44.00,44.00 12.00,45.00 12.00,45.00
             12.00,45.00 12.00,43.00 12.00,43.00
             23.47,42.99 20.33,41.72 27.00,41.10 Z
           M 511.00,41.00
           C 511.00,41.00 516.00,40.00 516.00,40.00
             516.00,40.00 511.00,41.00 511.00,41.00 Z
           M 576.00,41.00
           C 576.00,41.00 584.00,40.00 584.00,40.00
             584.00,40.00 576.00,41.00 576.00,41.00 Z
           M 592.00,40.00
           C 592.00,40.00 593.00,41.00 593.00,41.00
             593.00,41.00 593.00,40.00 593.00,40.00
             593.00,40.00 592.00,40.00 592.00,40.00 Z
           M 591.00,52.00
           C 591.00,52.00 592.00,53.00 592.00,53.00
             592.00,53.00 592.00,52.00 592.00,52.00
             592.00,52.00 591.00,52.00 591.00,52.00 Z
           M 578.00,55.00
           C 578.00,55.00 584.00,54.00 584.00,54.00
             584.00,54.00 578.00,55.00 578.00,55.00 Z
           M 585.00,54.00
           C 585.00,54.00 586.00,55.00 586.00,55.00
             586.00,55.00 586.00,54.00 586.00,54.00
             586.00,54.00 585.00,54.00 585.00,54.00 Z
           M 589.00,54.00
           C 589.00,54.00 590.00,55.00 590.00,55.00
             590.00,55.00 590.00,54.00 590.00,54.00
             590.00,54.00 589.00,54.00 589.00,54.00 Z" />
</svg>


