<?xml version="1.0" encoding="UTF-8" standalone="no"?>
<!DOCTYPE svg PUBLIC "-//W3C//DTD SVG 20010904//EN"
              "http://www.w3.org/TR/2001/REC-SVG-20010904/DTD/svg10.dtd">

<svg xmlns="http://www.w3.org/2000/svg"
     width="1.91667in" height="0.236111in"
     viewBox="0 0 138 17">
  <path id="Selection"
        fill="#583e3f" stroke="none" stroke-width="1"
        d="M 8.00,6.00
           C 8.00,6.00 32.00,6.00 32.00,6.00
             32.00,6.00 51.00,6.00 51.00,6.00
             51.00,6.00 67.00,7.00 67.00,7.00
             67.00,7.00 107.00,7.00 107.00,7.00
             114.63,7.00 130.21,5.36 136.00,10.00
             129.32,11.90 103.63,11.00 95.00,11.00
             95.00,11.00 49.00,11.00 49.00,11.00
             49.00,11.00 33.00,10.00 33.00,10.00
             33.00,10.00 18.00,10.00 18.00,10.00
             18.00,10.00 1.00,9.00 1.00,9.00
             3.12,5.83 4.30,6.07 8.00,6.00 Z" />
</svg>
