<?xml version="1.0" encoding="UTF-8" standalone="no"?>
<!DOCTYPE svg PUBLIC "-//W3C//DTD SVG 20010904//EN"
              "http://www.w3.org/TR/2001/REC-SVG-20010904/DTD/svg10.dtd">

<svg xmlns="http://www.w3.org/2000/svg"
     width="2.01389in" height="0.263889in"
     viewBox="0 0 145 19">
  <path id="Selection"
        fill="#583e3f" stroke="none" stroke-width="1"
        d="M 5.57,7.06
           C 9.07,4.52 23.24,6.94 28.00,7.06
             28.00,7.06 94.00,7.06 94.00,7.06
             94.00,7.06 137.00,8.00 137.00,8.00
             137.00,8.00 137.00,10.04 137.00,10.04
             137.00,10.04 124.00,10.04 124.00,10.04
             124.00,10.04 117.00,10.82 117.00,10.82
             117.00,10.82 107.00,10.00 107.00,10.00
             107.00,10.00 50.00,10.00 50.00,10.00
             50.00,10.00 40.00,9.18 40.00,9.18
             40.00,9.18 28.00,10.00 28.00,10.00
             28.00,10.00 4.00,10.00 4.00,10.00
             4.44,8.79 4.36,8.09 5.57,7.06 Z" />
</svg>
